<svg width="420" height="319" viewBox="0 0 323 287" fill="none" xmlns="http://www.w3.org/2000/svg">
<path fill-rule="evenodd" clip-rule="evenodd" d="M2.77668 210.674L2.41189 209.401L2.08066 208.116L1.78172 206.82L1.51371 205.515L1.27541 204.201L1.06546 202.879L0.882587 201.55L0.72553 200.215L0.593147 198.875L0.484308 197.53L0.397812 196.182L0.332701 194.829L0.287976 193.474L0.26267 192.117L0.255948 190.758L0.266916 189.397L0.294829 188.035L0.338879 186.672L0.398301 185.309L0.472279 183.946L0.560109 182.583L0.660966 181.22L0.774173 179.857L0.898832 178.495L1.03415 177.135L1.17912 175.775L1.33284 174.416L1.49428 173.059L1.66234 171.703L1.83584 170.349L2.01371 168.996L2.1946 167.645L2.37719 166.296L2.55994 164.949L2.7414 163.603L2.92002 162.259L3.0944 160.917L3.26319 159.575L3.4252 158.235L3.57939 156.895L3.72487 155.556L3.86106 154.216L3.98744 152.876L4.10382 151.534L4.21029 150.191L4.30701 148.846L4.39456 147.497L4.47361 146.145L4.54512 144.789L4.61031 143.428L4.67046 142.061L4.72723 140.689L4.7823 139.311L4.83763 137.926L4.89527 136.534L4.95741 135.135L5.02636 133.728L5.10451 132.313L5.19434 130.891L5.29835 129.46L5.4192 128.022L5.55941 126.577L5.72159 125.125L5.90827 123.666L6.12202 122.2L6.36542 120.729L6.64075 119.253L6.95041 117.772L7.29666 116.288L7.68166 114.801L8.1074 113.313L8.57575 111.825L9.08846 110.336L9.64723 108.85L10.2535 107.367L10.9084 105.888L11.6133 104.414L12.369 102.948L13.1764 101.49L14.036 100.041L14.9484 98.6044L15.9138 97.1799L16.9324 95.7694L18.004 94.3745L19.1285 92.9965L20.3056 91.6368L21.5348 90.2968L22.8153 88.9778L24.1463 87.6813L25.5271 86.4084L26.9565 85.1605L28.4334 83.9388L29.9565 82.7444L31.5245 81.5785L33.1359 80.4421L34.7892 79.3364L36.4827 78.2621L38.2149 77.2203L39.984 76.2118L41.7881 75.2375L43.6256 74.2981L45.4945 73.3942L47.393 72.5266L49.319 71.6957L51.2708 70.9022L53.2462 70.1465L55.2434 69.4288L57.2604 68.7497L59.295 68.1093L61.3454 67.5079L63.4094 66.9455L65.4849 66.4221L67.57 65.9376L69.6623 65.4919L71.7598 65.0847L73.8603 64.7155L75.9615 64.3838L78.0611 64.0887L80.1567 63.8293L82.2459 63.6046L84.3263 63.4132L86.3952 63.2534L88.45 63.1234L90.488 63.0208L92.5062 62.9432L94.502 62.8877L96.4726 62.8513L98.4153 62.8304L100.328 62.8217L102.207 62.8211L104.051 62.825L105.859 62.8294L107.629 62.8306L109.359 62.8248L111.049 62.8082L112.697 62.7771L114.305 62.7278L115.872 62.6567L117.397 62.5603L118.882 62.4351L120.327 62.2778L121.734 62.0851L123.102 61.854L124.435 61.5816L125.732 61.2651L126.998 60.9019L128.232 60.4897L129.438 60.0263L130.618 59.5098L131.775 58.9386L132.911 58.3112L134.029 57.6265L135.132 56.8838L136.222 56.0824L137.304 55.2222L138.38 54.3031L139.453 53.3256L140.527 52.2904L141.604 51.1985L142.688 50.0514L143.781 48.8505L144.887 47.5981L146.008 46.2963L147.148 44.9478L148.308 43.5555L149.491 42.1225L150.7 40.6523L151.936 39.1487L153.201 37.6155L154.498 36.057L155.826 34.4775L157.189 32.8816L158.585 31.274L160.017 29.6595L161.485 28.0431L162.988 26.4299L164.526 24.8249L166.1 23.2333L167.709 21.6603L169.35 20.1109L171.025 18.5902L172.73 17.1032L174.465 15.6547L176.227 14.2495L178.014 12.8922L179.825 11.5872L181.656 10.3385L183.506 9.15023L185.37 8.02593L187.248 6.96901L189.134 5.98254L191.027 5.06918L192.924 4.23138L194.821 3.47116L196.715 2.79013L198.603 2.18961L200.483 1.67039L202.35 1.23297L204.203 0.877431L206.039 0.603384L207.855 0.410106L209.649 0.296451L211.419 0.260859L213.162 0.301432L214.878 0.415947L216.564 0.601732L218.219 0.855912L219.843 1.17527L221.435 1.55629L222.994 1.99532L224.52 2.48851L226.014 3.03177L227.475 3.62109L228.904 4.25224L230.303 4.9211L231.671 5.62357L233.01 6.3558L234.322 7.11393L235.607 7.89446L236.867 8.69408L238.102 9.51001L239.315 10.3399L240.505 11.1818L241.674 12.0342L242.822 12.8962L243.949 13.7672L245.056 14.647L246.141 15.536L247.205 16.4346L248.247 17.3431L249.266 18.2621L250.262 19.1922L251.235 20.1338L252.183 21.0876L253.106 22.0542L254.003 23.0339L254.873 24.0274L255.716 25.035L256.53 26.0571L257.316 27.094L258.071 28.146L258.797 29.2133L259.491 30.2959L260.153 31.3938L260.783 32.507L261.381 33.6353L261.945 34.7784L262.476 35.936L262.974 37.1077L263.438 38.2927L263.868 39.4907L264.264 40.7007L264.627 41.922L264.957 43.1538L265.255 44.395L265.52 45.6445L265.754 46.9013L265.958 48.1642L266.133 49.4319L266.279 50.703L266.398 51.9763L266.492 53.2502L266.562 54.5234L266.61 55.7943L266.637 57.0614L266.646 58.3233L266.639 59.5783L266.618 60.8249L266.585 62.0615L266.543 63.2867L266.495 64.4989L266.442 65.6966L266.389 66.8784L266.338 68.0428L266.291 69.1886L266.253 70.3144L266.225 71.419L266.212 72.5013L266.216 73.5602L266.24 74.5948L266.288 75.6041L266.363 76.5876L266.468 77.5446L266.606 78.4745L266.781 79.377L266.994 80.2519L267.249 81.0991L267.548 81.9186L267.894 82.7108L268.29 83.4759L268.737 84.2145L269.238 84.9273L269.793 85.6151L270.405 86.279L271.075 86.9201L271.803 87.5397L272.591 88.1393L273.438 88.7205L274.344 89.2851L275.309 89.8349L276.332 90.3719L277.411 90.8982L278.546 91.4159L279.735 91.9275L280.975 92.4351L282.263 92.9413L283.597 93.4483L284.973 93.9586L286.388 94.4747L287.837 94.9988L289.317 95.5335L290.824 96.0809L292.353 96.6432L293.899 97.2226L295.457 97.8209L297.024 98.4399L298.595 99.0813L300.165 99.7466L301.728 100.437L303.28 101.155L304.815 101.901L306.327 102.676L307.811 103.481L309.259 104.318L310.667 105.187L312.027 106.088L313.335 107.022L314.583 107.989L315.767 108.989L316.879 110.022L317.913 111.087L318.865 112.184L319.728 113.312L320.498 114.469L321.168 115.655L321.736 116.868L322.197 118.106L322.547 119.366L322.783 120.649L322.904 121.949L322.908 123.267L322.792 124.598L322.557 125.94L322.203 127.291L321.73 128.648L321.139 130.008L320.432 131.369L319.612 132.726L318.68 134.079L317.641 135.424L316.498 136.758L315.256 138.079L313.919 139.385L312.492 140.674L310.981 141.943L309.392 143.19L307.73 144.415L306.001 145.614L304.213 146.788L302.372 147.934L300.485 149.053L298.559 150.143L296.6 151.204L294.615 152.237L292.612 153.24L290.597 154.214L288.578 155.16L286.56 156.079L284.55 156.971L282.555 157.839L280.58 158.682L278.631 159.504L276.715 160.305L274.835 161.088L272.998 161.854L271.207 162.606L269.466 163.347L267.78 164.079L266.153 164.805L264.586 165.526L263.083 166.247L261.646 166.97L260.277 167.697L258.976 168.431L257.746 169.176L256.587 169.934L255.499 170.708L254.482 171.501L253.535 172.315L252.657 173.152L251.848 174.016L251.104 174.908L250.425 175.831L249.809 176.787L249.251 177.778L248.751 178.805L248.304 179.87L247.907 180.974L247.557 182.119L247.251 183.305L246.983 184.534L246.75 185.805L246.549 187.12L246.374 188.478L246.221 189.879L246.086 191.323L245.965 192.809L245.853 194.337L245.745 195.906L245.637 197.514L245.525 199.16L245.404 200.842L245.269 202.559L245.117 204.308L244.944 206.087L244.744 207.893L244.515 209.724L244.252 211.576L243.953 213.448L243.616 215.336L243.236 217.239L242.813 219.153L242.345 221.077L241.83 223.008L241.266 224.943L240.654 226.881L239.99 228.819L239.276 230.756L238.51 232.688L237.692 234.613L236.822 236.53L235.898 238.435L234.922 240.328L233.893 242.205L232.811 244.064L231.678 245.903L230.493 247.721L229.256 249.515L227.97 251.283L226.634 253.023L225.249 254.734L223.818 256.414L222.339 258.06L220.816 259.671L219.249 261.246L217.64 262.783L215.989 264.281L214.3 265.738L212.572 267.152L210.808 268.523L209.01 269.849L207.179 271.129L205.317 272.362L203.426 273.547L201.508 274.683L199.564 275.769L197.596 276.805L195.607 277.789L193.598 278.721L191.572 279.6L189.529 280.427L187.473 281.2L185.405 281.92L183.327 282.585L181.241 283.197L179.148 283.755L177.052 284.26L174.953 284.71L172.853 285.108L170.755 285.453L168.659 285.746L166.569 285.987L164.484 286.177L162.408 286.317L160.341 286.408L158.284 286.451L156.24 286.447L154.21 286.397L152.194 286.302L150.194 286.165L148.211 285.986L146.246 285.767L144.299 285.509L142.372 285.214L140.466 284.883L138.58 284.519L136.715 284.123L134.872 283.696L133.051 283.24L131.253 282.758L129.477 282.25L127.723 281.718L125.993 281.163L124.285 280.588L122.599 279.994L120.936 279.381L119.296 278.751L117.678 278.106L116.081 277.446L114.507 276.772L112.954 276.086L111.423 275.387L109.913 274.677L108.424 273.956L106.957 273.225L105.51 272.484L104.083 271.733L102.678 270.973L101.293 270.203L99.9284 269.424L98.5842 268.637L97.2604 267.841L95.9567 267.037L94.6729 266.225L93.4088 265.405L92.1639 264.579L90.9376 263.748L89.7293 262.912L88.5379 262.072L87.3625 261.231L86.2015 260.391L85.0535 259.552L83.9168 258.718L82.7893 257.89L81.6692 257.071L80.5542 256.262L79.4421 255.467L78.3304 254.686L77.2169 253.923L76.0992 253.178L74.9749 252.454L73.8417 251.752L72.6974 251.073L71.5401 250.417L70.3677 249.787L69.1787 249.181L67.9713 248.601L66.7444 248.045L65.4968 247.513L64.2277 247.005L62.9364 246.52L61.6227 246.057L60.2864 245.613L58.9276 245.187L57.5468 244.779L56.1448 244.384L54.7223 244.003L53.2805 243.631L51.8208 243.267L50.3449 242.909L48.8544 242.554L47.3514 242.199L45.838 241.842L44.3164 241.48L42.7892 241.112L41.2588 240.734L39.7279 240.344L38.199 239.94L36.6751 239.52L35.1588 239.081L33.6529 238.622L32.1601 238.141L30.6833 237.637L29.225 237.107L27.7879 236.55L26.3746 235.966L24.9873 235.353L23.6286 234.71L22.3005 234.036L21.005 233.332L19.7442 232.596L18.5196 231.829L17.333 231.031L16.1855 230.201L15.0786 229.339L14.0132 228.447L12.9902 227.525L12.0102 226.573L11.0736 225.592L10.1809 224.583L9.33204 223.547L8.52708 222.484L7.76581 221.396L7.04785 220.285L6.37267 219.15L5.73963 217.994L5.14802 216.818L4.59689 215.623L4.08531 214.409L3.61219 213.179L3.17638 211.933L2.77668 210.674Z" fill="url(#paint0_linear_2807_2305)" fill-opacity="0.05"/>
<defs>
<linearGradient id="paint0_linear_2807_2305" x1="276.233" y1="95.9528" x2="21.6339" y2="298.586" gradientUnits="userSpaceOnUse">
<stop stop-color="#001665"/>
<stop offset="1" stop-color="#DB4542"/>
</linearGradient>
</defs>
</svg>
