<svg width="34" height="34" viewBox="0 0 34 34" fill="none" xmlns="http://www.w3.org/2000/svg">
<circle cx="17" cy="16.6771" r="16" stroke="#EFB027"/>
<path d="M15.7495 16.5891C17.4895 16.5891 18.9005 15.1781 18.9005 13.4381C18.9005 11.6981 17.4895 10.2871 15.7495 10.2871C14.0095 10.2871 12.5985 11.6981 12.5985 13.4381C12.5985 13.4381 12.5985 13.4381 12.5985 13.4386C12.6005 15.1781 14.0105 16.5876 15.7495 16.5896V16.5891ZM15.7495 11.0371C17.0755 11.0371 18.1505 12.1121 18.1505 13.4381C18.1505 14.7641 17.0755 15.8391 15.7495 15.8391C14.4235 15.8391 13.3485 14.7641 13.3485 13.4381C13.35 12.1126 14.424 11.0381 15.7495 11.0366V11.0371ZM15.7495 17.6936C12.7715 17.7061 10.282 19.7851 9.6415 22.5701L9.6335 22.6126C9.628 22.6366 9.625 22.6641 9.625 22.6926C9.625 22.8996 9.793 23.0676 10 23.0676C10.1785 23.0676 10.328 22.9426 10.3655 22.7751L10.366 22.7726C10.928 20.2786 13.1245 18.4436 15.75 18.4436C18.3755 18.4436 20.5715 20.2786 21.127 22.7356L21.134 22.7726C21.17 22.9426 21.319 23.0681 21.497 23.0681C21.5265 23.0681 21.5555 23.0646 21.583 23.0581L21.5805 23.0586C21.7505 23.0206 21.8755 22.8711 21.8755 22.6921C21.8755 22.6636 21.8725 22.6361 21.8665 22.6096L21.867 22.6121C21.2175 19.7851 18.729 17.7061 15.752 17.6931H15.7505L15.7495 17.6936ZM24.2525 14.2161C24.186 14.1556 24.0975 14.1186 24 14.1186C23.8905 14.1186 23.792 14.1651 23.7235 14.2396V14.2401L21.3605 16.8231L20.7615 16.2286C20.6935 16.1606 20.6 16.1186 20.496 16.1186C20.2885 16.1186 20.1205 16.2866 20.1205 16.4941C20.1205 16.5986 20.163 16.6926 20.232 16.7606L21.108 17.6301L21.1165 17.6336L21.12 17.6411C21.185 17.7021 21.2725 17.7396 21.369 17.7396C21.469 17.7396 21.5595 17.6991 21.6255 17.6341C21.6295 17.6306 21.6355 17.6321 21.6395 17.6281L21.642 17.6221L21.6495 17.6166L24.2765 14.7456C24.3375 14.6791 24.375 14.5901 24.375 14.4926C24.375 14.3831 24.328 14.2846 24.2535 14.2161L24.253 14.2156L24.2525 14.2161Z" fill="white"/>
</svg>
