<svg width="34" height="34" viewBox="0 0 34 34" fill="none" xmlns="http://www.w3.org/2000/svg">
<circle cx="17" cy="17.389" r="16" stroke="#EFB027"/>
<g clip-path="url(#clip0_2781_618)">
<path d="M23.9249 26.389C23.9248 26.389 23.9246 26.389 23.9244 26.389L17.2347 26.3763H10.076C9.93476 26.3763 9.82031 26.2618 9.82031 26.1206V14.6179C9.82031 14.4766 9.93476 14.3622 10.076 14.3622H13.6464V8.64472C13.6464 8.50348 13.7609 8.38904 13.9021 8.38904H23.9248C24.0661 8.38904 24.1805 8.50348 24.1805 8.64472V26.1334C24.1805 26.2013 24.1535 26.2663 24.1055 26.3144C24.0576 26.3621 23.9927 26.389 23.9249 26.389ZM17.4908 25.8654L23.6692 25.8772V8.9004H14.1578V14.3622H17.2351C17.3763 14.3622 17.4908 14.4766 17.4908 14.6179V25.8654ZM10.3317 25.8649H16.9794V14.8735H10.3317V25.8649ZM16.1901 24.2039H14.1672C14.026 24.2039 13.9115 24.0894 13.9115 23.9482V22.7644C13.9115 22.6232 14.026 22.5087 14.1672 22.5087H16.1901C16.3313 22.5087 16.4457 22.6232 16.4457 22.7644V23.9482C16.4457 24.0894 16.3313 24.2039 16.1901 24.2039ZM14.4229 23.6925H15.9344V23.0201H14.4229V23.6925ZM13.144 24.2039H11.1211C10.9799 24.2039 10.8654 24.0894 10.8654 23.9482V22.7644C10.8654 22.6232 10.9799 22.5087 11.1211 22.5087H13.144C13.2852 22.5087 13.3997 22.6232 13.3997 22.7644V23.9482C13.3997 24.0894 13.2852 24.2039 13.144 24.2039ZM11.3768 23.6925H12.8883V23.0201H11.3768V23.6925ZM22.1871 24.0726H21.2091C21.0679 24.0726 20.9534 23.9581 20.9534 23.8169V22.7541C20.9534 22.6128 21.0679 22.4984 21.2091 22.4984H22.1871C22.3284 22.4984 22.4428 22.6128 22.4428 22.7541V23.8169C22.4428 23.9581 22.3284 24.0726 22.1871 24.0726ZM21.4649 23.5612H21.9316V23.0097H21.4649V23.5612ZM19.3666 24.0726H18.3885C18.2473 24.0726 18.1328 23.9581 18.1328 23.8169V22.7541C18.1328 22.6128 18.2473 22.4984 18.3885 22.4984H19.3666C19.5078 22.4984 19.6222 22.6128 19.6222 22.7541V23.8169C19.6222 23.9581 19.5078 24.0726 19.3666 24.0726ZM18.6442 23.5612H19.1109V23.0097H18.6442V23.5612ZM16.1901 21.8908H14.1672C14.026 21.8908 13.9115 21.7763 13.9115 21.6351V20.4513C13.9115 20.31 14.026 20.1956 14.1672 20.1956H16.1901C16.3313 20.1956 16.4457 20.31 16.4457 20.4513V21.6351C16.4457 21.7762 16.3313 21.8908 16.1901 21.8908ZM14.4229 21.3794H15.9344V20.707H14.4229V21.3794ZM13.144 21.8908H11.1211C10.9799 21.8908 10.8654 21.7763 10.8654 21.6351V20.4513C10.8654 20.31 10.9799 20.1956 11.1211 20.1956H13.144C13.2852 20.1956 13.3997 20.31 13.3997 20.4513V21.6351C13.3997 21.7762 13.2852 21.8908 13.144 21.8908ZM11.3768 21.3794H12.8883V20.707H11.3768V21.3794ZM22.1871 21.5248H21.2091C21.0679 21.5248 20.9534 21.4104 20.9534 21.2692V20.2064C20.9534 20.0652 21.0679 19.9508 21.2091 19.9508H22.1871C22.3284 19.9508 22.4428 20.0652 22.4428 20.2064V21.2692C22.4428 21.4104 22.3284 21.5248 22.1871 21.5248ZM21.4649 21.0135H21.9316V20.4621H21.4649V21.0135ZM19.3666 21.5248H18.3885C18.2473 21.5248 18.1328 21.4104 18.1328 21.2692V20.2064C18.1328 20.0652 18.2473 19.9508 18.3885 19.9508H19.3666C19.5078 19.9508 19.6222 20.0652 19.6222 20.2064V21.2692C19.6222 21.4104 19.5078 21.5248 19.3666 21.5248ZM18.6442 21.0135H19.1109V20.4621H18.6442V21.0135ZM16.1901 19.5776H14.1672C14.026 19.5776 13.9115 19.4631 13.9115 19.3219V18.1381C13.9115 17.9968 14.026 17.8824 14.1672 17.8824H16.1901C16.3313 17.8824 16.4457 17.9968 16.4457 18.1381V19.3219C16.4457 19.4631 16.3313 19.5776 16.1901 19.5776ZM14.4229 19.0662H15.9344V18.3938H14.4229V19.0662ZM13.144 19.5776H11.1211C10.9799 19.5776 10.8654 19.4631 10.8654 19.3219V18.1381C10.8654 17.9968 10.9799 17.8824 11.1211 17.8824H13.144C13.2852 17.8824 13.3997 17.9968 13.3997 18.1381V19.3219C13.3997 19.4631 13.2852 19.5776 13.144 19.5776ZM11.3768 19.0662H12.8883V18.3938H11.3768V19.0662ZM22.1871 18.9771H21.2091C21.0679 18.9771 20.9534 18.8627 20.9534 18.7214V17.6587C20.9534 17.5175 21.0679 17.403 21.2091 17.403H22.1871C22.3284 17.403 22.4428 17.5175 22.4428 17.6587V18.7215C22.4428 18.8627 22.3284 18.9771 22.1871 18.9771ZM21.4649 18.4658H21.9316V17.9143H21.4649V18.4658ZM19.3666 18.9771H18.3885C18.2473 18.9771 18.1328 18.8627 18.1328 18.7214V17.6587C18.1328 17.5175 18.2473 17.403 18.3885 17.403H19.3666C19.5078 17.403 19.6222 17.5175 19.6222 17.6587V18.7215C19.6222 18.8627 19.5078 18.9771 19.3666 18.9771ZM18.6442 18.4658H19.1109V17.9143H18.6442V18.4658ZM16.1901 17.2644H14.1672C14.026 17.2644 13.9115 17.1499 13.9115 17.0087V15.8249C13.9115 15.6836 14.026 15.5692 14.1672 15.5692H16.1901C16.3313 15.5692 16.4457 15.6836 16.4457 15.8249V17.0088C16.4457 17.1499 16.3313 17.2644 16.1901 17.2644ZM14.4229 16.753H15.9344V16.0805H14.4229V16.753ZM13.144 17.2644H11.1211C10.9799 17.2644 10.8654 17.1499 10.8654 17.0087V15.8249C10.8654 15.6836 10.9799 15.5692 11.1211 15.5692H13.144C13.2852 15.5692 13.3997 15.6836 13.3997 15.8249V17.0088C13.3997 17.1499 13.2852 17.2644 13.144 17.2644ZM11.3768 16.753H12.8883V16.0805H11.3768V16.753ZM22.1871 16.4294H21.2091C21.0679 16.4294 20.9534 16.315 20.9534 16.1737V15.111C20.9534 14.9698 21.0679 14.8553 21.2091 14.8553H22.1871C22.3284 14.8553 22.4428 14.9698 22.4428 15.111V16.1737C22.4428 16.315 22.3284 16.4294 22.1871 16.4294ZM21.4649 15.918H21.9316V15.3667H21.4649V15.918ZM19.3666 16.4294H18.3885C18.2473 16.4294 18.1328 16.315 18.1328 16.1737V15.111C18.1328 14.9698 18.2473 14.8553 18.3885 14.8553H19.3666C19.5078 14.8553 19.6222 14.9698 19.6222 15.111V16.1737C19.6222 16.315 19.5078 16.4294 19.3666 16.4294ZM18.6442 15.918H19.1109V15.3667H18.6442V15.918ZM22.1871 13.8818H21.2091C21.0679 13.8818 20.9534 13.7674 20.9534 13.6261V12.5633C20.9534 12.4221 21.0679 12.3076 21.2091 12.3076H22.1871C22.3284 12.3076 22.4428 12.4221 22.4428 12.5633V13.6261C22.4428 13.7673 22.3284 13.8818 22.1871 13.8818ZM21.4649 13.3704H21.9316V12.819H21.4649V13.3704ZM19.3666 13.8818H18.3885C18.2473 13.8818 18.1328 13.7674 18.1328 13.6261V12.5633C18.1328 12.4221 18.2473 12.3076 18.3885 12.3076H19.3666C19.5078 12.3076 19.6222 12.4221 19.6222 12.5633V13.6261C19.6222 13.7673 19.5078 13.8818 19.3666 13.8818ZM18.6442 13.3704H19.1109V12.819H18.6442V13.3704ZM16.5459 13.8818H15.5678C15.4266 13.8818 15.3122 13.7674 15.3122 13.6261V12.5633C15.3122 12.4221 15.4266 12.3076 15.5678 12.3076H16.5459C16.6871 12.3076 16.8016 12.4221 16.8016 12.5633V13.6261C16.8016 13.7673 16.6871 13.8818 16.5459 13.8818ZM15.8236 13.3704H16.2903V12.819H15.8236V13.3704ZM22.1871 11.334H21.2091C21.0679 11.334 20.9534 11.2195 20.9534 11.0783V10.0156C20.9534 9.87434 21.0679 9.7599 21.2091 9.7599H22.1871C22.3284 9.7599 22.4428 9.87434 22.4428 10.0156V11.0784C22.4428 11.2195 22.3284 11.334 22.1871 11.334ZM21.4649 10.8226H21.9316V10.2712H21.4649V10.8226ZM19.3666 11.334H18.3885C18.2473 11.334 18.1328 11.2195 18.1328 11.0783V10.0156C18.1328 9.87434 18.2473 9.7599 18.3885 9.7599H19.3666C19.5078 9.7599 19.6222 9.87434 19.6222 10.0156V11.0784C19.6222 11.2195 19.5078 11.334 19.3666 11.334ZM18.6442 10.8226H19.1109V10.2712H18.6442V10.8226ZM16.5459 11.334H15.5678C15.4266 11.334 15.3122 11.2195 15.3122 11.0783V10.0156C15.3122 9.87434 15.4266 9.7599 15.5678 9.7599H16.5459C16.6871 9.7599 16.8016 9.87434 16.8016 10.0156V11.0784C16.8016 11.2195 16.6871 11.334 16.5459 11.334ZM15.8236 10.8226H16.2903V10.2712H15.8236V10.8226Z" fill="white"/>
</g>
<defs>
<clipPath id="clip0_2781_618">
<rect width="18" height="18" fill="white" transform="translate(8 8.38904)"/>
</clipPath>
</defs>
</svg>
