<svg width="34" height="34" viewBox="0 0 34 34" fill="none" xmlns="http://www.w3.org/2000/svg">
<g clip-path="url(#clip0_2781_694)">
<path d="M17.0009 8.67712C13.4281 8.67712 10.5215 11.5838 10.5215 15.1566C10.5215 16.6308 11.0046 18.0192 11.9187 19.1717C13.1022 20.6639 16.5438 24.207 16.6898 24.3571L17.0009 24.6771L17.3121 24.3571C17.458 24.207 20.9007 20.6631 22.0844 19.1704C22.9976 18.0188 23.4803 16.6309 23.4803 15.1566C23.4803 11.5838 20.5737 8.67712 17.0009 8.67712ZM21.4044 18.6311C20.4515 19.8327 17.8924 22.5057 17.0009 23.4303C16.1095 22.5057 13.5514 19.8335 12.5987 18.6323C11.8075 17.6348 11.3895 16.433 11.3895 15.1566C11.3895 12.0624 13.9067 9.54512 17.0009 9.54512C20.095 9.54512 22.6123 12.0624 22.6123 15.1566C22.6123 16.433 22.1946 17.6345 21.4044 18.6311Z" fill="white"/>
<path d="M17.0014 11.2493C14.8866 11.2493 13.166 12.9698 13.166 15.0847C13.166 17.1995 14.8866 18.9201 17.0014 18.9201C19.1163 18.9201 20.8368 17.1995 20.8368 15.0847C20.8369 12.9698 19.1163 11.2493 17.0014 11.2493ZM17.0014 18.0521C15.3652 18.0521 14.034 16.7209 14.034 15.0847C14.034 13.4484 15.3652 12.1173 17.0014 12.1173C18.6377 12.1173 19.9688 13.4484 19.9688 15.0847C19.9689 16.7209 18.6376 18.0521 17.0014 18.0521Z" fill="white"/>
<path d="M16.8412 15.3743L15.7514 14.5072L15.2109 15.1865L16.9769 16.5914L18.8575 14.2507L18.1808 13.707L16.8412 15.3743Z" fill="white"/>
</g>
<circle cx="17" cy="16.6771" r="16" stroke="#EFB027"/>
<defs>
<clipPath id="clip0_2781_694">
<rect width="16" height="16" fill="white" transform="translate(9 8.67712)"/>
</clipPath>
</defs>
</svg>
