<svg width="66" height="75" viewBox="0 0 66 75" fill="none" xmlns="http://www.w3.org/2000/svg">
<path fill-rule="evenodd" clip-rule="evenodd" d="M56.0977 32.8129C56.1673 29.7057 55.6155 26.6158 54.4745 23.7248C53.3335 20.8338 51.6265 18.1999 49.4536 15.9777C47.2806 13.7555 44.6856 11.9899 41.8209 10.7844C38.9562 9.57896 35.8795 8.95801 32.7715 8.95801C29.6635 8.95801 26.5868 9.57896 23.7221 10.7844C20.8573 11.9899 18.2623 13.7555 16.0894 15.9777C13.9165 18.1999 12.2094 20.8338 11.0685 23.7248C9.92752 26.6158 9.37566 29.7057 9.44531 32.8129C9.44531 43.2309 16.6055 51.5629 22.9219 58.8285L24.1992 60.3168C23.4754 60.7011 22.8696 61.2747 22.4465 61.9765C22.0234 62.6782 21.7989 63.4817 21.7969 64.3012V70.4887C21.8061 71.6865 22.2877 72.8322 23.1368 73.677C23.986 74.5218 25.1342 74.9974 26.332 75.0004H39.2227C40.4286 75.0004 41.5851 74.5214 42.4378 73.6687C43.2905 72.816 43.7695 71.6594 43.7695 70.4535V64.266C43.7674 63.4422 43.5404 62.6346 43.1129 61.9303C42.6854 61.2261 42.0737 60.652 41.3437 60.2699L42.5156 58.8168C48.9141 51.3051 56.0977 42.7856 56.0977 32.8129ZM11.7891 32.8129C11.723 30.0157 12.2168 27.2336 13.2415 24.63C14.2663 22.0265 15.8013 19.6541 17.7562 17.6524C19.7112 15.6507 22.0466 14.0601 24.6252 12.9741C27.2038 11.8882 29.9735 11.3287 32.7715 11.3287C35.5694 11.3287 38.3392 11.8882 40.9178 12.9741C43.4964 14.0601 45.8318 15.6507 47.7867 17.6524C49.7417 19.6541 51.2767 22.0265 52.3014 24.63C53.3262 27.2336 53.82 30.0157 53.7539 32.8129C53.7539 41.977 46.8633 50.1449 40.793 57.352L38.7656 59.766H26.8008L24.6797 57.3051C18.3398 49.9106 11.7891 42.3168 11.7891 32.8129ZM39.2461 72.6567H26.3555C26.0661 72.6567 25.7797 72.5997 25.5124 72.4889C25.2451 72.3782 25.0022 72.216 24.7976 72.0114C24.593 71.8068 24.4308 71.5639 24.32 71.2966C24.2093 71.0293 24.1523 70.7428 24.1523 70.4535V68.5317H41.4492V70.4535C41.4492 70.7428 41.3922 71.0293 41.2815 71.2966C41.1708 71.5639 41.0085 71.8068 40.8039 72.0114C40.5994 72.216 40.3565 72.3782 40.0892 72.4889C39.8219 72.5997 39.5354 72.6567 39.2461 72.6567V72.6567ZM41.4492 66.1879H24.1289V64.266C24.1412 63.6899 24.3787 63.1415 24.7905 62.7384C25.2024 62.3353 25.7558 62.1096 26.332 62.1098H39.2227C39.807 62.1098 40.3673 62.3419 40.7805 62.7551C41.1937 63.1682 41.4258 63.7286 41.4258 64.3129L41.4492 66.1879Z" fill="#001665"/>
<path fill-rule="evenodd" clip-rule="evenodd" d="M32.649 49.3574C35.9504 49.3596 39.1786 48.3845 41.9267 46.5551C44.6749 44.7256 46.8201 42.1236 48.0919 39.0771C49.3637 36.0305 49.7054 32.6756 49.0737 29.4352C48.442 26.1947 46.8653 23.2138 44.5423 20.868C42.2193 18.5221 39.2539 16.9164 36.0198 16.2531C32.7857 15.5898 29.4276 15.8986 26.3688 17.1406C23.3099 18.3827 20.6871 20.5023 18.8309 23.2325C16.9747 25.9626 15.9681 29.1811 15.938 32.4824C15.9196 32.525 15.9102 32.5708 15.9102 32.6172C15.9102 32.6635 15.9196 32.7094 15.938 32.752C15.972 37.1638 17.7469 41.3836 20.8764 44.4935C24.006 47.6033 28.237 49.3514 32.649 49.3574V49.3574ZM31.4771 18.3262V20.3301C31.4771 20.6409 31.6005 20.939 31.8203 21.1587C32.0401 21.3785 32.3382 21.502 32.649 21.502C32.9598 21.502 33.2578 21.3785 33.4776 21.1587C33.6974 20.939 33.8208 20.6409 33.8208 20.3301V18.3262C37.2247 18.5958 40.4214 20.068 42.8391 22.4792C45.2567 24.8904 46.7374 28.0832 47.0161 31.4863H44.9888C44.678 31.4863 44.3799 31.6098 44.1602 31.8296C43.9404 32.0493 43.8169 32.3474 43.8169 32.6582C43.8169 32.969 43.9404 33.2671 44.1602 33.4868C44.3799 33.7066 44.678 33.8301 44.9888 33.8301H47.0161C46.7298 37.2251 45.2473 40.4081 42.8328 42.8118C40.4184 45.2156 37.2288 46.6839 33.8326 46.9551V44.9512C33.8326 44.6404 33.7091 44.3423 33.4893 44.1225C33.2695 43.9028 32.9715 43.7793 32.6607 43.7793C32.3499 43.7793 32.0518 43.9028 31.832 44.1225C31.6123 44.3423 31.4888 44.6404 31.4888 44.9512V46.9668C28.0999 46.6756 24.9239 45.1925 22.5251 42.7809C20.1264 40.3693 18.6603 37.1854 18.3872 33.7949H20.3794C20.6902 33.7949 20.9883 33.6715 21.2081 33.4517C21.4278 33.2319 21.5513 32.9338 21.5513 32.623C21.5513 32.3122 21.4278 32.0142 21.2081 31.7944C20.9883 31.5746 20.6902 31.4512 20.3794 31.4512H18.3872C18.672 28.0636 20.1478 24.8864 22.5527 22.4837C24.9576 20.0809 28.1361 18.6079 31.524 18.3262H31.4771Z" fill="#001665"/>
<path fill-rule="evenodd" clip-rule="evenodd" d="M32.8125 5.17969C33.1233 5.17969 33.4214 5.05622 33.6411 4.83645C33.8609 4.61668 33.9844 4.31861 33.9844 4.00781V1.17188C33.9844 0.861074 33.8609 0.563003 33.6411 0.343234C33.4214 0.123465 33.1233 0 32.8125 0C32.5017 0 32.2036 0.123465 31.9839 0.343234C31.7641 0.563003 31.6406 0.861074 31.6406 1.17188V4.00781C31.6406 4.31861 31.7641 4.61668 31.9839 4.83645C32.2036 5.05622 32.5017 5.17969 32.8125 5.17969Z" fill="#001665"/>
<path fill-rule="evenodd" clip-rule="evenodd" d="M51.5619 11.9548C51.7161 11.9557 51.869 11.9261 52.0118 11.8678C52.1546 11.8095 52.2844 11.7235 52.3939 11.6149L54.3744 9.59931C54.5541 9.37467 54.6449 9.09178 54.6295 8.8045C54.6142 8.51723 54.4936 8.24565 54.2909 8.0415C54.0882 7.83735 53.8175 7.7149 53.5304 7.69747C53.2432 7.68003 52.9597 7.76884 52.7338 7.94696L50.7064 9.95087C50.5396 10.1162 50.4263 10.3278 50.3812 10.5582C50.3361 10.7887 50.3613 11.0274 50.4535 11.2434C50.5457 11.4594 50.7006 11.6427 50.8983 11.7695C51.0959 11.8964 51.3271 11.9609 51.5619 11.9548Z" fill="#001665"/>
<path fill-rule="evenodd" clip-rule="evenodd" d="M12.2336 11.9524C12.4664 11.9537 12.6943 11.8857 12.8882 11.757C13.0822 11.6284 13.2335 11.4449 13.3227 11.2299C13.412 11.0149 13.4352 10.7782 13.3894 10.55C13.3436 10.3218 13.2309 10.1124 13.0656 9.94846L11.0617 7.94455C10.8426 7.72077 10.5436 7.59321 10.2304 7.58991C9.91725 7.58661 9.61559 7.70786 9.39182 7.92697C9.16804 8.14609 9.04047 8.44512 9.03717 8.75829C9.03388 9.07146 9.15512 9.37312 9.37424 9.59689L11.4016 11.6125C11.5111 11.7211 11.6409 11.8071 11.7837 11.8654C11.9265 11.9237 12.0794 11.9533 12.2336 11.9524V11.9524Z" fill="#001665"/>
<path fill-rule="evenodd" clip-rule="evenodd" d="M64.3828 30.7021H61.3359C61.0251 30.7021 60.7271 30.8256 60.5073 31.0454C60.2875 31.2652 60.1641 31.5632 60.1641 31.874C60.1641 32.1848 60.2875 32.4829 60.5073 32.7027C60.7271 32.9224 61.0251 33.0459 61.3359 33.0459H64.3828C64.6936 33.0459 64.9917 32.9224 65.2115 32.7027C65.4312 32.4829 65.5547 32.1848 65.5547 31.874C65.5547 31.5632 65.4312 31.2652 65.2115 31.0454C64.9917 30.8256 64.6936 30.7021 64.3828 30.7021Z" fill="#001665"/>
<path fill-rule="evenodd" clip-rule="evenodd" d="M4.21875 30.7021H1.17188C0.861074 30.7021 0.563003 30.8256 0.343234 31.0454C0.123465 31.2652 0 31.5632 0 31.874C0 32.1848 0.123465 32.4829 0.343234 32.7027C0.563003 32.9224 0.861074 33.0459 1.17188 33.0459H4.21875C4.52955 33.0459 4.82762 32.9224 5.04739 32.7027C5.26716 32.4829 5.39062 32.1848 5.39062 31.874C5.39062 31.5632 5.26716 31.2652 5.04739 31.0454C4.82762 30.8256 4.52955 30.7021 4.21875 30.7021Z" fill="#001665"/>
<path fill-rule="evenodd" clip-rule="evenodd" d="M31.1718 38.4603L31.5351 38.5658V39.7376C31.5241 39.9132 31.5621 40.0883 31.6449 40.2435C31.7277 40.3987 31.8519 40.5279 32.0038 40.6165C32.1595 40.7208 32.3401 40.7817 32.5271 40.793C32.7141 40.8043 32.9007 40.7656 33.0677 40.6809C33.2348 40.5961 33.3763 40.4684 33.4777 40.3109C33.579 40.1534 33.6366 39.9717 33.6445 39.7845V38.554L33.9843 38.4369C34.6597 38.221 35.2581 37.8139 35.707 37.265C36.0591 36.9142 36.3282 36.4889 36.4945 36.0205C36.6608 35.552 36.7201 35.0523 36.6679 34.558C36.5735 33.8717 36.2784 33.2286 35.8197 32.7095C35.361 32.1903 34.7592 31.8182 34.0898 31.64C33.7031 31.5345 33.3046 31.4876 32.9179 31.3939C32.5312 31.3001 31.6171 31.0658 31.3359 30.5501C31.2655 30.4208 31.2292 30.2756 31.2304 30.1283C31.2202 29.9502 31.2508 29.7721 31.3198 29.6076C31.3889 29.4431 31.4946 29.2965 31.6288 29.179C31.8661 29.0416 32.1303 28.9568 32.4033 28.9305C32.6762 28.9042 32.9517 28.937 33.2109 29.0267C33.6374 29.1339 34.0366 29.3296 34.3827 29.6009C34.5654 29.7725 34.7983 29.8811 35.0471 29.9106C35.296 29.9401 35.5478 29.8891 35.7656 29.765C35.9055 29.6675 36.0201 29.5379 36.0996 29.387C36.1791 29.2361 36.2213 29.0684 36.2226 28.8978C36.2135 28.6721 36.1566 28.4509 36.0556 28.2489C35.9546 28.0468 35.8118 27.8686 35.6367 27.7259V27.7259C35.1522 27.3452 34.587 27.0806 33.9843 26.9525L33.6093 26.847V25.4408C33.6162 25.3052 33.5912 25.1698 33.5362 25.0457C33.4813 24.9215 33.3979 24.812 33.2929 24.7259C32.7421 24.304 31.4999 24.4564 31.4999 25.3236V26.7884L31.1367 26.8939C30.3055 27.1296 29.5991 27.6804 29.1679 28.429C28.7227 29.1971 28.557 30.0957 28.6992 30.972C28.736 31.3135 28.8475 31.6427 29.0257 31.9364C29.2039 32.23 29.4445 32.4809 29.7304 32.6712C30.3294 32.9823 30.9743 33.196 31.6406 33.304C32.0813 33.4002 32.5097 33.5456 32.9179 33.7376C33.1241 33.8431 33.3169 33.9729 33.4921 34.1244C33.7053 34.2783 33.8689 34.4912 33.9626 34.7369C34.0563 34.9826 34.0761 35.2504 34.0195 35.5072C33.9115 35.7714 33.731 35.9997 33.4987 36.1656C33.2664 36.3315 32.9919 36.4283 32.707 36.4447C32.3373 36.4687 31.9672 36.4048 31.627 36.2581C31.2868 36.1114 30.9862 35.8862 30.7499 35.6009C30.5313 35.2746 30.2028 35.0376 29.8242 34.933C29.6842 34.9012 29.5393 34.8984 29.3983 34.9246C29.2572 34.9508 29.123 35.0054 29.0038 35.0853C28.8753 35.1732 28.7656 35.2858 28.6811 35.4166C28.5966 35.5474 28.539 35.6937 28.5117 35.847C28.4875 36.0335 28.501 36.2229 28.5513 36.404C28.6016 36.5852 28.6878 36.7544 28.8046 36.9017C29.393 37.6759 30.2282 38.2258 31.1718 38.4603V38.4603Z" fill="#00B6B6"/>
</svg>
