<svg width="48" height="44" viewBox="0 0 48 44" fill="none" xmlns="http://www.w3.org/2000/svg">
<path d="M16.8293 43.216C7.55514 43.216 0.00976562 35.593 0.00976562 26.2229C0.00976562 16.8524 7.55514 9.229 16.8293 9.229V10.729C8.38202 10.729 1.50977 17.6796 1.50977 26.2229C1.50977 34.7658 8.38202 41.716 16.8293 41.716C23.574 41.716 29.4529 37.3443 31.458 30.8369L32.8913 31.2786C30.6915 38.4186 24.2366 43.216 16.8293 43.216Z" fill="#001665"/>
<path d="M20.1021 11.0682C19.0352 10.8342 17.9354 10.7153 16.834 10.7153V9.21533C18.0437 9.21533 19.2512 9.34621 20.4239 9.60308L20.1021 11.0682Z" fill="#001665"/>
<path d="M16.8334 43.2291C11.1957 43.2291 6.7793 35.7584 6.7793 26.2214C6.7793 16.6847 11.1957 9.21436 16.8334 9.21436V10.7144C12.1167 10.7144 8.2793 17.671 8.2793 26.2214C8.2793 34.7725 12.1167 41.7291 16.8334 41.7291C20.9884 41.7291 24.618 36.1094 25.2765 28.6566L26.7705 28.7886C26.0314 37.156 21.852 43.2291 16.8334 43.2291Z" fill="#001665"/>
<path d="M17.582 9.96484H16.082V42.4785H17.582V9.96484Z" fill="#001665"/>
<path d="M31.8683 32.7017H1.27387L1.092 32.2131C0.3675 30.2657 0 28.2501 0 26.2217C0 24.1904 0.36825 22.174 1.09425 20.2281L1.2765 19.7402H20.9085V21.2402H2.3265C1.77787 22.8655 1.5 24.5391 1.5 26.2217C1.5 27.9021 1.77712 29.5746 2.325 31.2017H31.8683V32.7017Z" fill="#001665"/>
<path d="M35.8457 30.1445H30.5946L30.2852 26.3979C29.3421 26.1196 28.4443 25.7199 27.6055 25.2046L24.8665 27.5469L21.1611 23.7991L23.56 20.9311C23.086 20.0585 22.7301 19.1304 22.4976 18.1602L18.9238 17.8591V12.5686L22.63 12.2559C22.9067 11.2977 23.3038 10.3872 23.8161 9.53711L21.5016 6.77148L25.2092 3.02448L28.0491 5.45411C28.9101 4.97748 29.8243 4.61973 30.7795 4.38498L31.0772 0.771484H36.3291L36.6381 4.51923C37.5812 4.79711 38.4786 5.19686 39.3178 5.71248L42.0561 3.37023L45.7633 7.11798L43.363 9.98523C43.8366 10.8586 44.1928 11.7875 44.4257 12.7572L47.9991 13.0572V18.3481L44.2933 18.6601C44.0173 19.6175 43.6198 20.528 43.1068 21.3796L45.4217 24.1445L41.7145 27.8919L38.8735 25.4626C38.0132 25.9385 37.099 26.2962 36.1438 26.531L35.8457 30.1445ZM31.9757 28.6445H34.4642L34.741 25.289L35.2997 25.1814C36.46 24.9579 37.5572 24.53 38.5603 23.9086L39.0261 23.6202L41.6282 25.8459L43.3945 24.0605L41.242 21.4899L41.5562 21.0219C42.2203 20.0349 42.697 18.9455 42.973 17.7841L43.0986 17.2557L46.4991 16.9692V14.4365L43.1781 14.1571L43.0723 13.5965C42.8507 12.4209 42.4262 11.309 41.8112 10.2924L41.5337 9.83336L43.7376 7.20123L41.9721 5.41623L39.4303 7.59048L38.9556 7.26461C37.9798 6.59411 36.904 6.11336 35.758 5.83511L35.2318 5.70723L34.9487 2.27073H32.4591L32.1827 5.62736L31.6236 5.73498C30.4637 5.95736 29.3668 6.38561 28.3633 7.00773L27.8972 7.29648L25.2951 5.07048L23.5292 6.85511L25.6813 9.42648L25.3671 9.89448C24.7045 10.8796 24.2282 11.9686 23.9507 13.1319L23.8251 13.6595L20.425 13.9467V16.4799L23.7475 16.7596L23.8528 17.3206C24.0733 18.4959 24.4975 19.6066 25.1132 20.6217L25.3915 21.0804L23.188 23.7144L24.9531 25.4994L27.4948 23.3259L27.9696 23.6517C28.9442 24.3215 30.0201 24.8022 31.1668 25.0812L31.6926 25.2091L31.9757 28.6445Z" fill="#001665"/>
<path d="M33.4631 21.9837C29.8991 21.9837 27 19.0561 27 15.4584C27 11.8599 29.8991 8.93262 33.4631 8.93262C37.0268 8.93262 39.9259 11.8602 39.9259 15.4584C39.9263 19.0561 37.0268 21.9837 33.4631 21.9837ZM33.4631 10.4322C30.7264 10.4322 28.5 12.6867 28.5 15.458C28.5 18.2292 30.7268 20.4834 33.4631 20.4834C36.1995 20.4834 38.4259 18.2289 38.4259 15.458C38.4263 12.6867 36.1999 10.4322 33.4631 10.4322Z" fill="#001665"/>
</svg>
