<svg  width="48" height="48" viewBox="0 0 48 48" fill="none" xmlns="http://www.w3.org/2000/svg">
<path d="M47.112 42.824L41.364 37.076C41.1765 36.8885 40.9222 36.7832 40.657 36.7832C40.3918 36.7832 40.1375 36.8885 39.95 37.076L39.22 37.806L37.725 36.311C38.7761 35.0566 39.5348 33.584 39.946 32H41C41.2652 32 41.5196 31.8946 41.7071 31.7071C41.8946 31.5196 42 31.2652 42 31V1C42 0.734784 41.8946 0.48043 41.7071 0.292893C41.5196 0.105357 41.2652 0 41 0C32.463 0 23.865 1.858 21 5.925C18.135 1.858 9.537 0 1 0C0.734784 0 0.48043 0.105357 0.292893 0.292893C0.105357 0.48043 0 0.734784 0 1L0 31C0 31.2652 0.105357 31.5196 0.292893 31.7071C0.48043 31.8946 0.734784 32 1 32C1.682 32 2.34867 32.0077 3 32.023V39C3.00025 39.1659 3.04178 39.3292 3.12085 39.475C3.19991 39.6209 3.31403 39.7448 3.45291 39.8356C3.59179 39.9263 3.75108 39.9811 3.91641 39.995C4.08175 40.0089 4.24794 39.9814 4.4 39.915C7.7 38.464 17 35.415 20.29 38.707C20.4298 38.8469 20.6081 38.9422 20.8021 38.9809C20.9961 39.0195 21.1972 38.9997 21.38 38.924C21.402 38.915 21.419 38.898 21.441 38.887V38.895L22.708 38.261C24.7146 39.6894 27.1384 40.4116 29.5995 40.3146C32.0606 40.2176 34.42 39.3068 36.308 37.725L37.803 39.22L37.073 39.95C36.8855 40.1375 36.7802 40.3918 36.7802 40.657C36.7802 40.9222 36.8855 41.1765 37.073 41.364L42.82 47.111C43.1015 47.3926 43.4357 47.616 43.8035 47.7685C44.1714 47.921 44.5656 47.9995 44.9638 47.9996C45.362 47.9997 45.7563 47.9213 46.1242 47.769C46.4921 47.6168 46.8264 47.3935 47.108 47.112C47.3896 46.8305 47.613 46.4963 47.7655 46.1285C47.918 45.7606 47.9965 45.3664 47.9966 44.9682C47.9967 44.57 47.9183 44.1757 47.766 43.8078C47.6138 43.4399 47.3905 43.1056 47.109 42.824H47.112ZM22 9C22 5.133 29.669 2.188 40 2.009V26.536C39.5554 24.6908 38.6471 22.9896 37.361 21.5937C36.0749 20.1979 34.4537 19.1535 32.651 18.5596C30.8483 17.9657 28.9238 17.8419 27.0598 18.2001C25.1959 18.5582 23.4543 19.3863 22 20.606V9ZM2 30.006V2.006C12.331 2.188 20 5.133 20 9V22.8C18.967 24.2787 18.3099 25.9869 18.0857 27.7768C17.8614 29.5666 18.0767 31.3841 18.713 33.072C14.566 30.649 7.335 30.066 2 30.006ZM5 37.519V32.1C11.906 32.448 16.792 33.724 18.875 35.68C14.355 34.336 7.844 36.441 5 37.519ZM35.639 35.639C34.1404 37.1377 32.1685 38.0704 30.0592 38.2782C27.95 38.4861 25.834 37.9561 24.0717 36.7787C22.3094 35.6012 21.0099 33.8491 20.3946 31.821C19.7793 29.7928 19.8862 27.6141 20.6972 25.6559C21.5082 23.6978 22.9731 22.0814 24.8422 21.0823C26.7114 20.0831 28.8691 19.7629 30.9479 20.1763C33.0266 20.5897 34.8977 21.7111 36.2423 23.3494C37.5869 24.9877 38.3219 27.0416 38.322 29.161C38.3254 30.3646 38.09 31.5568 37.6295 32.6688C37.1689 33.7807 36.4924 34.7903 35.639 35.639ZM42.813 44.272L39.2 40.657L40.66 39.197L44.275 42.813L42.813 44.272ZM45.7 45.7C45.5038 45.8882 45.2424 45.9932 44.9705 45.9932C44.6986 45.9932 44.4372 45.8882 44.241 45.7L44.23 45.689L45.689 44.23L45.701 44.241C45.7969 44.3368 45.8729 44.4505 45.9248 44.5756C45.9767 44.7008 46.0034 44.835 46.0034 44.9705C46.0034 45.106 45.9767 45.2402 45.9248 45.3654C45.8729 45.4905 45.7959 45.6042 45.7 45.7Z" fill="#001665"/>
<path d="M24.1426 24.143L25.5566 25.557C26.5128 24.6019 27.8091 24.0655 29.1606 24.0655C30.5121 24.0655 31.8083 24.6019 32.7646 25.557L34.1786 24.143C32.8473 22.813 31.0424 22.0659 29.1606 22.0659C27.2787 22.0659 25.4739 22.813 24.1426 24.143Z" fill="#001665"/>
<path d="M6 4H4V10H6V4Z" fill="#001665"/>
<path d="M6 12H4V14H6V12Z" fill="#001665"/>
</svg>
