<svg width="103" height="120" viewBox="0 0 103 120" fill="none" xmlns="http://www.w3.org/2000/svg">
<g filter="url(#filter0_ddddd_2685_8087)">
<circle cx="46.6934" cy="42.9551" r="40" fill="white"/>
<circle cx="46.6934" cy="42.9551" r="39.5" stroke="#BEC8EA"/>
</g>
<g clip-path="url(#clip0_2685_8087)">
<mask id="mask0_2685_8087" style="mask-type:luminance" maskUnits="userSpaceOnUse" x="23" y="20" width="48" height="46">
<path d="M70.36 20.9551H23.6934V65.9484H70.36V20.9551Z" fill="white"/>
</mask>
<g mask="url(#mask0_2685_8087)">
<path d="M48.9065 30.8623L45.1465 39.3223" stroke="#001665" stroke-width="2" stroke-linecap="round" stroke-linejoin="round"/>
<path d="M51.4316 31.1426L57.7417 35.0926L51.4316 39.0392" stroke="#001665" stroke-width="2" stroke-linecap="round" stroke-linejoin="round"/>
<path d="M42.6205 31.1426L36.3105 35.0926L42.6205 39.0392" stroke="#001665" stroke-width="2" stroke-linecap="round" stroke-linejoin="round"/>
<path d="M65.8127 21.6221H28.2394C26.0965 21.6221 24.3594 23.3592 24.3594 25.5021V50.2421C24.3594 52.3849 26.0965 54.1221 28.2394 54.1221H65.8127C67.9557 54.1221 69.6927 52.3849 69.6927 50.2421V25.5021C69.6927 23.3592 67.9557 21.6221 65.8127 21.6221Z" stroke="#001665" stroke-width="2" stroke-linecap="round" stroke-linejoin="round"/>
<path d="M25.5137 48.4424H63.547" stroke="#001665" stroke-width="2" stroke-linecap="round" stroke-linejoin="round"/>
<path d="M36.6523 65.2822H57.399" stroke="#001665" stroke-width="2" stroke-linecap="round" stroke-linejoin="round"/>
<path d="M43.6161 55.0986L43.4261 56.862L39.4395 65.282" stroke="#001665" stroke-width="2" stroke-linecap="round" stroke-linejoin="round"/>
<path d="M50.4355 55.0986L50.6289 56.862L54.6122 65.282" stroke="#001665" stroke-width="2" stroke-linecap="round" stroke-linejoin="round"/>
<path d="M65.8127 21.6221H28.2394C26.0965 21.6221 24.3594 23.3592 24.3594 25.5021V50.2421C24.3594 52.3849 26.0965 54.1221 28.2394 54.1221H65.8127C67.9557 54.1221 69.6927 52.3849 69.6927 50.2421V25.5021C69.6927 23.3592 67.9557 21.6221 65.8127 21.6221Z" stroke="#001665" stroke-width="2" stroke-linecap="round" stroke-linejoin="round"/>
<path d="M25.5137 48.4424H63.547" stroke="#001665" stroke-width="2" stroke-linecap="round" stroke-linejoin="round"/>
<path d="M36.6523 65.2822H57.399" stroke="#001665" stroke-width="2" stroke-linecap="round" stroke-linejoin="round"/>
<path d="M43.6161 55.0986L43.4261 56.862L39.4395 65.282" stroke="#001665" stroke-width="2" stroke-linecap="round" stroke-linejoin="round"/>
<path d="M50.4355 55.0986L50.6289 56.862L54.6122 65.282" stroke="#001665" stroke-width="2" stroke-linecap="round" stroke-linejoin="round"/>
</g>
</g>
<defs>
<filter id="filter0_ddddd_2685_8087" x="0.693359" y="0.955078" width="102" height="119" filterUnits="userSpaceOnUse" color-interpolation-filters="sRGB">
<feFlood flood-opacity="0" result="BackgroundImageFix"/>
<feColorMatrix in="SourceAlpha" type="matrix" values="0 0 0 0 0 0 0 0 0 0 0 0 0 0 0 0 0 0 127 0" result="hardAlpha"/>
<feOffset/>
<feColorMatrix type="matrix" values="0 0 0 0 0.470588 0 0 0 0 0.470588 0 0 0 0 0.470588 0 0 0 0.1 0"/>
<feBlend mode="normal" in2="BackgroundImageFix" result="effect1_dropShadow_2685_8087"/>
<feColorMatrix in="SourceAlpha" type="matrix" values="0 0 0 0 0 0 0 0 0 0 0 0 0 0 0 0 0 0 127 0" result="hardAlpha"/>
<feOffset dy="2"/>
<feGaussianBlur stdDeviation="2"/>
<feColorMatrix type="matrix" values="0 0 0 0 0.470588 0 0 0 0 0.470588 0 0 0 0 0.470588 0 0 0 0.1 0"/>
<feBlend mode="normal" in2="effect1_dropShadow_2685_8087" result="effect2_dropShadow_2685_8087"/>
<feColorMatrix in="SourceAlpha" type="matrix" values="0 0 0 0 0 0 0 0 0 0 0 0 0 0 0 0 0 0 127 0" result="hardAlpha"/>
<feOffset dx="1" dy="7"/>
<feGaussianBlur stdDeviation="3.5"/>
<feColorMatrix type="matrix" values="0 0 0 0 0.470588 0 0 0 0 0.470588 0 0 0 0 0.470588 0 0 0 0.09 0"/>
<feBlend mode="normal" in2="effect2_dropShadow_2685_8087" result="effect3_dropShadow_2685_8087"/>
<feColorMatrix in="SourceAlpha" type="matrix" values="0 0 0 0 0 0 0 0 0 0 0 0 0 0 0 0 0 0 127 0" result="hardAlpha"/>
<feOffset dx="3" dy="15"/>
<feGaussianBlur stdDeviation="4.5"/>
<feColorMatrix type="matrix" values="0 0 0 0 0.470588 0 0 0 0 0.470588 0 0 0 0 0.470588 0 0 0 0.05 0"/>
<feBlend mode="normal" in2="effect3_dropShadow_2685_8087" result="effect4_dropShadow_2685_8087"/>
<feColorMatrix in="SourceAlpha" type="matrix" values="0 0 0 0 0 0 0 0 0 0 0 0 0 0 0 0 0 0 127 0" result="hardAlpha"/>
<feOffset dx="5" dy="26"/>
<feGaussianBlur stdDeviation="5.5"/>
<feColorMatrix type="matrix" values="0 0 0 0 0.470588 0 0 0 0 0.470588 0 0 0 0 0.470588 0 0 0 0.01 0"/>
<feBlend mode="normal" in2="effect4_dropShadow_2685_8087" result="effect5_dropShadow_2685_8087"/>
<feBlend mode="normal" in="SourceGraphic" in2="effect5_dropShadow_2685_8087" result="shape"/>
</filter>
<clipPath id="clip0_2685_8087">
<rect width="46.6667" height="45" fill="white" transform="translate(23.6934 20.9551)"/>
</clipPath>
</defs>
</svg>
