<svg width="82" height="74" viewBox="0 0 82 74" fill="none" xmlns="http://www.w3.org/2000/svg">
<g opacity="0.6">
<circle cx="2.07422" cy="2" r="2" fill="#00B6B6"/>
<circle cx="13.0742" cy="2" r="2" fill="#00B6B6"/>
<circle cx="24.0742" cy="2" r="2" fill="#00B6B6"/>
<circle cx="35.0742" cy="2" r="2" fill="#00B6B6"/>
<circle cx="2.07422" cy="12" r="2" fill="#00B6B6"/>
<circle cx="13.0742" cy="12" r="2" fill="#00B6B6"/>
<circle cx="24.0742" cy="12" r="2" fill="#00B6B6"/>
<circle cx="35.0742" cy="12" r="2" fill="#00B6B6"/>
<circle cx="2.07422" cy="22" r="2" fill="#00B6B6"/>
<circle cx="13.0742" cy="22" r="2" fill="#00B6B6"/>
<circle cx="24.0742" cy="22" r="2" fill="#00B6B6"/>
<circle cx="35.0742" cy="22" r="2" fill="#00B6B6"/>
<circle cx="2.07422" cy="32" r="2" fill="#00B6B6"/>
<circle cx="13.0742" cy="32" r="2" fill="#00B6B6"/>
<circle cx="24.0742" cy="32" r="2" fill="#00B6B6"/>
<circle cx="35.0742" cy="32" r="2" fill="#00B6B6"/>
<circle cx="2.07422" cy="42" r="2" fill="#00B6B6"/>
<circle cx="13.0742" cy="42" r="2" fill="#00B6B6"/>
<circle cx="24.0742" cy="42" r="2" fill="#00B6B6"/>
<circle cx="35.0742" cy="42" r="2" fill="#00B6B6"/>
<circle cx="2.07422" cy="52" r="2" fill="#00B6B6"/>
<circle cx="13.0742" cy="52" r="2" fill="#00B6B6"/>
<circle cx="24.0742" cy="52" r="2" fill="#00B6B6"/>
<circle cx="35.0742" cy="52" r="2" fill="#00B6B6"/>
<circle cx="2.07422" cy="62" r="2" fill="#00B6B6"/>
<circle cx="13.0742" cy="62" r="2" fill="#00B6B6"/>
<circle cx="24.0742" cy="62" r="2" fill="#00B6B6"/>
<circle cx="35.0742" cy="62" r="2" fill="#00B6B6"/>
<circle cx="2.07422" cy="72" r="2" fill="#00B6B6"/>
<circle cx="13.0742" cy="72" r="2" fill="#00B6B6"/>
<circle cx="24.0742" cy="72" r="2" fill="#00B6B6"/>
<circle cx="35.0742" cy="72" r="2" fill="#00B6B6"/>
</g>
<g opacity="0.6">
<circle cx="46.0742" cy="2" r="2" fill="#00B6B6"/>
<circle cx="57.0742" cy="2" r="2" fill="#00B6B6"/>
<circle cx="68.0742" cy="2" r="2" fill="#00B6B6"/>
<circle cx="79.0742" cy="2" r="2" fill="#00B6B6"/>
<circle cx="46.0742" cy="12" r="2" fill="#00B6B6"/>
<circle cx="57.0742" cy="12" r="2" fill="#00B6B6"/>
<circle cx="68.0742" cy="12" r="2" fill="#00B6B6"/>
<circle cx="79.0742" cy="12" r="2" fill="#00B6B6"/>
<circle cx="46.0742" cy="22" r="2" fill="#00B6B6"/>
<circle cx="57.0742" cy="22" r="2" fill="#00B6B6"/>
<circle cx="68.0742" cy="22" r="2" fill="#00B6B6"/>
<circle cx="79.0742" cy="22" r="2" fill="#00B6B6"/>
<circle cx="46.0742" cy="32" r="2" fill="#00B6B6"/>
<circle cx="57.0742" cy="32" r="2" fill="#00B6B6"/>
<circle cx="68.0742" cy="32" r="2" fill="#00B6B6"/>
<circle cx="79.0742" cy="32" r="2" fill="#00B6B6"/>
<circle cx="46.0742" cy="42" r="2" fill="#00B6B6"/>
<circle cx="57.0742" cy="42" r="2" fill="#00B6B6"/>
<circle cx="68.0742" cy="42" r="2" fill="#00B6B6"/>
<circle cx="79.0742" cy="42" r="2" fill="#00B6B6"/>
<circle cx="46.0742" cy="52" r="2" fill="#00B6B6"/>
<circle cx="57.0742" cy="52" r="2" fill="#00B6B6"/>
<circle cx="68.0742" cy="52" r="2" fill="#00B6B6"/>
<circle cx="79.0742" cy="52" r="2" fill="#00B6B6"/>
<circle cx="46.0742" cy="62" r="2" fill="#00B6B6"/>
<circle cx="57.0742" cy="62" r="2" fill="#00B6B6"/>
<circle cx="68.0742" cy="62" r="2" fill="#00B6B6"/>
<circle cx="79.0742" cy="62" r="2" fill="#00B6B6"/>
<circle cx="46.0742" cy="72" r="2" fill="#00B6B6"/>
<circle cx="57.0742" cy="72" r="2" fill="#00B6B6"/>
<circle cx="68.0742" cy="72" r="2" fill="#00B6B6"/>
<circle cx="79.0742" cy="72" r="2" fill="#00B6B6"/>
</g>
</svg>
