<svg width="1222" height="628" viewBox="0 0 1222 628" fill="none" xmlns="http://www.w3.org/2000/svg">
<rect x="1" y="1" width="1220" height="626" rx="19" stroke="#001665" stroke-width="2"/>
<path d="M226.992 132.152V134.624C228.912 134.792 230.976 134.888 233.424 134.888C235.68 134.888 238.44 134.744 240.096 134.6V132.104C238.32 132.296 235.752 132.44 233.424 132.44C230.952 132.44 228.744 132.344 226.992 132.152ZM228.408 142.04L225.936 141.8C225.72 142.736 225.456 143.888 225.456 145.184C225.456 148.328 228.24 150.056 233.4 150.056C236.784 150.056 239.76 149.696 241.632 149.216L241.608 146.576C239.664 147.152 236.592 147.512 233.328 147.512C229.632 147.512 227.952 146.336 227.952 144.632C227.952 143.768 228.144 142.952 228.408 142.04ZM240.744 129.56L239.184 130.208C239.856 131.12 240.624 132.56 241.104 133.544L242.688 132.848C242.208 131.912 241.344 130.424 240.744 129.56ZM243.48 128.552L241.944 129.2C242.616 130.088 243.384 131.48 243.912 132.512L245.472 131.816C245.016 130.952 244.104 129.44 243.48 128.552ZM272.751 137.168C271.815 138.2 270.399 139.472 269.079 140.504C268.551 138.824 268.143 137.024 267.831 135.152H273.975V133.04H267.423V129.152H265.167V133.04H258.327V135.152H264.375C262.647 137.72 260.079 140 257.391 141.44V134.432C258.303 132.872 259.095 131.216 259.743 129.584L257.655 128.912C256.335 132.416 254.127 135.848 251.823 138.032C252.207 138.608 252.807 139.808 253.047 140.312C253.791 139.544 254.535 138.68 255.255 137.72V150.824H257.391V141.632C257.871 142.112 258.495 142.976 258.783 143.384C259.647 142.856 260.511 142.232 261.351 141.56V147.824C260.319 148.04 259.359 148.232 258.543 148.376L259.215 150.536C261.807 149.912 265.383 149.096 268.719 148.256L268.503 146.264C266.823 146.648 265.095 147.032 263.463 147.368V139.616C264.375 138.68 265.239 137.672 266.007 136.592C267.159 142.928 269.223 148.064 273.327 150.656C273.663 150.056 274.383 149.192 274.887 148.76C272.607 147.44 270.951 145.16 269.751 142.304C271.239 141.32 272.967 139.928 274.407 138.752L272.751 137.168ZM300.701 137.528H295.133V135.584H300.701V137.528ZM300.701 141.056H295.133V139.112H300.701V141.056ZM300.701 144.632H295.133V142.664H300.701V144.632ZM293.117 133.88V146.336H302.813V133.88H298.373C298.565 133.232 298.781 132.536 298.997 131.816H303.677V129.896H292.157V131.816H296.645C296.549 132.488 296.405 133.232 296.261 133.88H293.117ZM284.141 137.048H286.205V139.928H284.141V137.048ZM289.997 139.928H287.933V137.048H289.997V139.928ZM292.013 145.16C291.461 144.608 289.277 142.544 288.269 141.656H291.797V135.32H288.053V133.472H291.941V131.504H288.053V128.912H286.061V131.504H282.053V133.472H286.061V135.32H282.485V141.656H285.533C284.525 143.672 282.917 145.88 281.453 147.104C281.765 147.632 282.245 148.52 282.461 149.12C283.733 147.968 285.005 146.096 286.061 144.176V150.896H288.053V143.672C289.013 144.776 290.141 146.096 290.669 146.864L292.013 145.16ZM295.157 146.576C294.173 147.608 292.157 148.832 290.381 149.48C290.861 149.864 291.509 150.536 291.869 150.92C293.645 150.248 295.733 148.952 296.981 147.728L295.157 146.576ZM298.565 147.776C299.933 148.688 301.637 150.08 302.453 150.968L304.205 149.792C303.317 148.904 301.565 147.584 300.245 146.744L298.565 147.776ZM323.396 147.92V142.616H330.596V140.456H323.396V135.68H331.652V133.496H324.02L325.196 132.656C324.212 131.528 322.244 129.92 320.708 128.888L318.884 130.16C320.204 131.096 321.764 132.44 322.748 133.496H312.668V135.68H320.948V140.456H313.82V142.616H320.948V147.92H311.588V150.104H332.852V147.92H323.396ZM351.947 131.984C352.115 132.464 352.331 133.088 352.571 133.832C349.979 134.024 346.763 133.952 343.187 133.52L343.235 135.944C347.171 136.256 350.531 136.256 353.411 136.016C354.179 137.864 355.187 139.712 356.027 141.008C355.211 140.912 353.507 140.768 352.234 140.672L352.067 142.664C353.915 142.808 356.867 143.096 358.115 143.384L359.315 141.656C358.907 141.224 358.523 140.768 358.163 140.24C357.395 139.16 356.435 137.48 355.691 135.776C357.275 135.536 359.003 135.224 360.371 134.84L360.083 132.44C358.499 132.968 356.651 133.352 354.899 133.592C354.467 132.296 354.059 130.856 353.867 129.632L351.275 129.944C351.539 130.664 351.779 131.456 351.947 131.984ZM347.387 141.392L345.011 140.864C344.267 142.376 343.811 143.672 343.811 145.064C343.811 148.4 346.787 150.152 351.491 150.176C354.275 150.2 356.363 149.912 357.803 149.648L357.923 147.248C356.243 147.584 354.155 147.848 351.635 147.824C348.179 147.8 346.235 146.864 346.235 144.704C346.235 143.6 346.643 142.544 347.387 141.392ZM375.385 146.384C375.385 145.424 376.489 144.632 378.529 144.632C379.273 144.632 380.017 144.704 380.713 144.848C380.737 145.376 380.737 145.856 380.737 146.192C380.737 147.728 379.705 148.136 378.361 148.136C376.297 148.136 375.385 147.416 375.385 146.384ZM382.945 129.8H380.377C380.473 130.184 380.497 130.904 380.497 131.312C380.497 131.72 380.497 132.224 380.497 132.776C380.161 132.776 379.801 132.776 379.465 132.776C377.929 132.776 375.049 132.536 373.441 132.248L373.465 134.432C375.025 134.624 377.905 134.864 379.489 134.864C379.825 134.864 380.161 134.864 380.473 134.864C380.473 135.824 380.473 136.832 380.473 137.816C380.065 137.816 379.657 137.816 379.249 137.816C377.785 137.816 374.953 137.648 373.321 137.384L373.345 139.64C375.001 139.832 377.665 139.952 379.201 139.952C379.657 139.952 380.089 139.952 380.521 139.952C380.545 140.84 380.593 141.824 380.617 142.76C380.041 142.712 379.465 142.664 378.841 142.664C375.265 142.664 373.129 144.224 373.129 146.528C373.129 148.928 375.073 150.272 378.673 150.272C381.817 150.272 383.137 148.616 383.137 146.792C383.137 146.456 383.113 146.048 383.089 145.544C385.273 146.432 387.097 147.8 388.465 149.048L389.857 146.912C388.465 145.784 386.089 144.104 382.969 143.24C382.921 142.16 382.849 141.008 382.801 139.904C385.105 139.808 387.097 139.64 389.305 139.376L389.329 137.144C387.241 137.432 385.129 137.648 382.753 137.744C382.753 136.976 382.753 135.848 382.753 134.768C385.081 134.672 387.313 134.456 389.089 134.24V132.032C386.953 132.392 384.841 132.608 382.777 132.704C382.801 132.176 382.801 131.72 382.825 131.432C382.849 130.76 382.897 130.232 382.945 129.8Z" fill="#3E3E3E"/>
<path d="M372.72 223.68H367.6V225.48H372.72V223.68ZM373.26 226.36H366.66V228.24H373.26V226.36ZM372.78 229.14H367.48V230.96H372.78V229.14ZM367.48 233.66H372.78V231.88H367.48V233.66ZM376.78 230.4V232.14H381.98V230.4H380.26V229.04H381.84V227.32H380.26V226.02H378.4V227.32H376.86V229.04H378.4V230.4H376.78ZM380.1 234.88V236.76H378.58V234.88H380.1ZM381.82 238.46V233.16H376.9V239.14H378.58V238.46H381.82ZM370.84 238.8H369.26V236.5H370.84V238.8ZM384.78 223.78H374.04V231.22C374.04 233.98 373.94 237.6 372.74 240.2V234.64H367.42V241.46H369.26V240.66H372.74C373.26 240.92 374.06 241.48 374.4 241.84C375.96 238.96 376.2 234.4 376.2 231.22V225.8H382.58V239.04C382.58 239.34 382.5 239.42 382.22 239.42C381.92 239.42 381 239.44 380.18 239.4C380.48 240.02 380.78 241.08 380.84 241.72C382.26 241.72 383.24 241.68 383.92 241.28C384.6 240.9 384.78 240.22 384.78 239.06V223.78ZM401.651 238.52H406.811V236.78H401.651V235.84H408.411V233.96H392.651V235.84H399.331V239.5H396.671V236.5H394.391V239.5H391.471V241.44H409.651V239.5H401.651V238.52ZM400.571 231.54C400.171 231.3 398.911 230.66 398.051 230.22H400.551V228.2C400.971 228.62 401.451 229.16 401.671 229.48C401.991 229.2 402.271 228.88 402.571 228.54C402.891 229.12 403.271 229.72 403.731 230.28C402.791 231.02 401.631 231.58 400.231 231.98L400.571 231.54ZM393.911 227.74H395.211V228.82H393.911V227.74ZM398.591 227.74V228.82H397.291V227.74H398.591ZM405.971 226.96C405.751 227.68 405.431 228.34 405.031 228.9C404.491 228.28 404.071 227.62 403.751 226.96H405.971ZM409.551 226.96V225.08H404.571C404.771 224.58 404.951 224.08 405.111 223.56L402.991 223.08C402.531 224.76 401.671 226.34 400.551 227.44V226.34H397.291V225.66H400.831V224.08H397.291V223.06H395.211V224.08H391.631V225.66H395.211V226.34H392.071V230.22H394.371C393.491 231 392.271 231.74 391.231 232.16C391.631 232.52 392.251 233.18 392.551 233.64C393.411 233.18 394.391 232.44 395.211 231.64V233.54H397.291V231.48C398.071 232 398.951 232.62 399.431 233L400.191 232.02C400.611 232.42 401.271 233.24 401.511 233.7C402.931 233.2 404.151 232.56 405.151 231.74C406.091 232.56 407.251 233.24 408.591 233.7C408.871 233.14 409.451 232.28 409.911 231.86C408.591 231.52 407.491 230.98 406.571 230.3C407.291 229.38 407.831 228.28 408.231 226.96H409.551ZM424.163 224.34L421.183 224.04C421.223 225.3 421.043 226.76 420.763 228.26C419.743 228.36 418.803 228.42 418.183 228.44C417.443 228.46 416.783 228.5 416.043 228.44L416.283 231.16C416.903 231.06 417.943 230.92 418.523 230.82C418.883 230.78 419.523 230.7 420.243 230.62C419.503 233.36 418.123 237.4 416.183 240.02L418.783 241.06C420.623 238.12 422.103 233.38 422.863 230.34C423.443 230.3 423.943 230.26 424.263 230.26C425.503 230.26 426.203 230.48 426.203 232.08C426.203 234.06 425.923 236.48 425.383 237.62C425.062 238.28 424.563 238.48 423.883 238.48C423.363 238.48 422.203 238.28 421.443 238.06L421.863 240.7C422.543 240.84 423.503 240.98 424.263 240.98C425.783 240.98 426.883 240.54 427.543 239.14C428.403 237.4 428.683 234.16 428.683 231.8C428.683 228.92 427.183 227.98 425.062 227.98C424.643 227.98 424.063 228.02 423.383 228.06C423.523 227.34 423.683 226.6 423.803 226C423.903 225.5 424.043 224.86 424.163 224.34ZM433.063 222.68L431.463 223.32C432.023 224.08 432.663 225.26 433.083 226.08L434.663 225.4C434.323 224.7 433.583 223.44 433.063 222.68ZM430.683 223.58L429.103 224.24C429.563 224.88 430.063 225.84 430.463 226.6L428.663 227.38C430.083 229.14 431.503 232.66 432.023 234.88L434.563 233.72C434.003 231.94 432.503 228.6 431.303 226.74L432.283 226.32C431.903 225.58 431.183 224.32 430.683 223.58ZM458.474 230.88V228.42H450.614C450.814 226.56 450.834 224.72 450.854 223.08H448.254C448.234 224.72 448.254 226.54 448.054 228.42H440.774V230.88H447.654C446.874 234.32 444.974 237.64 440.394 239.68C441.094 240.18 441.794 241.04 442.174 241.7C446.414 239.66 448.574 236.54 449.654 233.2C451.214 237.06 453.534 239.98 457.154 241.68C457.534 241 458.314 239.94 458.914 239.44C455.174 237.92 452.754 234.78 451.434 230.88H458.474ZM476.945 235.48C476.205 236.26 475.285 236.9 474.225 237.44C473.185 236.9 472.345 236.26 471.665 235.48H476.945ZM478.945 233.52L478.525 233.6H473.425C473.685 233.28 473.925 232.96 474.165 232.64L472.065 232.22C473.505 230.56 473.725 228.58 473.725 226.98H475.545V230.52C475.545 230.72 475.485 230.78 475.245 230.78C475.025 230.78 474.245 230.78 473.545 230.76C473.825 231.34 474.125 232.22 474.205 232.84C475.405 232.84 476.325 232.82 477.025 232.5C477.705 232.16 477.865 231.58 477.865 230.58V226.98H483.005V224.8H475.345V223.08H472.905V224.8H465.305V226.98H471.505C471.485 228.52 471.165 230.52 468.725 231.96C469.245 232.32 470.065 233.06 470.425 233.56C469.265 234.64 467.585 235.64 465.325 236.4C465.825 236.76 466.525 237.6 466.825 238.16C467.985 237.7 469.005 237.18 469.905 236.62C470.465 237.28 471.085 237.88 471.765 238.4C469.705 239.06 467.305 239.44 464.745 239.64C465.165 240.16 465.685 241.18 465.865 241.78C468.825 241.44 471.665 240.84 474.105 239.82C476.285 240.86 478.965 241.46 482.205 241.72C482.505 241.06 483.085 240.04 483.585 239.48C480.965 239.36 478.665 239.02 476.745 238.44C478.305 237.44 479.585 236.16 480.485 234.56L478.945 233.52ZM467.865 227.64C467.345 228.84 466.165 230.2 464.925 231C465.365 231.3 466.125 231.94 466.565 232.38C467.945 231.4 469.265 229.8 470.085 228.24L467.865 227.64ZM478.425 228.62C479.545 229.8 480.905 231.44 481.465 232.52L483.445 231.3C482.805 230.24 481.405 228.68 480.265 227.56L478.425 228.62ZM487.365 240.28C488.425 240.28 489.205 239.44 489.205 238.36C489.205 237.26 488.425 236.44 487.365 236.44C486.325 236.44 485.545 237.26 485.545 238.36C485.545 239.44 486.325 240.28 487.365 240.28ZM493.869 240.28C494.929 240.28 495.709 239.44 495.709 238.36C495.709 237.26 494.929 236.44 493.869 236.44C492.829 236.44 492.049 237.26 492.049 238.36C492.049 239.44 492.829 240.28 493.869 240.28ZM500.373 240.28C501.433 240.28 502.213 239.44 502.213 238.36C502.213 237.26 501.433 236.44 500.373 236.44C499.333 236.44 498.553 237.26 498.553 238.36C498.553 239.44 499.333 240.28 500.373 240.28Z" fill="#3E3E3E"/>
<path d="M106.475 544.56V546.225C106.865 546.195 107.63 546.165 108.215 546.165H115.22V552.855H108.035C107.39 552.855 106.73 552.81 106.295 552.78V554.475C106.73 554.445 107.48 554.415 108.095 554.415H115.205C115.205 554.73 115.19 555.015 115.19 555.225H116.9C116.87 554.895 116.84 554.16 116.84 553.635V545.88C116.84 545.49 116.855 544.95 116.87 544.62C116.6 544.635 116.075 544.65 115.67 544.65H108.215C107.72 544.65 107 544.605 106.475 544.56ZM122.495 543.825L121.4 544.995C122.51 545.745 124.37 547.38 125.15 548.175L126.335 546.96C125.495 546.09 123.545 544.53 122.495 543.825ZM120.95 553.86L121.955 555.405C124.28 554.985 126.185 554.1 127.7 553.17C130.04 551.73 131.885 549.69 132.965 547.74L132.05 546.105C131.135 548.025 129.26 550.275 126.845 551.76C125.405 552.645 123.455 553.485 120.95 553.86ZM144.98 548.22V547.71H146.405C147.125 547.71 147.65 547.725 147.89 547.755V546.165C147.605 546.21 147.125 546.255 146.39 546.255H144.98V544.515C144.98 543.915 145.04 543.435 145.07 543.21H143.375C143.405 543.42 143.45 543.915 143.45 544.515V546.255H139.49V544.53C139.49 543.975 139.55 543.525 139.58 543.33H137.885C137.945 543.72 137.975 544.155 137.975 544.53V546.255H136.505C135.815 546.255 135.14 546.18 134.945 546.135V547.77C135.185 547.74 135.8 547.71 136.505 547.71H137.975V549.96C137.975 550.59 137.915 551.205 137.9 551.415H139.565C139.535 551.205 139.49 550.575 139.49 549.96V547.71H143.45V548.31C143.45 552.285 142.13 553.575 139.325 554.61L140.6 555.81C144.11 554.235 144.98 552.09 144.98 548.22ZM156.725 554.67L157.715 555.495C157.835 555.405 158.015 555.27 158.285 555.12C160.01 554.25 162.125 552.675 163.4 550.98L162.485 549.69C161.405 551.28 159.71 552.555 158.405 553.14V544.845C158.405 544.23 158.465 543.735 158.48 543.645H156.74C156.74 543.735 156.83 544.23 156.83 544.845V553.725C156.83 554.07 156.785 554.415 156.725 554.67ZM149.81 554.535L151.25 555.495C152.525 554.415 153.47 552.945 153.92 551.295C154.325 549.795 154.385 546.6 154.385 544.89C154.385 544.365 154.445 543.81 154.46 543.69H152.72C152.81 544.035 152.84 544.395 152.84 544.905C152.84 546.63 152.84 549.555 152.405 550.89C151.97 552.27 151.115 553.635 149.81 554.535ZM168.26 546.96C169.595 545.955 170.735 544.83 171.455 543.78C172.25 544.875 173.48 546 174.83 546.96H168.26ZM167.975 548.25H174.995V547.08C175.865 547.695 176.78 548.22 177.65 548.64C177.89 548.22 178.205 547.725 178.535 547.38C176.195 546.465 173.705 544.635 172.115 542.43H170.675C169.55 544.26 167.105 546.42 164.54 547.59C164.84 547.89 165.215 548.415 165.365 548.73C166.265 548.295 167.15 547.755 167.975 547.17V548.25ZM165.395 551.115H169.115C168.755 552.12 168.215 553.32 167.72 554.25L165.5 554.325L165.68 555.69C168.23 555.585 172.04 555.42 175.61 555.24C175.88 555.6 176.105 555.93 176.27 556.215L177.545 555.42C176.855 554.31 175.43 552.72 174.065 551.565L172.865 552.21C173.45 552.735 174.05 553.365 174.605 553.995C172.775 554.07 170.915 554.145 169.25 554.205C169.79 553.245 170.345 552.12 170.84 551.115H177.71V549.81H165.395V551.115ZM186.005 550.845C185.66 550.53 184.415 549.45 183.71 548.88C184.46 547.89 185.12 546.795 185.57 545.655L184.79 545.13L184.55 545.175H183.515V542.415H182.135V545.175H179.87V546.45H183.8C182.78 548.325 181.055 550.065 179.345 551.04C179.555 551.31 179.9 551.97 180.035 552.33C180.74 551.88 181.46 551.31 182.135 550.65V556.185H183.515V550.215C184.13 550.83 184.805 551.55 185.15 551.985L186.005 550.845ZM190.175 554.385V548.505H193.205V547.155H190.175V542.535H188.75V547.155H185.72V548.505H188.75V554.385H185.12V555.765H193.52V554.385H190.175Z" fill="#3E3E3E"/>
<path d="M258.955 543.885V545.43C259.36 545.4 259.915 545.37 260.425 545.37H265.48C265.96 545.37 266.5 545.4 266.98 545.43V543.885C266.515 543.945 265.945 543.975 265.48 543.975H260.41C259.915 543.975 259.405 543.945 258.955 543.885ZM257.185 547.68V549.24C257.605 549.21 258.1 549.195 258.55 549.195H262.885C262.825 550.545 262.63 551.73 261.985 552.735C261.4 553.65 260.32 554.52 259.21 554.97L260.59 555.99C261.895 555.315 263.035 554.205 263.575 553.185C264.145 552.105 264.445 550.785 264.505 549.195H268.375C268.765 549.195 269.275 549.21 269.635 549.225V547.68C269.245 547.74 268.69 547.755 268.375 547.755H258.55C258.085 547.755 257.605 547.725 257.185 547.68ZM267.805 542.745L266.845 543.15C267.25 543.72 267.73 544.62 268.03 545.22L269.02 544.8C268.72 544.215 268.18 543.285 267.805 542.745ZM269.5 542.1L268.54 542.505C268.96 543.075 269.455 543.93 269.77 544.575L270.745 544.14C270.475 543.6 269.905 542.67 269.5 542.1ZM283.09 543.465L282.235 543.735C282.535 544.32 282.835 545.175 283.06 545.82L283.93 545.52C283.735 544.935 283.36 544.02 283.09 543.465ZM284.605 542.985L283.75 543.255C284.05 543.84 284.365 544.68 284.59 545.34L285.46 545.055C285.265 544.455 284.89 543.555 284.605 542.985ZM281.725 548.475V547.965H283.135C283.855 547.965 284.395 547.98 284.62 548.01V546.42C284.335 546.465 283.855 546.51 283.12 546.51H281.725V544.77C281.725 544.17 281.785 543.675 281.8 543.465H280.105C280.135 543.675 280.18 544.17 280.18 544.77V546.51H276.235V544.785C276.235 544.23 276.28 543.78 276.31 543.57H274.63C274.675 543.96 274.705 544.41 274.705 544.77V546.51H273.235C272.545 546.51 271.87 546.42 271.675 546.39V548.01C271.915 547.995 272.53 547.965 273.235 547.965H274.705V550.215C274.705 550.83 274.66 551.46 274.63 551.67H276.295C276.28 551.46 276.235 550.815 276.235 550.215V547.965H280.18V548.565C280.18 552.54 278.86 553.83 276.055 554.865L277.33 556.05C280.84 554.49 281.725 552.345 281.725 548.475ZM287.14 549.405L287.875 550.89C289.855 550.29 291.835 549.42 293.41 548.565V553.785C293.41 554.4 293.365 555.225 293.32 555.555H295.18C295.105 555.225 295.075 554.4 295.075 553.785V547.56C296.56 546.585 297.97 545.43 299.11 544.275L297.85 543.075C296.83 544.29 295.24 545.685 293.68 546.645C292.015 547.68 289.765 548.7 287.14 549.405ZM304.495 543.825L303.4 544.995C304.51 545.745 306.37 547.38 307.15 548.175L308.335 546.96C307.495 546.09 305.545 544.53 304.495 543.825ZM302.95 553.86L303.955 555.405C306.28 554.985 308.185 554.1 309.7 553.17C312.04 551.73 313.885 549.69 314.965 547.74L314.05 546.105C313.135 548.025 311.26 550.275 308.845 551.76C307.405 552.645 305.455 553.485 302.95 553.86ZM320.26 546.96C321.595 545.955 322.735 544.83 323.455 543.78C324.25 544.875 325.48 546 326.83 546.96H320.26ZM319.975 548.25H326.995V547.08C327.865 547.695 328.78 548.22 329.65 548.64C329.89 548.22 330.205 547.725 330.535 547.38C328.195 546.465 325.705 544.635 324.115 542.43H322.675C321.55 544.26 319.105 546.42 316.54 547.59C316.84 547.89 317.215 548.415 317.365 548.73C318.265 548.295 319.15 547.755 319.975 547.17V548.25ZM317.395 551.115H321.115C320.755 552.12 320.215 553.32 319.72 554.25L317.5 554.325L317.68 555.69C320.23 555.585 324.04 555.42 327.61 555.24C327.88 555.6 328.105 555.93 328.27 556.215L329.545 555.42C328.855 554.31 327.43 552.72 326.065 551.565L324.865 552.21C325.45 552.735 326.05 553.365 326.605 553.995C324.775 554.07 322.915 554.145 321.25 554.205C321.79 553.245 322.345 552.12 322.84 551.115H329.71V549.81H317.395V551.115ZM338.005 550.845C337.66 550.53 336.415 549.45 335.71 548.88C336.46 547.89 337.12 546.795 337.57 545.655L336.79 545.13L336.55 545.175H335.515V542.415H334.135V545.175H331.87V546.45H335.8C334.78 548.325 333.055 550.065 331.345 551.04C331.555 551.31 331.9 551.97 332.035 552.33C332.74 551.88 333.46 551.31 334.135 550.65V556.185H335.515V550.215C336.13 550.83 336.805 551.55 337.15 551.985L338.005 550.845ZM342.175 554.385V548.505H345.205V547.155H342.175V542.535H340.75V547.155H337.72V548.505H340.75V554.385H337.12V555.765H345.52V554.385H342.175Z" fill="#3E3E3E"/>
<path d="M428.595 544.05V545.055H425.715V544.05H428.595ZM425.715 547.11V546.015H428.595V547.11H425.715ZM429.9 548.13V543.015H424.335V556.185H425.715V548.13H429.9ZM429.54 551.535V550.11H431.325V551.535H429.54ZM434.43 552.69V551.535H432.57V550.11H434.13V549H426.855V550.11H428.34V551.535H426.585V552.69H428.295C428.175 553.515 427.755 554.64 426.645 555.315C426.93 555.51 427.35 555.885 427.545 556.14C428.91 555.225 429.39 553.695 429.51 552.69H431.325V555.915H432.57V552.69H434.43ZM432.39 547.14V546.015H435.36V547.14H432.39ZM435.36 544.05V545.055H432.39V544.05H435.36ZM436.74 543.015H431.055V548.16H435.36V554.46C435.36 554.685 435.285 554.76 435.06 554.775C434.82 554.775 434.055 554.775 433.29 554.76C433.5 555.135 433.695 555.765 433.74 556.14C434.865 556.155 435.615 556.11 436.095 555.885C436.59 555.645 436.74 555.24 436.74 554.475V543.015ZM446.565 550.89H444.285V550.785V548.91H446.565V550.89ZM449.565 548.91V548.37C450.18 548.865 450.855 549.27 451.575 549.6C451.785 549.225 452.22 548.67 452.535 548.4C451.59 548.025 450.72 547.485 449.94 546.825C450.645 546.315 451.47 545.655 452.13 545.025L451.095 544.305C450.615 544.845 449.85 545.55 449.16 546.09C448.875 545.775 448.59 545.445 448.335 545.1C448.98 544.62 449.745 543.96 450.39 543.345L449.34 542.61C448.95 543.09 448.32 543.705 447.735 544.215C447.39 543.645 447.105 543.06 446.865 542.445L445.635 542.805C446.34 544.65 447.375 546.3 448.68 547.59H442.395C443.595 546.48 444.6 545.085 445.185 543.405L444.27 542.97L444.015 543.015H439.92V544.23H443.34C443.01 544.83 442.605 545.415 442.14 545.94C441.705 545.52 441.03 544.995 440.49 544.635L439.62 545.37C440.16 545.79 440.85 546.36 441.27 546.81C440.415 547.56 439.455 548.175 438.48 548.58C438.75 548.82 439.155 549.315 439.32 549.63C440.055 549.3 440.775 548.865 441.45 548.37V548.91H442.905V550.77V550.89H439.56V552.18H442.74C442.425 553.305 441.54 554.385 439.23 555.15C439.515 555.39 439.95 555.93 440.115 556.245C442.95 555.27 443.895 553.77 444.18 552.18H446.565V554.235C446.565 555.66 446.91 556.065 448.32 556.065H450.15C451.32 556.065 451.71 555.51 451.83 553.575C451.455 553.5 450.9 553.26 450.585 553.035C450.525 554.52 450.45 554.82 450.015 554.82H448.56C448.08 554.82 448.005 554.745 448.005 554.235V552.18H451.395V550.89H448.005V548.91H449.565ZM457.26 546.96C458.595 545.955 459.735 544.83 460.455 543.78C461.25 544.875 462.48 546 463.83 546.96H457.26ZM456.975 548.25H463.995V547.08C464.865 547.695 465.78 548.22 466.65 548.64C466.89 548.22 467.205 547.725 467.535 547.38C465.195 546.465 462.705 544.635 461.115 542.43H459.675C458.55 544.26 456.105 546.42 453.54 547.59C453.84 547.89 454.215 548.415 454.365 548.73C455.265 548.295 456.15 547.755 456.975 547.17V548.25ZM454.395 551.115H458.115C457.755 552.12 457.215 553.32 456.72 554.25L454.5 554.325L454.68 555.69C457.23 555.585 461.04 555.42 464.61 555.24C464.88 555.6 465.105 555.93 465.27 556.215L466.545 555.42C465.855 554.31 464.43 552.72 463.065 551.565L461.865 552.21C462.45 552.735 463.05 553.365 463.605 553.995C461.775 554.07 459.915 554.145 458.25 554.205C458.79 553.245 459.345 552.12 459.84 551.115H466.71V549.81H454.395V551.115ZM475.005 550.845C474.66 550.53 473.415 549.45 472.71 548.88C473.46 547.89 474.12 546.795 474.57 545.655L473.79 545.13L473.55 545.175H472.515V542.415H471.135V545.175H468.87V546.45H472.8C471.78 548.325 470.055 550.065 468.345 551.04C468.555 551.31 468.9 551.97 469.035 552.33C469.74 551.88 470.46 551.31 471.135 550.65V556.185H472.515V550.215C473.13 550.83 473.805 551.55 474.15 551.985L475.005 550.845ZM479.175 554.385V548.505H482.205V547.155H479.175V542.535H477.75V547.155H474.72V548.505H477.75V554.385H474.12V555.765H482.52V554.385H479.175Z" fill="#3E3E3E"/>
<path d="M214.636 70.508C213.46 72.44 211.052 74.764 208.952 76.22C209.372 76.668 210.044 77.592 210.352 78.096C212.732 76.444 215.308 73.812 216.988 71.404L214.636 70.508ZM215.252 76.304C213.684 79.132 211.136 81.96 208.672 83.752C209.092 84.312 209.848 85.6 210.1 86.132C211.024 85.404 211.948 84.508 212.844 83.528V96.268H215.28V80.616C216.12 79.468 216.904 78.292 217.548 77.116L215.252 76.304ZM227.712 86.748H233.592V84.312H227.712V79.356H234.348V76.864H230.456C231.352 75.408 232.388 73.336 233.284 71.376L230.764 70.508C230.176 72.244 229.028 74.652 228.132 76.164L230.008 76.864H223.344L224.912 76.108C224.324 74.624 223.092 72.412 221.972 70.704L219.816 71.6C220.768 73.224 221.916 75.352 222.504 76.864H218.416V79.356H225.164V92.292C223.652 91.452 222.42 90.024 221.58 87.616C221.86 86.16 222.028 84.564 222.168 82.856L219.564 82.66C219.256 87.756 218.388 91.984 215.728 94.532C216.316 94.924 217.324 95.848 217.744 96.324C219.088 94.896 220.04 93.132 220.74 91.032C222.812 94.756 225.892 95.764 229.896 95.764H234.236C234.348 95.064 234.712 93.888 235.02 93.272C234.124 93.3 230.792 93.3 230.092 93.3C229.252 93.3 228.468 93.244 227.712 93.132V86.748ZM262.376 85.236V82.716H251.372V76.22H261.256V73.728H251.372V70.508H248.628V73.728H238.968V76.22H248.628V82.716H237.652V85.236H247.004C244.484 88.428 240.62 91.396 236.98 92.936C237.568 93.468 238.408 94.448 238.828 95.12C242.356 93.356 245.996 90.276 248.628 86.832V96.212H251.372V86.776C254.004 90.248 257.644 93.412 261.2 95.204C261.62 94.504 262.46 93.524 263.02 92.992C259.408 91.424 255.544 88.428 253.08 85.236H262.376ZM241.068 77.424C242.104 79.048 243.084 81.26 243.42 82.632L245.884 81.652C245.52 80.252 244.428 78.152 243.364 76.556L241.068 77.424ZM256.44 82.66C257.392 81.316 258.568 79.188 259.548 77.284L256.832 76.472C256.216 78.124 255.124 80.42 254.2 81.904L256.44 82.66ZM289.648 84.172C289.648 78.32 285.392 73.616 278.672 73.616C271.644 73.616 266.156 78.992 266.156 85.264C266.156 89.94 268.704 93.02 271.476 93.02C274.248 93.02 276.572 89.856 278.252 84.144C279.064 81.512 279.54 78.796 279.932 76.276C284.244 76.808 286.708 80.028 286.708 84.088C286.708 88.596 283.516 91.228 279.932 92.04C279.232 92.208 278.392 92.348 277.44 92.432L279.092 95.064C285.896 94.084 289.648 90.052 289.648 84.172ZM268.984 84.984C268.984 81.512 271.924 77.144 276.964 76.332C276.628 78.796 276.124 81.344 275.424 83.556C274.136 87.868 272.82 89.688 271.56 89.688C270.356 89.688 268.984 88.204 268.984 84.984ZM302.444 73.56V75.436H297.068V73.56H302.444ZM297.068 79.272V77.228H302.444V79.272H297.068ZM304.88 81.176V71.628H294.492V96.212H297.068V81.176H304.88ZM304.208 87.532V84.872H307.54V87.532H304.208ZM313.336 89.688V87.532H309.864V84.872H312.776V82.8H299.196V84.872H301.968V87.532H298.692V89.688H301.884C301.66 91.228 300.876 93.328 298.804 94.588C299.336 94.952 300.12 95.652 300.484 96.128C303.032 94.42 303.928 91.564 304.152 89.688H307.54V95.708H309.864V89.688H313.336ZM309.528 79.328V77.228H315.072V79.328H309.528ZM315.072 73.56V75.436H309.528V73.56H315.072ZM317.648 71.628H307.036V81.232H315.072V92.992C315.072 93.412 314.932 93.552 314.512 93.58C314.064 93.58 312.636 93.58 311.208 93.552C311.6 94.252 311.964 95.428 312.048 96.128C314.148 96.156 315.548 96.072 316.444 95.652C317.368 95.204 317.648 94.448 317.648 93.02V71.628ZM335.988 86.328H331.732V86.132V82.632H335.988V86.328ZM341.588 82.632V81.624C342.736 82.548 343.996 83.304 345.34 83.92C345.732 83.22 346.544 82.184 347.132 81.68C345.368 80.98 343.744 79.972 342.288 78.74C343.604 77.788 345.144 76.556 346.376 75.38L344.444 74.036C343.548 75.044 342.12 76.36 340.832 77.368C340.3 76.78 339.768 76.164 339.292 75.52C340.496 74.624 341.924 73.392 343.128 72.244L341.168 70.872C340.44 71.768 339.264 72.916 338.172 73.868C337.528 72.804 336.996 71.712 336.548 70.564L334.252 71.236C335.568 74.68 337.5 77.76 339.936 80.168H328.204C330.444 78.096 332.32 75.492 333.412 72.356L331.704 71.544L331.228 71.628H323.584V73.896H329.968C329.352 75.016 328.596 76.108 327.728 77.088C326.916 76.304 325.656 75.324 324.648 74.652L323.024 76.024C324.032 76.808 325.32 77.872 326.104 78.712C324.508 80.112 322.716 81.26 320.896 82.016C321.4 82.464 322.156 83.388 322.464 83.976C323.836 83.36 325.18 82.548 326.44 81.624V82.632H329.156V86.104V86.328H322.912V88.736H328.848C328.26 90.836 326.608 92.852 322.296 94.28C322.828 94.728 323.64 95.736 323.948 96.324C329.24 94.504 331.004 91.704 331.536 88.736H335.988V92.572C335.988 95.232 336.632 95.988 339.264 95.988H342.68C344.864 95.988 345.592 94.952 345.816 91.34C345.116 91.2 344.08 90.752 343.492 90.332C343.38 93.104 343.24 93.664 342.428 93.664H339.712C338.816 93.664 338.676 93.524 338.676 92.572V88.736H345.004V86.328H338.676V82.632H341.588ZM370.54 73.7C370.54 72.748 371.324 71.936 372.276 71.936C373.228 71.936 374.04 72.748 374.04 73.7C374.04 74.652 373.228 75.436 372.276 75.436C371.324 75.436 370.54 74.652 370.54 73.7ZM369.056 73.7C369.056 73.952 369.084 74.204 369.14 74.456C368.692 74.512 368.272 74.512 367.936 74.512H354.356C353.432 74.512 352.116 74.4 351.332 74.316V77.452C352.06 77.396 353.18 77.34 354.356 77.34H368.132C367.74 79.888 366.536 83.472 364.632 85.936C362.308 88.848 359.144 91.256 353.684 92.6L356.092 95.232C361.16 93.636 364.66 90.948 367.208 87.644C369.476 84.648 370.764 80.224 371.408 77.368C371.436 77.2 371.492 77.004 371.52 76.836C371.772 76.892 372.024 76.92 372.276 76.92C374.068 76.92 375.524 75.492 375.524 73.7C375.524 71.936 374.068 70.48 372.276 70.48C370.484 70.48 369.056 71.936 369.056 73.7ZM379.836 74.512C379.892 75.24 379.892 76.22 379.892 76.948V90.696C379.892 91.816 379.836 94.056 379.808 94.308H382.86C382.832 94.168 382.832 93.496 382.832 92.74H397.336C397.308 93.524 397.308 94.168 397.28 94.308H400.332C400.332 94.084 400.276 91.676 400.276 90.696V76.948C400.276 76.164 400.276 75.296 400.332 74.54C399.408 74.568 398.4 74.568 397.756 74.568H382.552C381.852 74.568 380.956 74.568 379.836 74.512ZM382.804 77.368H397.336V89.94H382.804V77.368ZM412.26 90.332C412.26 93.328 413.212 94.784 418.952 94.784C422.228 94.784 425.252 94.532 427.688 94.196L427.8 91.172C425 91.732 422.116 92.04 419.008 92.04C415.788 92.04 415.172 91.424 415.172 89.576V81.652C419.708 80.728 424.244 79.832 424.888 79.692C424.076 81.26 422.116 84.116 420.128 85.936L422.564 87.364C424.72 85.208 427.072 81.54 428.332 79.216C428.556 78.796 428.892 78.264 429.116 77.928L427.016 76.276C426.596 76.528 426.008 76.696 425.308 76.864C424.104 77.144 419.624 78.04 415.172 78.908V75.016C415.172 74.148 415.256 73 415.396 72.16H412.064C412.204 73 412.26 74.12 412.26 75.016V79.44C409.376 79.972 406.828 80.42 405.54 80.588L406.072 83.528C407.22 83.276 409.572 82.772 412.26 82.24V90.332ZM454.82 75.156L453 73.812C452.524 73.98 451.6 74.092 450.564 74.092H440.176C439.308 74.092 437.684 73.98 437.124 73.896V77.06C437.572 77.032 439.084 76.892 440.176 76.892H450.452C449.78 79.076 447.904 82.156 446 84.284C443.228 87.392 439.028 90.752 434.492 92.488L436.76 94.868C440.764 92.992 444.544 89.996 447.54 86.804C450.312 89.38 453.112 92.46 454.96 94.98L457.424 92.796C455.688 90.668 452.3 87.056 449.416 84.592C451.376 82.072 453.028 78.908 454.008 76.612C454.204 76.136 454.624 75.436 454.82 75.156Z" fill="#3E3E3E"/>
<circle cx="165" cy="81" r="22" fill="#DFDFE0" stroke="#DFDFE0" stroke-width="2"/>
<path d="M155.113 86.7083L165 69.5833L174.887 86.7083H155.113Z" stroke="#3E3E3E" stroke-width="2"/>
<rect x="270" y="180" width="76" height="102" fill="#32455A"/>
<rect x="277" y="187" width="17" height="16" fill="white"/>
<rect x="299" y="187" width="17" height="16" fill="white"/>
<rect x="321" y="187" width="17" height="16" fill="white"/>
<rect x="277" y="207" width="17" height="16" fill="white"/>
<rect x="299" y="207" width="17" height="16" fill="white"/>
<rect x="321" y="207" width="17" height="16" fill="white"/>
<rect x="277" y="227" width="17" height="16" fill="white"/>
<rect x="299" y="227" width="17" height="16" fill="white"/>
<rect x="321" y="227" width="17" height="16" fill="white"/>
<rect x="299" y="257" width="17" height="24" fill="white"/>
<rect x="111" y="414" width="76" height="102" fill="#83909B"/>
<rect x="118" y="421" width="17" height="16" fill="white"/>
<rect x="140" y="421" width="17" height="16" fill="white"/>
<rect x="162" y="421" width="17" height="16" fill="white"/>
<rect x="118" y="441" width="17" height="16" fill="white"/>
<rect x="140" y="441" width="17" height="16" fill="white"/>
<rect x="162" y="441" width="17" height="16" fill="white"/>
<rect x="118" y="461" width="17" height="16" fill="white"/>
<rect x="140" y="461" width="17" height="16" fill="white"/>
<rect x="162" y="461" width="17" height="16" fill="white"/>
<rect x="140" y="491" width="17" height="24" fill="white"/>
<rect x="263" y="414" width="76" height="102" fill="#83909B"/>
<rect x="270" y="421" width="17" height="16" fill="white"/>
<rect x="292" y="421" width="17" height="16" fill="white"/>
<rect x="314" y="421" width="17" height="16" fill="white"/>
<rect x="270" y="441" width="17" height="16" fill="white"/>
<rect x="292" y="441" width="17" height="16" fill="white"/>
<rect x="314" y="441" width="17" height="16" fill="white"/>
<rect x="270" y="461" width="17" height="16" fill="white"/>
<rect x="292" y="461" width="17" height="16" fill="white"/>
<rect x="314" y="461" width="17" height="16" fill="white"/>
<rect x="292" y="491" width="17" height="24" fill="white"/>
<rect x="415" y="414" width="76" height="102" fill="#83909B"/>
<rect x="422" y="421" width="17" height="16" fill="white"/>
<rect x="444" y="421" width="17" height="16" fill="white"/>
<rect x="466" y="421" width="17" height="16" fill="white"/>
<rect x="422" y="441" width="17" height="16" fill="white"/>
<rect x="444" y="441" width="17" height="16" fill="white"/>
<rect x="466" y="441" width="17" height="16" fill="white"/>
<rect x="422" y="461" width="17" height="16" fill="white"/>
<rect x="444" y="461" width="17" height="16" fill="white"/>
<rect x="466" y="461" width="17" height="16" fill="white"/>
<rect x="444" y="491" width="17" height="24" fill="white"/>
<g clip-path="url(#clip0)">
<rect x="548" y="445" width="535" height="47" rx="23.5" fill="#001665"/>
<path d="M615.18 463.68C614.86 462.74 613.98 461.36 613.18 460.3L611.38 461.24C612.16 462.3 612.94 463.8 613.26 464.72L615.18 463.68ZM603.18 463.4C603.04 462.52 602.64 461.12 602.2 460.08L600.24 460.52C600.64 461.62 601 463.06 601.08 463.96L603.18 463.4ZM599.94 463.78C599.76 462.88 599.18 461.52 598.6 460.5L596.66 461.12C597.2 462.18 597.74 463.6 597.88 464.48L599.94 463.78ZM599.28 469.26H601.06V470.4H599.28V469.26ZM599.28 466.46H601.06V467.62H599.28V466.46ZM604.74 467.62H603.04V466.46H604.74V467.62ZM604.74 470.4H603.04V469.26H604.74V470.4ZM607.32 475.44V473.34H603.18V472.16H606.78V464.72H605.48C606.14 463.74 607 462.2 607.72 460.78L605.26 460.12C604.92 461.38 604.2 463.04 603.58 464.12L605.4 464.72H597.36V472.16H600.92V473.34H596.66V475.44H600.92V478.72H603.18V475.44H607.32ZM613.12 467.66C612.74 468.88 612.2 470.06 611.56 471.18C611.38 470.12 611.24 468.9 611.12 467.6L615.42 467.06L615.18 464.88L610.96 465.4C610.86 463.74 610.8 461.98 610.78 460.14H608.52C608.58 462.1 608.64 463.94 608.74 465.66L606.96 465.88L607.2 468.08L608.92 467.86C609.1 470.12 609.38 472.08 609.76 473.7C608.5 475.14 607.02 476.32 605.34 477.08C605.94 477.5 606.66 478.2 607.06 478.74C608.3 478.06 609.46 477.16 610.5 476.08C611.18 477.7 612.1 478.62 613.3 478.66C614.14 478.7 615.14 477.92 615.66 474.56C615.28 474.34 614.34 473.7 613.96 473.2C613.84 474.92 613.64 475.84 613.3 475.84C612.88 475.8 612.5 475.16 612.18 474.06C613.36 472.42 614.3 470.58 614.92 468.68L613.12 467.66ZM633.231 471.34C634.191 470.78 635.111 470.14 635.971 469.42C636.791 470.14 637.711 470.8 638.711 471.34H633.231ZM633.851 476V473.42H637.951V476H633.851ZM630.471 466.34C630.851 466.7 631.231 467.08 631.431 467.34C631.931 466.92 632.431 466.42 632.911 465.86C633.331 466.52 633.831 467.2 634.391 467.84C633.211 468.84 631.851 469.66 630.471 470.26V466.34ZM627.691 472.78V468.78H628.691V472.78H627.691ZM625.271 468.78H626.211V472.78H625.271V468.78ZM626.211 463.28V466.82H625.271V463.28H626.211ZM628.691 466.82H627.691V463.28H628.691V466.82ZM637.691 464.02C637.211 464.86 636.611 465.66 635.931 466.4C635.231 465.68 634.671 464.92 634.211 464.18L634.331 464.02H637.691ZM639.231 461.94L638.831 462.04H635.491C635.731 461.58 635.951 461.12 636.131 460.64L633.891 460.02C633.171 461.9 631.931 463.72 630.471 465.02V461.24H623.551V476.46H625.271V474.82H630.471V471.34C630.731 471.7 630.991 472.08 631.151 472.38L631.651 472.16V478.72H633.851V478.08H637.951V478.7H640.271V472.08L640.411 472.14C640.751 471.56 641.451 470.6 641.931 470.14C640.291 469.64 638.831 468.82 637.591 467.88C638.951 466.42 640.051 464.68 640.791 462.7L639.231 461.94ZM655.983 460.68H649.943V462.48H655.983V460.68ZM656.743 463.36H648.923V465.24H656.743V463.36ZM656.023 468.88H649.863V470.66H656.023V468.88ZM663.663 470.78C663.183 471.8 662.563 472.7 661.783 473.48C660.983 472.68 660.323 471.78 659.843 470.78H663.663ZM653.943 475.82H651.823V473.52H653.943V475.82ZM665.163 468.54L664.763 468.64H657.723C659.803 467.22 660.203 464.94 660.203 463.06V462.72H662.443V465.14C662.443 467.12 662.903 467.74 664.503 467.74H665.663C667.003 467.74 667.523 467.04 667.723 464.56C667.143 464.4 666.223 464.06 665.783 463.72C665.763 465.46 665.683 465.72 665.423 465.72H664.923C664.703 465.72 664.663 465.66 664.663 465.1V460.62H657.963V463C657.963 464.34 657.743 465.92 656.023 467.1V466.14H649.863V467.96H656.023V467.2C656.503 467.52 657.343 468.24 657.683 468.64H657.003V470.78H659.783L657.743 471.44C658.363 472.74 659.123 473.9 660.043 474.9C658.863 475.68 657.503 476.24 656.003 476.62V471.64H649.803V478.46H651.823V477.68H656.003V476.66C656.443 477.2 657.003 478.14 657.243 478.72C658.943 478.2 660.483 477.48 661.823 476.54C663.083 477.48 664.543 478.22 666.223 478.72C666.563 478.1 667.243 477.16 667.763 476.66C666.223 476.28 664.823 475.7 663.643 474.94C665.023 473.44 666.083 471.54 666.723 469.12L665.163 468.54ZM682.474 460.68H676.134V462.48H682.474V460.68ZM683.234 463.36H675.054V465.24H683.234V463.36ZM680.294 473.52V475.82H678.014V473.52H680.294ZM682.374 471.64H675.954V478.46H678.014V477.68H682.374V471.64ZM676.014 470.66H682.434V468.88H676.014V470.66ZM676.014 467.96H682.434V466.14H676.014V467.96ZM693.914 466.74H689.734V460.14H687.334V466.74H683.154V469.1H687.334V478.74H689.734V469.1H693.914V466.74ZM711.948 474.48L722.207 470.52V468.42L711.948 464.46V466.9L716.168 468.34L719.228 469.42V469.5L716.168 470.6L711.948 472.04V474.48ZM743.519 461.9V464.48C744.119 464.44 744.979 464.42 745.659 464.42H752.199C752.899 464.42 753.679 464.44 754.359 464.48V461.9C753.679 462 752.879 462.06 752.199 462.06H745.659C744.979 462.06 744.159 462 743.519 461.9ZM741.199 467.02V469.64C741.759 469.6 742.539 469.56 743.119 469.56H748.619C748.539 471.24 748.199 472.74 747.379 473.98C746.579 475.16 745.179 476.3 743.759 476.84L746.099 478.54C747.879 477.64 749.419 476.1 750.119 474.7C750.839 473.3 751.279 471.62 751.399 469.56H756.219C756.779 469.56 757.539 469.58 758.039 469.62V467.02C757.519 467.1 756.639 467.14 756.219 467.14H743.119C742.499 467.14 741.799 467.1 741.199 467.02ZM755.559 460.52L753.959 461.18C754.499 461.94 755.119 463.14 755.539 463.96L757.139 463.26C756.759 462.52 756.059 461.26 755.559 460.52ZM757.919 459.62L756.339 460.28C756.879 461.04 757.519 462.2 757.939 463.04L759.539 462.34C759.179 461.64 758.439 460.38 757.919 459.62ZM782.23 461.44L780.89 461.88C781.27 462.68 781.63 463.78 781.91 464.62L783.29 464.18C783.07 463.4 782.61 462.24 782.23 461.44ZM784.29 460.8L782.93 461.24C783.35 462.02 783.73 463.1 784.01 463.96L785.39 463.52C785.13 462.76 784.67 461.6 784.29 460.8ZM780.51 468.46V467.8H782.01C783.05 467.8 783.75 467.82 784.19 467.86V465.2C783.65 465.3 783.05 465.34 781.99 465.34H780.51V463.24C780.51 462.44 780.59 461.8 780.65 461.38H777.79C777.85 461.78 777.91 462.44 777.91 463.24V465.34H773.17V463.38C773.17 462.58 773.25 461.94 773.29 461.56H770.45C770.51 462.18 770.57 462.78 770.57 463.36V465.34H768.87C767.87 465.34 767.07 465.22 766.71 465.16V467.88C767.15 467.86 767.87 467.8 768.87 467.8H770.57V470.52C770.57 471.42 770.51 472.22 770.45 472.62H773.25C773.23 472.22 773.17 471.42 773.17 470.52V467.8H777.91V468.56C777.91 473.48 776.21 475.2 772.35 476.56L774.49 478.58C779.33 476.44 780.51 473.42 780.51 468.46ZM793.261 469.22L794.521 471.74C796.981 471.02 799.521 469.94 801.581 468.86V475.26C801.581 476.14 801.521 477.4 801.441 477.88H804.601C804.461 477.38 804.421 476.14 804.421 475.26V467.18C806.361 465.9 808.281 464.34 809.801 462.84L807.641 460.78C806.341 462.36 804.061 464.36 802.001 465.64C799.781 467 796.841 468.3 793.261 469.22ZM822.972 461.8L821.092 463.8C822.552 464.82 825.052 467 826.092 468.12L828.132 466.04C826.972 464.82 824.372 462.74 822.972 461.8ZM820.472 475.12L822.152 477.76C824.972 477.28 827.552 476.16 829.572 474.94C832.792 473 835.452 470.24 836.972 467.54L835.412 464.72C834.152 467.42 831.552 470.48 828.132 472.5C826.192 473.66 823.592 474.68 820.472 475.12ZM855.706 474.48L865.966 470.52V468.42L855.706 464.46V466.9L859.926 468.34L862.986 469.42V469.5L859.926 470.6L855.706 472.04V474.48ZM889.697 461.16L888.237 463.36C889.557 464.1 891.637 465.46 892.757 466.24L894.257 464.02C893.217 463.3 891.017 461.88 889.697 461.16ZM885.977 475.36L887.477 478C889.257 477.68 892.117 476.68 894.157 475.52C897.437 473.64 900.257 471.1 902.117 468.34L900.577 465.62C898.977 468.48 896.197 471.22 892.797 473.12C890.617 474.32 888.217 474.98 885.977 475.36ZM886.617 465.72L885.157 467.94C886.497 468.64 888.577 470 889.717 470.78L891.177 468.54C890.157 467.82 887.957 466.44 886.617 465.72ZM926.328 463.44L924.688 462.22C924.288 462.36 923.488 462.48 922.628 462.48H915.568C914.968 462.48 913.748 462.42 913.208 462.34V465.18C913.628 465.16 914.728 465.04 915.568 465.04H922.348C921.908 466.46 920.688 468.44 919.368 469.94C917.488 472.04 914.388 474.48 911.168 475.68L913.228 477.84C915.968 476.54 918.628 474.46 920.748 472.22C922.628 474.04 924.488 476.08 925.788 477.88L928.068 475.9C926.888 474.46 924.468 471.9 922.488 470.18C923.828 468.38 924.948 466.24 925.628 464.68C925.808 464.28 926.168 463.66 926.328 463.44ZM939.8 461.66V464.24C940.42 464.2 941.26 464.16 941.96 464.16H949.98C950.68 464.16 951.46 464.2 952.14 464.24V461.66C951.46 461.76 950.66 461.8 949.98 461.8H941.94C941.28 461.8 940.46 461.76 939.8 461.66ZM937.48 466.78V469.4C938.04 469.36 938.8 469.32 939.4 469.32H944.9C944.82 471 944.48 472.5 943.66 473.74C942.86 474.9 941.46 476.06 940.04 476.6L942.38 478.3C944.16 477.4 945.7 475.84 946.4 474.46C947.12 473.06 947.56 471.38 947.68 469.32H952.5C953.06 469.32 953.82 469.34 954.32 469.38V466.78C953.8 466.86 952.92 466.9 952.5 466.9H939.4C938.78 466.9 938.08 466.84 937.48 466.78ZM973.011 461.92L969.831 461.26C969.751 461.94 969.631 462.56 969.351 463.58C968.771 465.66 967.051 471.14 965.891 474.1C965.711 474.1 965.511 474.12 965.351 474.12C964.691 474.14 963.831 474.14 963.151 474.14L963.611 477.06C964.251 476.98 964.991 476.88 965.491 476.82C968.011 476.56 974.071 475.92 977.311 475.54C977.691 476.4 978.011 477.22 978.271 477.9L980.971 476.7C980.051 474.46 978.011 470.54 976.591 468.38L974.091 469.4C974.751 470.28 975.491 471.62 976.191 473.06C974.171 473.3 971.331 473.62 968.891 473.86C969.891 471.18 971.511 466.1 972.151 464.14C972.451 463.26 972.751 462.52 973.011 461.92ZM995.122 462.52V463.54H991.982V462.52H995.122ZM991.982 466.18V465.1H995.122V466.18H991.982ZM997.362 467.9V460.82H989.662V478.74H991.982V467.9H997.362ZM997.042 472.3V470.8H998.902V472.3H997.042ZM1003.18 474.24V472.3H1000.98V470.8H1002.86V468.92H993.202V470.8H995.022V472.3H992.922V474.24H994.942C994.742 475.26 994.182 476.56 992.902 477.36C993.362 477.68 994.082 478.3 994.422 478.72C996.122 477.56 996.782 475.62 996.982 474.24H998.902V478.36H1000.98V474.24H1003.18ZM1000.94 466.22V465.1H1004.18V466.22H1000.94ZM1004.18 462.52V463.54H1000.94V462.52H1004.18ZM1006.52 460.82H998.682V467.94H1004.18V475.94C1004.18 476.22 1004.08 476.34 1003.76 476.34C1003.46 476.36 1002.48 476.36 1001.58 476.32C1001.9 476.94 1002.22 478.02 1002.3 478.68C1003.82 478.68 1004.86 478.62 1005.58 478.22C1006.3 477.84 1006.52 477.18 1006.52 475.96V460.82ZM1025.31 471.32H1022.85V469.06H1025.31V471.32ZM1029.61 469.06V468.42C1030.37 469 1031.19 469.5 1032.07 469.92C1032.43 469.28 1033.15 468.34 1033.71 467.88C1032.57 467.42 1031.53 466.8 1030.59 466.04C1031.47 465.42 1032.43 464.64 1033.25 463.88L1031.51 462.64C1030.95 463.32 1030.07 464.14 1029.25 464.8C1028.95 464.46 1028.65 464.12 1028.37 463.76C1029.19 463.16 1030.11 462.38 1030.93 461.64L1029.13 460.36C1028.67 460.92 1028.01 461.62 1027.35 462.22C1026.95 461.54 1026.63 460.82 1026.35 460.08L1024.21 460.68C1025.09 463.04 1026.29 465.12 1027.85 466.8H1020.61C1022.01 465.36 1023.15 463.58 1023.85 461.48L1022.27 460.74L1021.85 460.82H1016.63V462.86H1020.71C1020.35 463.5 1019.93 464.1 1019.45 464.66C1018.89 464.18 1018.13 463.6 1017.53 463.18L1016.03 464.42C1016.69 464.92 1017.49 465.6 1018.01 466.12C1016.99 467 1015.85 467.7 1014.69 468.18C1015.15 468.62 1015.81 469.44 1016.13 469.98C1017.05 469.54 1017.95 469.02 1018.79 468.4V469.06H1020.47V471.32H1016.19V473.5H1020.15C1019.65 474.84 1018.45 476.08 1015.69 476.92C1016.19 477.36 1016.91 478.28 1017.21 478.82C1020.91 477.58 1022.23 475.6 1022.67 473.5H1025.31V475.68C1025.31 477.9 1025.85 478.6 1028.01 478.6H1030.19C1031.95 478.6 1032.57 477.8 1032.81 475.16C1032.13 475.02 1031.17 474.62 1030.67 474.22C1030.59 476.1 1030.49 476.5 1029.97 476.5H1028.43C1027.87 476.5 1027.79 476.38 1027.79 475.66V473.5H1032.05V471.32H1027.79V469.06H1029.61Z" fill="white"/>
</g>
<path d="M864.84 221.98C863.86 223.32 862.22 224.68 860.6 225.5C861.12 225.88 862 226.72 862.4 227.14C864.02 226.12 865.88 224.42 867.06 222.78L864.84 221.98ZM865.9 215.06C867.54 213.86 868.96 212.54 869.92 211.32C870.92 212.56 872.44 213.88 874.08 215.06H865.9ZM878.1 221.26V219.02H871.18V217.2H875.02V215.7C876 216.36 877.02 216.94 877.98 217.4C878.4 216.7 878.94 215.88 879.54 215.28C876.42 214.12 873.2 211.86 871.02 209.1H868.62C867.06 211.32 863.86 214 860.54 215.5C861.04 216 861.66 216.9 861.98 217.44C862.92 216.98 863.86 216.44 864.76 215.84V217.2H868.66V219.02H862.14V221.26H868.66V225.12C868.66 225.4 868.56 225.48 868.22 225.5C867.9 225.5 866.78 225.5 865.78 225.46C866.16 226.08 866.6 227.08 866.74 227.76C868.2 227.76 869.28 227.7 870.1 227.34C870.94 226.96 871.18 226.36 871.18 225.16V221.26H878.1ZM872.58 223.06C874.1 224.28 876.04 225.98 876.9 227.1L879 225.7C878.04 224.58 876.02 222.94 874.52 221.84L872.58 223.06ZM892.611 209.68H886.271V211.48H892.611V209.68ZM893.371 212.36H885.191V214.24H893.371V212.36ZM890.431 222.52V224.82H888.151V222.52H890.431ZM892.511 220.64H886.091V227.46H888.151V226.68H892.511V220.64ZM886.151 219.66H892.571V217.88H886.151V219.66ZM886.151 216.96H892.571V215.14H886.151V216.96ZM904.051 215.74H899.871V209.14H897.471V215.74H893.291V218.1H897.471V227.74H899.871V218.1H904.051V215.74ZM918.503 209.9L915.743 209.62C915.703 210.66 915.483 211.86 915.203 212.96C914.583 213.02 913.983 213.04 913.383 213.04C912.643 213.04 911.583 213 910.723 212.9L910.903 215.22C911.763 215.28 912.583 215.3 913.403 215.3C913.743 215.3 914.083 215.3 914.443 215.28C913.563 217.44 911.943 220.38 910.363 222.34L912.783 223.58C914.403 221.32 916.103 217.82 917.063 215.02C918.403 214.82 919.643 214.56 920.563 214.32L920.483 212C919.703 212.24 918.763 212.46 917.783 212.64C918.083 211.56 918.343 210.54 918.503 209.9ZM917.463 223.74C917.463 223.04 918.203 222.52 919.363 222.52C919.923 222.52 920.463 222.6 920.983 222.72C920.983 222.88 920.983 223 920.983 223.12C920.983 224.22 920.563 224.98 919.183 224.98C918.083 224.98 917.463 224.48 917.463 223.74ZM923.183 216.12H920.683C920.723 217.34 920.822 219.12 920.903 220.6C920.443 220.56 920.003 220.52 919.523 220.52C916.743 220.52 915.103 222.02 915.103 223.98C915.103 226.18 917.063 227.28 919.543 227.28C922.383 227.28 923.403 225.84 923.403 223.98C923.403 223.92 923.403 223.84 923.403 223.78C924.503 224.44 925.403 225.28 926.103 225.92L927.443 223.78C926.423 222.86 925.023 221.86 923.303 221.22C923.263 220.22 923.203 219.26 923.183 218.68C923.163 217.8 923.123 216.96 923.183 216.12ZM926.623 217.18L928.043 215.08C927.023 214.34 924.543 212.98 923.103 212.36L921.823 214.34C923.183 214.96 925.463 216.26 926.623 217.18ZM940.314 209.68H935.194V211.48H940.314V209.68ZM940.854 212.36H934.254V214.24H940.854V212.36ZM940.374 215.14H935.074V216.96H940.374V215.14ZM935.074 219.66H940.374V217.88H935.074V219.66ZM944.374 216.4V218.14H949.574V216.4H947.854V215.04H949.434V213.32H947.854V212.02H945.994V213.32H944.454V215.04H945.994V216.4H944.374ZM947.694 220.88V222.76H946.174V220.88H947.694ZM949.414 224.46V219.16H944.494V225.14H946.174V224.46H949.414ZM938.434 224.8H936.854V222.5H938.434V224.8ZM952.374 209.78H941.634V217.22C941.634 219.98 941.534 223.6 940.334 226.2V220.64H935.014V227.46H936.854V226.66H940.334C940.854 226.92 941.654 227.48 941.994 227.84C943.554 224.96 943.794 220.4 943.794 217.22V211.8H950.174V225.04C950.174 225.34 950.094 225.42 949.814 225.42C949.514 225.42 948.594 225.44 947.774 225.4C948.074 226.02 948.374 227.08 948.434 227.72C949.854 227.72 950.834 227.68 951.514 227.28C952.194 226.9 952.374 226.22 952.374 225.06V209.78ZM969.245 224.52H974.405V222.78H969.245V221.84H976.005V219.96H960.245V221.84H966.925V225.5H964.265V222.5H961.985V225.5H959.065V227.44H977.245V225.5H969.245V224.52ZM968.165 217.54C967.765 217.3 966.505 216.66 965.645 216.22H968.145V214.2C968.565 214.62 969.045 215.16 969.265 215.48C969.585 215.2 969.865 214.88 970.165 214.54C970.485 215.12 970.865 215.72 971.325 216.28C970.385 217.02 969.225 217.58 967.825 217.98L968.165 217.54ZM961.505 213.74H962.805V214.82H961.505V213.74ZM966.185 213.74V214.82H964.885V213.74H966.185ZM973.565 212.96C973.345 213.68 973.025 214.34 972.625 214.9C972.085 214.28 971.665 213.62 971.345 212.96H973.565ZM977.145 212.96V211.08H972.165C972.365 210.58 972.545 210.08 972.705 209.56L970.585 209.08C970.125 210.76 969.265 212.34 968.145 213.44V212.34H964.885V211.66H968.425V210.08H964.885V209.06H962.805V210.08H959.225V211.66H962.805V212.34H959.665V216.22H961.965C961.085 217 959.865 217.74 958.825 218.16C959.225 218.52 959.845 219.18 960.145 219.64C961.005 219.18 961.985 218.44 962.805 217.64V219.54H964.885V217.48C965.665 218 966.545 218.62 967.025 219L967.785 218.02C968.205 218.42 968.865 219.24 969.105 219.7C970.525 219.2 971.745 218.56 972.745 217.74C973.685 218.56 974.845 219.24 976.185 219.7C976.465 219.14 977.045 218.28 977.505 217.86C976.185 217.52 975.085 216.98 974.165 216.3C974.885 215.38 975.425 214.28 975.825 212.96H977.145ZM983.416 217L984.596 219.54C985.456 219.16 986.716 218.48 988.156 217.76C988.336 218.16 988.516 218.58 988.696 219C989.716 221.42 990.756 224.8 991.376 227.32L994.116 226.6C993.456 224.36 991.916 220.08 990.976 217.9C990.796 217.5 990.616 217.08 990.416 216.66C992.556 215.68 994.736 214.86 996.296 214.86C997.796 214.86 998.696 215.68 998.696 216.7C998.696 218.14 997.596 218.96 996.096 218.96C995.216 218.96 994.216 218.66 993.316 218.28L993.256 220.8C994.016 221.08 995.256 221.36 996.336 221.36C999.396 221.36 1001.32 219.58 1001.32 216.78C1001.32 214.46 999.456 212.58 996.356 212.58C995.456 212.58 994.476 212.76 993.476 213.06L995.056 211.9C994.376 211.18 992.876 209.88 992.156 209.34L990.316 210.62C991.076 211.2 992.356 212.44 993.076 213.18C991.916 213.56 990.696 214.06 989.476 214.6C989.156 213.92 988.836 213.28 988.536 212.7C988.316 212.32 987.916 211.5 987.736 211.14L985.136 212.14C985.536 212.66 986.036 213.4 986.316 213.9C986.616 214.42 986.916 215 987.196 215.6C986.596 215.86 985.976 216.12 985.396 216.36C985.076 216.5 984.196 216.8 983.416 217ZM876.44 232.82C876.3 235.78 876.14 236.96 875.86 237.28C875.7 237.48 875.52 237.54 875.26 237.52C875.06 237.52 874.72 237.52 874.3 237.5L875.26 235.96C874.78 235.64 874.14 235.3 873.44 234.96C873.66 234.26 873.82 233.54 873.94 232.82H876.44ZM868.52 235.06C869.22 235.28 869.98 235.58 870.72 235.9C870.12 236.88 869.22 237.76 867.84 238.42C868.32 238.8 868.94 239.58 869.18 240.1C870.82 239.24 871.9 238.12 872.62 236.84C873.02 237.06 873.38 237.28 873.72 237.5C874.02 238.06 874.24 238.94 874.28 239.58C875.14 239.6 875.96 239.58 876.44 239.5C877 239.42 877.38 239.24 877.76 238.74C878.3 238.1 878.5 236.24 878.7 231.72C878.72 231.44 878.72 230.84 878.72 230.84H868.8V232.82H871.8C871.72 233.24 871.62 233.66 871.5 234.08C870.86 233.84 870.22 233.6 869.62 233.42L868.52 235.06ZM871.14 240.18C872.42 240.92 873.94 242.04 874.62 242.86L876.1 241.34C875.34 240.48 873.8 239.46 872.52 238.8L871.14 240.18ZM867.32 230.68H861.62V232.48H867.32V230.68ZM867.92 233.36H860.66V235.24H867.92V233.36ZM867.38 236.14H861.56V237.96H867.38V236.14ZM861.56 240.66H867.38V238.88H861.56V240.66ZM865.42 245.82H863.46V243.52H865.42V245.82ZM867.4 241.64H861.5V248.46H863.46V247.68H867.4V246.7L869.02 247.68C870 246.5 870.36 244.6 870.56 242.82L868.68 242.34C868.5 243.88 868.14 245.46 867.4 246.46V241.64ZM873.3 246.54C872.94 246.54 872.9 246.48 872.9 245.92V241.56H870.7V245.94C870.7 247.92 871.08 248.58 872.96 248.58H874.6C876.02 248.58 876.6 247.92 876.82 245.3C876.22 245.14 875.28 244.8 874.88 244.44C874.82 246.28 874.74 246.54 874.36 246.54H873.3ZM875.54 242.64C876.52 244.18 877.34 246.3 877.54 247.68L879.64 246.82C879.36 245.44 878.52 243.4 877.46 241.88L875.54 242.64ZM890.971 230.68H886.071V232.48H890.971V230.68ZM891.471 233.36H885.191V235.24H891.471V233.36ZM890.991 236.14H885.971V237.96H890.991V236.14ZM885.971 240.66H890.991V238.88H885.971V240.66ZM889.191 243.5V245.8H887.711V243.5H889.191ZM891.051 241.64H885.911V248.46H887.711V247.66H891.051V241.64ZM893.871 244.88V243.82H895.831V244.88H893.871ZM895.831 241.22V242.22H893.871V241.22H895.831ZM901.731 239.52C901.451 240.38 901.111 241.18 900.731 241.94C900.651 240.98 900.571 239.9 900.531 238.68H903.751V236.78H900.491C900.451 235.34 900.451 233.78 900.471 232.1C901.191 233.2 901.811 234.64 902.031 235.64L903.931 234.86C903.651 233.86 902.951 232.36 902.151 231.28L900.471 231.92L900.491 230.08H898.471C898.471 232.54 898.491 234.78 898.531 236.78H896.991C897.191 236.06 897.431 235.06 897.691 234.1L895.891 233.82H898.111V232.04H896.031V230.08H893.851V232.04H891.731V233.82H895.771C895.691 234.62 895.511 235.78 895.351 236.56L896.391 236.78H893.151L894.491 236.46C894.471 235.76 894.231 234.68 893.911 233.88L892.331 234.22C892.591 235.02 892.771 236.06 892.811 236.78H891.311V238.68H898.591C898.691 240.96 898.851 242.88 899.131 244.42C898.691 244.96 898.231 245.44 897.751 245.9V239.58H892.091V247.28H893.871V246.52H897.031C896.611 246.86 896.171 247.16 895.731 247.42C896.171 247.76 896.791 248.34 897.071 248.74C897.971 248.16 898.871 247.44 899.691 246.6C900.211 247.96 900.971 248.7 902.031 248.78C902.791 248.82 903.651 248.12 904.151 245.28C903.811 245.06 903.031 244.42 902.691 243.94C902.611 245.36 902.411 246.24 902.151 246.22C901.751 246.18 901.431 245.68 901.191 244.82C902.111 243.54 902.911 242.1 903.491 240.5L901.731 239.52ZM927.603 239.96C927.603 235.6 924.483 232.16 919.523 232.16C914.342 232.16 910.343 236.1 910.343 240.72C910.343 244.1 912.183 246.54 914.403 246.54C916.583 246.54 918.303 244.06 919.503 240.02C920.082 238.14 920.423 236.3 920.703 234.6C923.403 235.06 924.903 237.12 924.903 239.88C924.903 242.8 922.903 244.64 920.343 245.24C919.803 245.36 919.243 245.48 918.483 245.56L919.983 247.94C925.023 247.16 927.603 244.18 927.603 239.96ZM912.903 240.46C912.903 238.26 914.683 235.34 917.983 234.66C917.763 236.32 917.383 238.02 916.923 239.5C916.103 242.2 915.323 243.46 914.483 243.46C913.703 243.46 912.903 242.48 912.903 240.46ZM948.954 230.36L947.374 231.02C947.734 231.56 948.134 232.26 948.474 232.9L948.234 232.72C947.834 232.86 947.034 232.96 946.174 232.96H939.114C938.514 232.96 937.294 232.9 936.754 232.82V235.66C937.174 235.64 938.274 235.52 939.114 235.52H945.894C945.454 236.94 944.234 238.92 942.914 240.42C941.034 242.52 937.934 244.96 934.714 246.16L936.774 248.32C939.514 247.04 942.174 244.94 944.294 242.72C946.174 244.52 948.034 246.58 949.334 248.38L951.614 246.38C950.434 244.94 948.014 242.38 946.034 240.66C947.374 238.86 948.494 236.74 949.174 235.18C949.354 234.76 949.714 234.16 949.874 233.92L949.414 233.58L950.554 233.1C950.214 232.4 949.474 231.12 948.954 230.36ZM951.474 229.66L949.894 230.32C950.434 231.06 951.094 232.24 951.514 233.06L953.094 232.38C952.734 231.68 952.014 230.42 951.474 229.66ZM962.025 246.2L963.925 247.84C964.385 247.54 964.825 247.4 965.105 247.3C969.825 245.76 973.965 243.38 976.705 240.1L975.285 237.84C972.725 240.96 968.265 243.52 965.005 244.46V234.06C965.005 233.28 965.085 232.56 965.205 231.78H962.065C962.185 232.36 962.285 233.3 962.285 234.06V244.9C962.285 245.36 962.265 245.7 962.025 246.2ZM991.756 231.34L988.776 231.04C988.816 232.3 988.636 233.76 988.356 235.26C987.336 235.36 986.396 235.42 985.776 235.44C985.036 235.46 984.376 235.5 983.636 235.44L983.876 238.16C984.496 238.06 985.536 237.92 986.116 237.82C986.476 237.78 987.116 237.7 987.836 237.62C987.096 240.36 985.716 244.4 983.776 247.02L986.376 248.06C988.216 245.12 989.696 240.38 990.456 237.34C991.036 237.3 991.536 237.26 991.856 237.26C993.096 237.26 993.796 237.48 993.796 239.08C993.796 241.06 993.516 243.48 992.976 244.62C992.656 245.28 992.156 245.48 991.476 245.48C990.956 245.48 989.796 245.28 989.036 245.06L989.456 247.7C990.136 247.84 991.096 247.98 991.856 247.98C993.376 247.98 994.476 247.54 995.136 246.14C995.996 244.4 996.276 241.16 996.276 238.8C996.276 235.92 994.776 234.98 992.656 234.98C992.236 234.98 991.656 235.02 990.976 235.06C991.116 234.34 991.276 233.6 991.396 233C991.496 232.5 991.636 231.86 991.756 231.34ZM1000.66 229.68L999.056 230.32C999.616 231.08 1000.26 232.26 1000.68 233.08L1002.26 232.4C1001.92 231.7 1001.18 230.44 1000.66 229.68ZM998.276 230.58L996.696 231.24C997.156 231.88 997.656 232.84 998.056 233.6L996.256 234.38C997.676 236.14 999.096 239.66 999.616 241.88L1002.16 240.72C1001.6 238.94 1000.1 235.6 998.896 233.74L999.876 233.32C999.496 232.58 998.776 231.32 998.276 230.58ZM866.2 253.08C865.48 252.44 864 251.64 862.88 251.16L861.54 252.92C862.7 253.44 864.12 254.34 864.78 255L866.2 253.08ZM865.22 258.36C864.5 257.72 863.06 256.98 861.92 256.54L860.62 258.3C861.74 258.8 863.16 259.64 863.82 260.28L865.22 258.36ZM863.32 261.5C862.56 263.92 861.48 266.54 860.72 268.14L862.88 269.32C863.7 267.32 864.56 264.94 865.24 262.74L863.32 261.5ZM871.52 261.78V263.92H870.14V261.78H871.52ZM873.1 265.66V260.06H868.58V266.74H870.14V265.66H873.1ZM872.94 257.2H868.68V258.94H872.94V257.2ZM876.96 257.38C876.68 258.74 876.32 260 875.86 261.16C875.68 259.66 875.54 257.94 875.44 256.08H879.06V253.98H878.24L879.22 253.02C878.7 252.4 877.56 251.6 876.66 251.1L875.38 252.3C876.16 252.76 877.02 253.42 877.6 253.98H875.34C875.3 253.1 875.28 252.2 875.28 251.28H873.1C873.12 252.2 873.14 253.1 873.18 253.98H865.94V259.56C865.94 262.26 865.8 265.94 864.28 268.52C864.78 268.74 865.68 269.34 866.06 269.72C867.74 266.92 868.02 262.56 868.02 259.56V256.08H873.28C873.44 259.36 873.72 262.2 874.16 264.42C873.14 265.92 871.88 267.14 870.34 268.08C870.8 268.44 871.58 269.2 871.9 269.6C872.98 268.84 873.96 267.94 874.82 266.9C875.44 268.68 876.28 269.66 877.38 269.68C878.2 269.68 879.18 268.9 879.68 265.26C879.3 265.08 878.38 264.5 878 264.04C877.9 265.88 877.7 266.9 877.42 266.88C877.06 266.86 876.72 266.04 876.4 264.62C877.54 262.66 878.4 260.36 879 257.76L876.96 257.38ZM887.391 259.54L888.431 262.14C890.131 261.42 894.131 259.76 896.451 259.76C898.191 259.76 899.311 260.8 899.311 262.3C899.311 265.02 895.951 266.24 891.371 266.36L892.431 268.82C898.791 268.42 901.971 265.96 901.971 262.34C901.971 259.32 899.851 257.44 896.691 257.44C894.271 257.44 890.871 258.58 889.511 259C888.911 259.18 887.991 259.42 887.391 259.54ZM920.803 263.12L918.423 262.88C918.263 263.68 918.063 264.64 918.063 265.56C918.063 267.58 919.883 268.74 923.243 268.74C924.843 268.74 926.203 268.6 927.323 268.46L927.423 265.9C925.983 266.16 924.603 266.32 923.263 266.32C921.123 266.32 920.523 265.66 920.523 264.78C920.523 264.34 920.643 263.68 920.803 263.12ZM918.543 252.04L915.483 251.8C915.543 252.26 915.503 253.08 915.423 253.82C915.383 254.14 915.323 254.52 915.243 254.96C914.623 255 914.023 255.02 913.443 255.02C912.623 255.02 911.943 254.98 910.923 254.86L910.983 257.36C911.683 257.4 912.443 257.44 913.403 257.44C913.823 257.44 914.263 257.42 914.723 257.4C914.603 257.98 914.443 258.54 914.303 259.08C913.563 261.88 912.043 266.08 910.843 268.08L913.623 269.02C914.743 266.64 916.083 262.56 916.803 259.76C917.023 258.94 917.223 258.06 917.403 257.2C918.743 257.04 920.103 256.82 921.303 256.54V254.04C920.203 254.3 919.083 254.52 917.963 254.68C918.023 254.4 918.083 254.14 918.123 253.92C918.203 253.48 918.383 252.58 918.543 252.04ZM919.723 258.08V260.42C920.983 260.28 922.223 260.22 923.583 260.22C924.803 260.22 926.023 260.34 927.023 260.46L927.083 258.06C925.903 257.94 924.703 257.88 923.563 257.88C922.283 257.88 920.843 257.98 919.723 258.08ZM936.334 262.96H938.254L938.674 255.58L938.774 252.8H935.814L935.914 255.58L936.334 262.96ZM937.294 268.28C938.334 268.28 939.134 267.44 939.134 266.36C939.134 265.26 938.334 264.44 937.294 264.44C936.254 264.44 935.474 265.26 935.474 266.36C935.474 267.44 936.254 268.28 937.294 268.28Z" fill="#3E3E3E"/>
<path d="M722.992 132.152V134.624C724.912 134.792 726.976 134.888 729.424 134.888C731.68 134.888 734.44 134.744 736.096 134.6V132.104C734.32 132.296 731.752 132.44 729.424 132.44C726.952 132.44 724.744 132.344 722.992 132.152ZM724.408 142.04L721.936 141.8C721.72 142.736 721.456 143.888 721.456 145.184C721.456 148.328 724.24 150.056 729.4 150.056C732.784 150.056 735.76 149.696 737.632 149.216L737.608 146.576C735.664 147.152 732.592 147.512 729.328 147.512C725.632 147.512 723.952 146.336 723.952 144.632C723.952 143.768 724.144 142.952 724.408 142.04ZM736.744 129.56L735.184 130.208C735.856 131.12 736.624 132.56 737.104 133.544L738.688 132.848C738.208 131.912 737.344 130.424 736.744 129.56ZM739.48 128.552L737.944 129.2C738.616 130.088 739.384 131.48 739.912 132.512L741.472 131.816C741.016 130.952 740.104 129.44 739.48 128.552ZM768.751 137.168C767.815 138.2 766.399 139.472 765.079 140.504C764.551 138.824 764.143 137.024 763.831 135.152H769.975V133.04H763.423V129.152H761.167V133.04H754.327V135.152H760.375C758.647 137.72 756.079 140 753.391 141.44V134.432C754.303 132.872 755.095 131.216 755.743 129.584L753.655 128.912C752.335 132.416 750.127 135.848 747.823 138.032C748.207 138.608 748.807 139.808 749.047 140.312C749.791 139.544 750.535 138.68 751.255 137.72V150.824H753.391V141.632C753.871 142.112 754.495 142.976 754.783 143.384C755.647 142.856 756.511 142.232 757.351 141.56V147.824C756.319 148.04 755.359 148.232 754.543 148.376L755.215 150.536C757.807 149.912 761.383 149.096 764.719 148.256L764.503 146.264C762.823 146.648 761.095 147.032 759.463 147.368V139.616C760.375 138.68 761.239 137.672 762.007 136.592C763.159 142.928 765.223 148.064 769.327 150.656C769.663 150.056 770.383 149.192 770.887 148.76C768.607 147.44 766.951 145.16 765.751 142.304C767.239 141.32 768.967 139.928 770.407 138.752L768.751 137.168ZM796.701 137.528H791.133V135.584H796.701V137.528ZM796.701 141.056H791.133V139.112H796.701V141.056ZM796.701 144.632H791.133V142.664H796.701V144.632ZM789.117 133.88V146.336H798.813V133.88H794.373C794.565 133.232 794.781 132.536 794.997 131.816H799.677V129.896H788.157V131.816H792.645C792.549 132.488 792.405 133.232 792.261 133.88H789.117ZM780.141 137.048H782.205V139.928H780.141V137.048ZM785.997 139.928H783.933V137.048H785.997V139.928ZM788.013 145.16C787.461 144.608 785.277 142.544 784.269 141.656H787.797V135.32H784.053V133.472H787.941V131.504H784.053V128.912H782.061V131.504H778.053V133.472H782.061V135.32H778.485V141.656H781.533C780.525 143.672 778.917 145.88 777.453 147.104C777.765 147.632 778.245 148.52 778.461 149.12C779.733 147.968 781.005 146.096 782.061 144.176V150.896H784.053V143.672C785.013 144.776 786.141 146.096 786.669 146.864L788.013 145.16ZM791.157 146.576C790.173 147.608 788.157 148.832 786.381 149.48C786.861 149.864 787.509 150.536 787.869 150.92C789.645 150.248 791.733 148.952 792.981 147.728L791.157 146.576ZM794.565 147.776C795.933 148.688 797.637 150.08 798.453 150.968L800.205 149.792C799.317 148.904 797.565 147.584 796.245 146.744L794.565 147.776ZM819.396 147.92V142.616H826.596V140.456H819.396V135.68H827.652V133.496H820.02L821.196 132.656C820.212 131.528 818.244 129.92 816.708 128.888L814.884 130.16C816.204 131.096 817.764 132.44 818.748 133.496H808.668V135.68H816.948V140.456H809.82V142.616H816.948V147.92H807.588V150.104H828.852V147.92H819.396ZM847.947 131.984C848.115 132.464 848.331 133.088 848.571 133.832C845.979 134.024 842.763 133.952 839.187 133.52L839.235 135.944C843.171 136.256 846.531 136.256 849.411 136.016C850.179 137.864 851.187 139.712 852.027 141.008C851.211 140.912 849.507 140.768 848.234 140.672L848.067 142.664C849.915 142.808 852.867 143.096 854.115 143.384L855.315 141.656C854.907 141.224 854.523 140.768 854.163 140.24C853.395 139.16 852.435 137.48 851.691 135.776C853.275 135.536 855.003 135.224 856.371 134.84L856.083 132.44C854.499 132.968 852.651 133.352 850.899 133.592C850.467 132.296 850.059 130.856 849.867 129.632L847.275 129.944C847.539 130.664 847.779 131.456 847.947 131.984ZM843.387 141.392L841.011 140.864C840.267 142.376 839.811 143.672 839.811 145.064C839.811 148.4 842.787 150.152 847.491 150.176C850.275 150.2 852.363 149.912 853.803 149.648L853.923 147.248C852.243 147.584 850.155 147.848 847.635 147.824C844.179 147.8 842.235 146.864 842.235 144.704C842.235 143.6 842.643 142.544 843.387 141.392ZM871.385 146.384C871.385 145.424 872.489 144.632 874.529 144.632C875.273 144.632 876.017 144.704 876.713 144.848C876.737 145.376 876.737 145.856 876.737 146.192C876.737 147.728 875.705 148.136 874.361 148.136C872.297 148.136 871.385 147.416 871.385 146.384ZM878.945 129.8H876.377C876.473 130.184 876.497 130.904 876.497 131.312C876.497 131.72 876.497 132.224 876.497 132.776C876.161 132.776 875.801 132.776 875.465 132.776C873.929 132.776 871.049 132.536 869.441 132.248L869.465 134.432C871.025 134.624 873.905 134.864 875.489 134.864C875.825 134.864 876.161 134.864 876.473 134.864C876.473 135.824 876.473 136.832 876.473 137.816C876.065 137.816 875.657 137.816 875.249 137.816C873.785 137.816 870.953 137.648 869.321 137.384L869.345 139.64C871.001 139.832 873.665 139.952 875.201 139.952C875.657 139.952 876.089 139.952 876.521 139.952C876.545 140.84 876.593 141.824 876.617 142.76C876.041 142.712 875.465 142.664 874.841 142.664C871.265 142.664 869.129 144.224 869.129 146.528C869.129 148.928 871.073 150.272 874.673 150.272C877.817 150.272 879.137 148.616 879.137 146.792C879.137 146.456 879.113 146.048 879.089 145.544C881.273 146.432 883.097 147.8 884.465 149.048L885.857 146.912C884.465 145.784 882.089 144.104 878.969 143.24C878.921 142.16 878.849 141.008 878.801 139.904C881.105 139.808 883.097 139.64 885.305 139.376L885.329 137.144C883.241 137.432 881.129 137.648 878.753 137.744C878.753 136.976 878.753 135.848 878.753 134.768C881.081 134.672 883.313 134.456 885.089 134.24V132.032C882.953 132.392 880.841 132.608 878.777 132.704C878.801 132.176 878.801 131.72 878.825 131.432C878.849 130.76 878.897 130.232 878.945 129.8Z" fill="#3E3E3E"/>
<rect x="764" y="178" width="76" height="102" fill="#001665"/>
<rect x="771" y="185" width="17" height="16" fill="white"/>
<rect x="793" y="185" width="17" height="16" fill="white"/>
<rect x="815" y="185" width="17" height="16" fill="white"/>
<rect x="771" y="205" width="17" height="16" fill="white"/>
<rect x="793" y="205" width="17" height="16" fill="white"/>
<rect x="815" y="205" width="17" height="16" fill="white"/>
<rect x="771" y="225" width="17" height="16" fill="white"/>
<rect x="793" y="225" width="17" height="16" fill="white"/>
<rect x="815" y="225" width="17" height="16" fill="white"/>
<rect x="793" y="255" width="17" height="24" fill="white"/>
<path d="M717.49 211.318C716.467 211.133 715.477 210.88 714.545 210.566C707.717 208.27 703.858 202.692 702.588 195.51C702.467 194.83 701.486 194.83 701.365 195.51C699.889 203.855 694.977 209.756 686.505 211.329C685.831 211.454 685.832 212.425 686.506 212.55C694.9 214.102 699.897 219.992 701.368 228.27C701.461 228.792 702.012 228.795 701.98 228.783C702.281 228.782 702.539 228.566 702.591 228.269C703.34 224 705.442 218.2 711.206 214.814C713.048 213.733 715.162 212.968 717.492 212.54C717.786 212.485 718 212.228 718 211.928C718 211.628 717.785 211.372 717.49 211.318Z" fill="#001665"/>
<path d="M977.49 316.318C976.467 316.133 975.477 315.88 974.545 315.566C967.717 313.27 963.858 307.692 962.588 300.51C962.467 299.83 961.486 299.83 961.365 300.51C959.889 308.855 954.977 314.756 946.505 316.329C945.831 316.454 945.832 317.425 946.506 317.55C954.9 319.102 959.897 324.992 961.368 333.27C961.461 333.792 962.012 333.795 961.98 333.783C962.281 333.782 962.539 333.566 962.591 333.269C963.34 329 965.442 323.2 971.206 319.814C973.048 318.733 975.162 317.968 977.492 317.54C977.786 317.485 978 317.228 978 316.928C978 316.628 977.785 316.372 977.49 316.318Z" fill="#001665"/>
<path d="M879.681 181.869C879.042 181.752 878.423 181.594 877.841 181.399C873.573 179.964 871.161 176.477 870.367 171.989C870.292 171.563 869.679 171.563 869.603 171.989C868.681 177.204 865.611 180.892 860.316 181.875C859.895 181.953 859.895 182.56 860.316 182.638C865.562 183.608 868.686 187.29 869.605 192.464C869.663 192.79 870.007 192.791 869.988 192.784C870.176 192.783 870.337 192.648 870.369 192.463C870.837 189.795 872.151 186.17 875.754 184.053C876.905 183.378 878.226 182.9 879.682 182.632C879.866 182.598 880 182.437 880 182.25C880 182.062 879.865 181.902 879.681 181.869Z" fill="#001665"/>
<path d="M808.232 415.768C809.209 416.744 810.791 416.744 811.768 415.768L827.678 399.858C828.654 398.882 828.654 397.299 827.678 396.322C826.701 395.346 825.118 395.346 824.142 396.322L810 410.464L795.858 396.322C794.882 395.346 793.299 395.346 792.322 396.322C791.346 397.299 791.346 398.882 792.322 399.858L808.232 415.768ZM807.5 314L807.5 414L812.5 414L812.5 314L807.5 314Z" fill="#3E3E3E"/>
<path d="M699.132 84.984C698.152 87.364 696.556 90.332 694.792 92.656L697.844 93.944C699.356 91.76 700.952 88.736 701.96 86.104C703.052 83.36 704.06 79.328 704.452 77.508C704.564 76.892 704.816 75.828 705.012 75.128L701.848 74.484C701.484 77.844 700.364 81.96 699.132 84.984ZM712.936 84.116C714.084 87.112 715.26 90.808 715.988 93.86L719.208 92.824C718.452 90.164 716.968 85.796 715.876 83.136C714.756 80.308 712.908 76.248 711.76 74.148L708.876 75.1C710.08 77.2 711.844 81.204 712.936 84.116ZM722.581 83.556L723.953 86.328C727.649 85.208 731.345 83.584 734.285 81.988V91.732C734.285 92.88 734.201 94.42 734.117 95.036H737.589C737.449 94.42 737.393 92.88 737.393 91.732V80.112C740.165 78.292 742.797 76.136 744.925 73.98L742.573 71.74C740.669 74.008 737.701 76.612 734.789 78.404C731.681 80.336 727.481 82.24 722.581 83.556ZM769.649 70.592L767.773 71.348C768.361 72.244 769.089 73.42 769.621 74.456C769.173 74.512 768.725 74.512 768.361 74.512H754.809C753.885 74.512 752.569 74.4 751.757 74.316V77.452C752.485 77.396 753.605 77.34 754.781 77.34H768.557C768.193 79.888 766.989 83.472 765.057 85.936C762.733 88.848 759.597 91.256 754.109 92.6L756.517 95.232C761.585 93.636 765.085 90.948 767.633 87.644C769.901 84.648 771.217 80.224 771.833 77.368C771.973 76.808 772.113 76.192 772.337 75.744L770.797 74.736L771.861 74.288C771.301 73.224 770.349 71.6 769.649 70.592ZM773.401 69.864L771.497 70.648C772.281 71.628 773.149 73.252 773.765 74.4L775.669 73.56C775.109 72.524 774.073 70.844 773.401 69.864ZM798.517 72.552H795.185C795.269 73.28 795.353 74.12 795.353 75.128V79.944C795.353 84.844 794.989 87.028 793.029 89.268C791.293 91.172 788.969 92.236 786.309 92.908L788.633 95.344C790.677 94.672 793.505 93.384 795.325 91.256C797.397 88.904 798.405 86.524 798.405 80.112V75.128C798.405 74.12 798.461 73.28 798.517 72.552ZM785.525 72.776H782.305C782.389 73.364 782.417 74.344 782.417 74.848V84.228C782.417 85.04 782.333 86.02 782.305 86.496H785.525C785.469 85.936 785.413 84.956 785.413 84.228V74.848C785.413 74.064 785.469 73.364 785.525 72.776ZM818.257 77.648L815.625 78.516C816.269 79.86 817.529 83.36 817.865 84.676L820.497 83.724C820.133 82.492 818.761 78.824 818.257 77.648ZM828.477 79.44L825.397 78.46C825.005 81.988 823.605 85.628 821.673 88.036C819.349 90.92 815.653 93.048 812.489 93.944L814.813 96.324C817.977 95.12 821.449 92.852 824.025 89.548C825.985 87.056 827.189 84.088 827.945 81.092C828.057 80.644 828.225 80.14 828.477 79.44ZM811.733 79.104L809.101 80.056C809.717 81.148 811.173 84.956 811.649 86.44L814.309 85.46C813.777 83.92 812.377 80.392 811.733 79.104ZM851.129 73.56L849.253 74.372C850.205 75.716 850.989 77.06 851.717 78.656L853.677 77.788C853.061 76.472 851.885 74.652 851.129 73.56ZM854.657 72.104L852.781 72.972C853.761 74.288 854.545 75.576 855.357 77.172L857.289 76.22C856.617 74.96 855.413 73.14 854.657 72.104ZM840.741 91.816C840.741 92.88 840.657 94.42 840.517 95.4H843.933C843.821 94.392 843.737 92.684 843.737 91.816C843.737 90.892 843.737 87.028 843.709 83.164C846.789 84.172 851.353 85.936 854.321 87.504L855.553 84.48C852.781 83.108 847.405 81.092 843.709 80C843.709 78.236 843.709 76.668 843.709 75.632C843.709 74.624 843.849 73.42 843.933 72.496H840.489C840.657 73.42 840.741 74.736 840.741 75.632V91.816ZM885.513 70.76H883.049V82.884C883.049 83.248 882.937 83.36 882.489 83.36C882.097 83.388 880.725 83.388 879.297 83.332C879.633 83.976 879.969 85.012 880.081 85.684C882.069 85.684 883.441 85.628 884.337 85.264C885.261 84.872 885.513 84.228 885.513 82.912V70.76ZM880.305 72.104H877.925V81.456H880.305V72.104ZM868.125 77.312V73.896H871.093V77.312H868.125ZM875.881 92.852V89.884H884.113V87.504H875.881V84.816H873.529V79.636H876.441V77.312H873.529V73.896H875.825V71.6H863.281V73.896H865.717V77.312H862.329V79.636H865.493C865.129 81.288 864.233 82.912 861.965 84.2C862.441 84.564 863.337 85.544 863.673 86.02C866.473 84.396 867.565 81.988 867.957 79.636H871.093V85.32H873.193V87.504H864.793V89.884H873.193V92.852H861.937V95.26H886.969V92.852H875.881ZM898.897 73.56V75.436H893.521V73.56H898.897ZM893.521 79.272V77.228H898.897V79.272H893.521ZM901.333 81.176V71.628H890.945V96.212H893.521V81.176H901.333ZM900.661 87.532V84.872H903.993V87.532H900.661ZM909.789 89.688V87.532H906.317V84.872H909.229V82.8H895.649V84.872H898.421V87.532H895.145V89.688H898.337C898.113 91.228 897.329 93.328 895.257 94.588C895.789 94.952 896.573 95.652 896.937 96.128C899.485 94.42 900.381 91.564 900.605 89.688H903.993V95.708H906.317V89.688H909.789ZM905.981 79.328V77.228H911.525V79.328H905.981ZM911.525 73.56V75.436H905.981V73.56H911.525ZM914.101 71.628H903.489V81.232H911.525V92.992C911.525 93.412 911.385 93.552 910.965 93.58C910.517 93.58 909.089 93.58 907.661 93.552C908.053 94.252 908.417 95.428 908.501 96.128C910.601 96.156 912.001 96.072 912.897 95.652C913.821 95.204 914.101 94.448 914.101 93.02V71.628ZM932.441 86.328H928.185V86.132V82.632H932.441V86.328ZM938.041 82.632V81.624C939.189 82.548 940.449 83.304 941.793 83.92C942.185 83.22 942.997 82.184 943.585 81.68C941.821 80.98 940.197 79.972 938.741 78.74C940.057 77.788 941.597 76.556 942.829 75.38L940.897 74.036C940.001 75.044 938.573 76.36 937.285 77.368C936.753 76.78 936.221 76.164 935.745 75.52C936.949 74.624 938.377 73.392 939.581 72.244L937.621 70.872C936.893 71.768 935.717 72.916 934.625 73.868C933.981 72.804 933.449 71.712 933.001 70.564L930.705 71.236C932.021 74.68 933.953 77.76 936.389 80.168H924.657C926.897 78.096 928.773 75.492 929.865 72.356L928.157 71.544L927.681 71.628H920.037V73.896H926.421C925.805 75.016 925.049 76.108 924.181 77.088C923.369 76.304 922.109 75.324 921.101 74.652L919.477 76.024C920.485 76.808 921.773 77.872 922.557 78.712C920.961 80.112 919.169 81.26 917.349 82.016C917.853 82.464 918.609 83.388 918.917 83.976C920.289 83.36 921.633 82.548 922.893 81.624V82.632H925.609V86.104V86.328H919.365V88.736H925.301C924.713 90.836 923.061 92.852 918.749 94.28C919.281 94.728 920.093 95.736 920.401 96.324C925.693 94.504 927.457 91.704 927.989 88.736H932.441V92.572C932.441 95.232 933.085 95.988 935.717 95.988H939.133C941.317 95.988 942.045 94.952 942.269 91.34C941.569 91.2 940.533 90.752 939.945 90.332C939.833 93.104 939.693 93.664 938.881 93.664H936.165C935.269 93.664 935.129 93.524 935.129 92.572V88.736H941.457V86.328H935.129V82.632H938.041ZM966.993 73.7C966.993 72.748 967.777 71.936 968.729 71.936C969.681 71.936 970.493 72.748 970.493 73.7C970.493 74.652 969.681 75.436 968.729 75.436C967.777 75.436 966.993 74.652 966.993 73.7ZM965.509 73.7C965.509 73.952 965.537 74.204 965.593 74.456C965.145 74.512 964.725 74.512 964.389 74.512H950.809C949.885 74.512 948.569 74.4 947.785 74.316V77.452C948.513 77.396 949.633 77.34 950.809 77.34H964.585C964.193 79.888 962.989 83.472 961.085 85.936C958.761 88.848 955.597 91.256 950.137 92.6L952.545 95.232C957.613 93.636 961.113 90.948 963.661 87.644C965.929 84.648 967.217 80.224 967.861 77.368C967.889 77.2 967.945 77.004 967.973 76.836C968.225 76.892 968.477 76.92 968.729 76.92C970.521 76.92 971.977 75.492 971.977 73.7C971.977 71.936 970.521 70.48 968.729 70.48C966.937 70.48 965.509 71.936 965.509 73.7ZM976.289 74.512C976.345 75.24 976.345 76.22 976.345 76.948V90.696C976.345 91.816 976.289 94.056 976.261 94.308H979.313C979.285 94.168 979.285 93.496 979.285 92.74H993.789C993.761 93.524 993.761 94.168 993.733 94.308H996.785C996.785 94.084 996.729 91.676 996.729 90.696V76.948C996.729 76.164 996.729 75.296 996.785 74.54C995.861 74.568 994.853 74.568 994.209 74.568H979.005C978.305 74.568 977.409 74.568 976.289 74.512ZM979.257 77.368H993.789V89.94H979.257V77.368ZM1008.71 90.332C1008.71 93.328 1009.67 94.784 1015.41 94.784C1018.68 94.784 1021.71 94.532 1024.14 94.196L1024.25 91.172C1021.45 91.732 1018.57 92.04 1015.46 92.04C1012.24 92.04 1011.63 91.424 1011.63 89.576V81.652C1016.16 80.728 1020.7 79.832 1021.34 79.692C1020.53 81.26 1018.57 84.116 1016.58 85.936L1019.02 87.364C1021.17 85.208 1023.53 81.54 1024.79 79.216C1025.01 78.796 1025.35 78.264 1025.57 77.928L1023.47 76.276C1023.05 76.528 1022.46 76.696 1021.76 76.864C1020.56 77.144 1016.08 78.04 1011.63 78.908V75.016C1011.63 74.148 1011.71 73 1011.85 72.16H1008.52C1008.66 73 1008.71 74.12 1008.71 75.016V79.44C1005.83 79.972 1003.28 80.42 1001.99 80.588L1002.53 83.528C1003.67 83.276 1006.03 82.772 1008.71 82.24V90.332ZM1051.27 75.156L1049.45 73.812C1048.98 73.98 1048.05 74.092 1047.02 74.092H1036.63C1035.76 74.092 1034.14 73.98 1033.58 73.896V77.06C1034.03 77.032 1035.54 76.892 1036.63 76.892H1046.91C1046.23 79.076 1044.36 82.156 1042.45 84.284C1039.68 87.392 1035.48 90.752 1030.95 92.488L1033.21 94.868C1037.22 92.992 1041 89.996 1043.99 86.804C1046.77 89.38 1049.57 92.46 1051.41 94.98L1053.88 92.796C1052.14 90.668 1048.75 87.056 1045.87 84.592C1047.83 82.072 1049.48 78.908 1050.46 76.612C1050.66 76.136 1051.08 75.436 1051.27 75.156Z" fill="#3E3E3E"/>
<circle cx="650" cy="81" r="22" fill="#001665" stroke="#001665" stroke-width="2"/>
<circle cx="650" cy="81" r="15" stroke="white" stroke-width="2"/>
<path d="M320 325L306 311L292 325" stroke="#3E3E3E" stroke-width="4" stroke-linecap="round" stroke-linejoin="round"/>
<path d="M320 372L306 386L292 372" stroke="#3E3E3E" stroke-width="4" stroke-linecap="round" stroke-linejoin="round"/>
<line x1="306" y1="311" x2="306" y2="386" stroke="#3E3E3E" stroke-width="4"/>
<path d="M415.122 313.242L395.45 311.003L393.211 330.675" stroke="#3E3E3E" stroke-width="4" stroke-linecap="round" stroke-linejoin="round"/>
<path d="M444.385 350.021L442.146 369.693L422.474 367.454" stroke="#3E3E3E" stroke-width="4" stroke-linecap="round" stroke-linejoin="round"/>
<line x1="395.45" y1="311.003" x2="442.146" y2="369.693" stroke="#3E3E3E" stroke-width="4"/>
<path d="M235.887 333.381L233.642 313.709L213.971 315.954" stroke="#3E3E3E" stroke-width="4" stroke-linecap="round" stroke-linejoin="round"/>
<path d="M206.636 370.169L186.964 372.414L184.72 352.742" stroke="#3E3E3E" stroke-width="4" stroke-linecap="round" stroke-linejoin="round"/>
<line x1="233.642" y1="313.709" x2="186.964" y2="372.414" stroke="#3E3E3E" stroke-width="4"/>
<defs>
<clipPath id="clip0">
<rect x="548" y="445" width="535" height="47" rx="23.5" fill="white"/>
</clipPath>
</defs>
</svg>
