<svg viewBox="0 0 653 652" fill="none" xmlns="http://www.w3.org/2000/svg">
<path d="M352.673 0H301.14C135.325 0 0.90625 134.419 0.90625 300.234V351.766C0.90625 517.581 135.325 652 301.14 652H352.673C518.487 652 652.906 517.581 652.906 351.766V300.234C652.906 134.419 518.487 0 352.673 0Z" fill="#FAFBFF"/>
<path d="M336.992 44.7451H316.822C167.059 44.7451 45.6523 166.152 45.6523 315.915V336.085C45.6523 485.848 167.059 607.255 316.822 607.255H336.992C486.755 607.255 608.162 485.848 608.162 336.085V315.915C608.162 166.152 486.755 44.7451 336.992 44.7451Z" fill="#F5F7FF"/>
<path d="M326.908 562.509C457.529 562.509 563.418 456.62 563.418 325.999C563.418 195.378 457.529 89.4893 326.908 89.4893C196.287 89.4893 90.3984 195.378 90.3984 325.999C90.3984 456.62 196.287 562.509 326.908 562.509Z" fill="url(#paint0_linear_3292_922)"/>
<defs>
<linearGradient id="paint0_linear_3292_922" x1="326.909" y1="278.661" x2="425.42" y2="521.742" gradientUnits="userSpaceOnUse">
<stop stop-color="#E8ECFB"/>
<stop offset="1" stop-color="#A2FFFF" stop-opacity="0.19"/>
</linearGradient>
</defs>
</svg>
