<svg width="34" height="34" viewBox="0 0 34 34" fill="none" xmlns="http://www.w3.org/2000/svg">
<circle cx="17" cy="16.6771" r="16" stroke="#EFB027"/>
<g clip-path="url(#clip0_2781_668)">
<path d="M14.161 14.5719C13.9554 14.7416 13.8379 14.9929 13.8379 15.2573V16.057C13.8379 16.2365 13.9815 16.3801 14.161 16.3801C14.3405 16.3801 14.4842 16.2365 14.4842 16.057V15.2573C14.4842 15.1855 14.5168 15.117 14.5723 15.0713C15.2708 14.5001 16.0248 14.1182 16.1716 14.0464C16.2989 13.9844 16.3838 13.8506 16.3838 13.7102V12.5841C16.3838 12.4764 16.3283 12.3752 16.2402 12.3165C16.1847 12.2773 16.1488 12.2153 16.1488 12.1468V10.9783C16.1488 10.5768 16.4752 10.2504 16.8767 10.2504H17.128C17.5294 10.2504 17.8558 10.5768 17.8558 10.9783V12.1468C17.8558 12.2153 17.8232 12.2773 17.7645 12.3165C17.6731 12.3752 17.6208 12.4764 17.6208 12.5841V13.7102C17.6208 13.8538 17.7024 13.9844 17.8297 14.0464C17.9733 14.1182 18.7306 14.5001 19.4291 15.0713C19.4846 15.117 19.5172 15.1855 19.5172 15.2573V16.057C19.5172 16.2365 19.6608 16.3801 19.8403 16.3801C20.0199 16.3801 20.1635 16.2365 20.1635 16.057V15.2573C20.1635 14.9897 20.046 14.7384 19.8403 14.5719C19.2267 14.0692 18.5739 13.7037 18.2671 13.5437V12.731C18.4172 12.5743 18.5021 12.3654 18.5021 12.1435V10.9783C18.5021 10.221 17.8852 9.60413 17.128 9.60413H16.8767C16.1194 9.60413 15.5025 10.221 15.5025 10.9783V12.1468C15.5025 12.3687 15.5874 12.5776 15.7375 12.7343V13.5437C15.4274 13.7037 14.7747 14.0692 14.161 14.5719Z" fill="white"/>
<path d="M24.6769 23.7502C24.8564 23.7502 25.0001 23.6066 25.0001 23.4271V22.6274C25.0001 22.3598 24.8825 22.1084 24.6769 21.942C24.0633 21.4393 23.4105 21.0738 23.1037 20.9138V20.1011C23.2538 19.9444 23.3387 19.7355 23.3387 19.5136V18.3451C23.3387 17.5878 22.7218 16.9709 21.9646 16.9709H21.7132C20.956 16.9709 20.3391 17.5878 20.3391 18.3451V19.5136C20.3391 19.7355 20.424 19.9444 20.5741 20.1011V20.9138C20.2673 21.0738 19.6145 21.4393 19.0009 21.942C18.7952 22.1117 18.6777 22.3598 18.6777 22.6274V23.4271C18.6777 23.6066 18.8213 23.7502 19.0009 23.7502C19.1804 23.7502 19.324 23.6066 19.324 23.4271V22.6274C19.324 22.5556 19.3566 22.4871 19.4121 22.4414C20.1106 21.8669 20.8646 21.485 21.0115 21.4165C21.1388 21.3545 21.2204 21.2206 21.2204 21.0803V19.9542C21.2204 19.8465 21.1649 19.7453 21.0768 19.6866C21.0213 19.6474 20.9854 19.5854 20.9854 19.5168V18.3483C20.9854 17.9469 21.3118 17.6205 21.7132 17.6205H21.9646C22.366 17.6205 22.6924 17.9469 22.6924 18.3483V19.5168C22.6924 19.5854 22.6598 19.6474 22.601 19.6866C22.5096 19.7453 22.4574 19.8465 22.4574 19.9542V21.0803C22.4574 21.2239 22.539 21.3545 22.6663 21.4165C22.8099 21.4883 23.5672 21.8702 24.2657 22.4414C24.3211 22.4871 24.3538 22.5556 24.3538 22.6274V23.4271C24.3538 23.6066 24.5007 23.7502 24.6769 23.7502Z" fill="white"/>
<path d="M14.9992 21.942C14.3856 21.4393 13.7328 21.0738 13.4259 20.9138V20.1011C13.5761 19.9444 13.661 19.7355 13.661 19.5136V18.3451C13.661 17.5878 13.0441 16.9709 12.2868 16.9709H12.0355C11.2783 16.9709 10.6614 17.5878 10.6614 18.3451V19.5136C10.6614 19.7355 10.7462 19.9444 10.8964 20.1011V20.9138C10.5896 21.0738 9.93676 21.4393 9.32313 21.942C9.1175 22.1117 9 22.3598 9 22.6274V23.4271C9 23.6066 9.14361 23.7502 9.32313 23.7502C9.50265 23.7502 9.64627 23.6066 9.64627 23.4271V22.6274C9.64627 22.5556 9.67891 22.4871 9.73439 22.4414C10.4329 21.8669 11.1869 21.485 11.3337 21.4165C11.461 21.3545 11.5426 21.2206 11.5426 21.0803V19.9542C11.5426 19.8465 11.4871 19.7453 11.399 19.6866C11.3435 19.6474 11.3076 19.5854 11.3076 19.5168V18.3483C11.3076 17.9469 11.634 17.6205 12.0355 17.6205H12.2868C12.6883 17.6205 13.0147 17.9469 13.0147 18.3483V19.5168C13.0147 19.5854 12.982 19.6474 12.9233 19.6866C12.8319 19.7453 12.7797 19.8465 12.7797 19.9542V21.0803C12.7797 21.2239 12.8613 21.3545 12.9886 21.4165C13.1322 21.4883 13.8894 21.8669 14.5879 22.4414C14.6434 22.4871 14.6761 22.5556 14.6761 22.6274V23.4271C14.6761 23.6066 14.8197 23.7502 14.9992 23.7502C15.1787 23.7502 15.3223 23.6066 15.3223 23.4271V22.6274C15.3223 22.3598 15.2048 22.1084 14.9992 21.942Z" fill="white"/>
<path d="M18.8384 20.0129C18.8906 20.0423 18.9461 20.0553 18.9983 20.0553C19.1093 20.0553 19.2203 19.9966 19.279 19.8921C19.3671 19.7387 19.3149 19.5396 19.1615 19.4515L17.35 18.407V16.3148C17.35 16.1353 17.2064 15.9917 17.0269 15.9917C16.8473 15.9917 16.7037 16.1353 16.7037 16.3148V18.407L14.8922 19.4548C14.7388 19.5429 14.6833 19.742 14.7747 19.8954C14.8335 19.9999 14.9444 20.0586 15.0554 20.0586C15.1109 20.0586 15.1664 20.0456 15.2154 20.0162L17.0269 18.9684L18.8384 20.0129Z" fill="white"/>
</g>
<defs>
<clipPath id="clip0_2781_668">
<rect width="16" height="16" fill="white" transform="translate(9 8.67712)"/>
</clipPath>
</defs>
</svg>
