<svg width="34" height="34" viewBox="0 0 34 34" fill="none" xmlns="http://www.w3.org/2000/svg">
<circle cx="17" cy="17.389" r="16" stroke="#EFB027"/>
<g clip-path="url(#clip0_2781_804)">
<path d="M23.222 12.0557H10.7776C10.5418 12.0557 10.3157 12.1493 10.149 12.316C9.98232 12.4827 9.88867 12.7088 9.88867 12.9446V21.8334C9.88867 22.0692 9.98232 22.2953 10.149 22.462C10.3157 22.6287 10.5418 22.7223 10.7776 22.7223H17.4442L17.6976 22.4112L18.1109 21.9046L18.0709 21.8334H10.7776V12.9446H23.222V16.749C23.5597 16.9676 23.8598 17.2392 24.1109 17.5534V12.9446C24.1109 12.7088 24.0172 12.4827 23.8505 12.316C23.6838 12.1493 23.4578 12.0557 23.222 12.0557Z" fill="white"/>
<path d="M19.6669 14.7224H12.1113V15.4335H19.6669V14.7224Z" fill="white"/>
<path d="M17.0002 16.5001H12.1113V17.2112H17.0002V16.5001Z" fill="white"/>
<path d="M16.5558 19.6112H12.1113V20.3223H16.5558V19.6112Z" fill="white"/>
<path d="M21.2046 17.0468C20.6358 17.0423 20.079 17.2095 19.6067 17.5265C19.1345 17.8435 18.7689 18.2955 18.5576 18.8236C18.3464 19.3517 18.2994 19.9312 18.4227 20.4864C18.5461 21.0417 18.8341 21.5468 19.249 21.9357L18.3868 22.9891L18.7868 24.5935L20.4135 22.6113C20.9284 22.7635 21.4763 22.7635 21.9912 22.6113L23.6179 24.5935L24.0179 22.9891L23.1557 21.9357C23.5707 21.5468 23.8586 21.0417 23.982 20.4864C24.1053 19.9312 24.0583 19.3517 23.8471 18.8236C23.6358 18.2955 23.2702 17.8435 22.798 17.5265C22.3258 17.2095 21.7689 17.0423 21.2001 17.0468H21.2046ZM21.2046 21.7935C20.8269 21.7883 20.4592 21.6715 20.1477 21.4578C19.8362 21.2441 19.5949 20.9432 19.454 20.5927C19.3131 20.2423 19.2789 19.858 19.3558 19.4882C19.4327 19.1184 19.6172 18.7795 19.8861 18.5143C20.1551 18.2491 20.4964 18.0693 20.8672 17.9975C21.2381 17.9257 21.6219 17.9652 21.9703 18.1109C22.3188 18.2566 22.6164 18.5021 22.8257 18.8166C23.0351 19.131 23.1468 19.5002 23.1468 19.878C23.1421 20.3892 22.9351 20.8777 22.5711 21.2367C22.2072 21.5957 21.7158 21.7959 21.2046 21.7935Z" fill="white"/>
</g>
<defs>
<clipPath id="clip0_2781_804">
<rect width="16" height="16" fill="white" transform="translate(9 9.38904)"/>
</clipPath>
</defs>
</svg>
