<svg width="34" height="34" viewBox="0 0 34 34" fill="none" xmlns="http://www.w3.org/2000/svg">
<circle cx="17" cy="17.389" r="16" stroke="#EFB027"/>
<g clip-path="url(#clip0_2781_630)">
<path d="M17.8674 9.5817C16.9148 9.67978 15.839 10.0691 15.0446 10.607C13.3895 11.7273 12.3737 13.4487 12.2122 15.414C12.1047 16.7273 12.4844 18.2084 13.2154 19.3191C13.3103 19.4647 13.3895 19.5945 13.3895 19.6039C13.3895 19.6166 13.1458 19.8667 12.8516 20.1609L12.3137 20.699L11.709 20.0945L11.1046 19.4868L11.1457 19.3254C11.1964 19.1228 11.1521 18.9171 11.0191 18.7558C10.6521 18.2969 10.1774 18.2969 9.81017 18.7558C9.55705 19.0691 9.63289 19.471 10.0063 19.7684C10.1678 19.9014 10.3734 19.9457 10.5759 19.895L10.7374 19.8539L11.345 20.4583L11.9495 21.0628L10.6204 22.3919L9.29129 23.7211L9.43369 23.8635C9.56969 24.0027 9.57289 24.0123 9.51273 24.0438C9.38617 24.1134 9.21529 24.3254 9.18041 24.4551C9.06009 24.8918 9.49689 25.3286 9.93673 25.2083C10.0633 25.1735 10.2753 25.0025 10.3449 24.8759C10.3766 24.8158 10.386 24.819 10.5252 24.9551L10.6676 25.0975L11.9967 23.7684L13.3258 22.4393L13.9303 23.0438L14.5348 23.6515L14.4937 23.8129C14.443 24.0155 14.4873 24.2211 14.6202 24.3825C14.9873 24.8414 15.462 24.8414 15.8292 24.3825C16.0823 24.0692 16.0065 23.6673 15.633 23.3699C15.4716 23.2369 15.266 23.1926 15.0634 23.2433L14.902 23.2844L14.2943 22.6799L13.6898 22.0755L14.2278 21.5375C14.522 21.2433 14.7753 20.9996 14.7879 20.9996C14.8006 20.9996 14.9271 21.0787 15.0727 21.1737C15.2183 21.2718 15.5063 21.4364 15.7183 21.5377C18.1202 22.718 20.9337 22.2814 22.8609 20.4332C23.4431 19.8731 23.8546 19.3129 24.1996 18.6103C25.054 16.8603 25.054 14.8887 24.1964 13.1324C23.0353 10.743 20.4878 9.31258 17.8674 9.5817ZM19.5921 10.1449C20.0193 10.2239 20.6807 10.4361 21.0542 10.6164C22.4625 11.2937 23.5321 12.5025 24.0257 13.9772C24.9593 16.7684 23.7441 19.778 21.1585 21.0723C19.3767 21.9615 17.2596 21.8983 15.5729 20.8982C15.0791 20.607 15.0761 20.6924 15.5982 20.1671L16.0538 19.7115L16.405 19.895C17.4399 20.4267 18.5063 20.5596 19.595 20.2873C21.2153 19.8822 22.5254 18.5721 22.9305 16.9518C23.2406 15.7081 23.0127 14.4422 22.2754 13.3377C22.0159 12.9452 21.4431 12.3724 21.0508 12.1131C20.2438 11.5751 19.4654 11.3345 18.5159 11.3345C17.7881 11.3345 17.2374 11.4579 16.5918 11.7585C15.6866 12.1825 14.8258 13.0433 14.4018 13.9484C14.1012 14.594 13.9778 15.1446 13.9778 15.8726C13.9778 16.6638 14.1266 17.2745 14.4937 17.9803L14.6772 18.3347L14.2217 18.7907C13.6964 19.3127 13.7818 19.3097 13.4906 18.8159C12.921 17.854 12.6615 16.8065 12.7026 15.6515C12.7596 14.1451 13.345 12.7907 14.3894 11.7463C15.3103 10.8254 16.497 10.2495 17.8294 10.0817C18.2154 10.0342 19.1807 10.0659 19.5921 10.1449ZM19.3548 11.9014C20.1302 12.0755 20.7694 12.4108 21.3137 12.9299C21.9244 13.5153 22.3073 14.202 22.4942 15.0564C22.5732 15.4299 22.5732 16.3191 22.491 16.6956C22.3233 17.4742 21.9815 18.126 21.4593 18.6703C20.8801 19.278 20.1807 19.6671 19.339 19.8476C19.0004 19.9204 18.1079 19.9299 17.7724 19.8635C17.4338 19.7971 17.0351 19.6579 16.7122 19.4964L16.418 19.3476L16.8895 18.8761L17.361 18.4046L17.5762 18.4836C19.1047 19.0406 20.7788 18.1387 21.2156 16.5215C21.2663 16.3254 21.2822 16.1798 21.2822 15.8727C21.2822 15.4423 21.222 15.1449 21.0638 14.7841C20.7884 14.1607 20.2282 13.6006 19.6049 13.3252C19.2441 13.167 18.9466 13.1068 18.5162 13.1068C17.937 13.1068 17.5098 13.2334 17.0162 13.5531C15.937 14.2524 15.4687 15.6196 15.9055 16.8126L15.9846 17.0278L15.5097 17.5027L15.0382 17.9742L14.861 17.6071C14.7503 17.3793 14.6458 17.0945 14.5857 16.8635C14.4938 16.5123 14.4876 16.4553 14.4844 15.9046C14.4812 15.2654 14.5161 15.0375 14.687 14.5311C15.0193 13.547 15.7503 12.7147 16.6966 12.2399C17.0036 12.0881 17.4655 11.9393 17.7884 11.8855C17.9182 11.8665 18.0479 11.8444 18.0732 11.838C18.1934 11.8063 19.1522 11.8571 19.3548 11.9014ZM19.1966 13.6894C19.589 13.8127 19.8358 13.9647 20.1302 14.259C20.4276 14.5564 20.5796 14.8033 20.7062 15.2084C20.7663 15.4078 20.779 15.5123 20.779 15.8731C20.779 16.3572 20.722 16.5977 20.5162 16.9964C20.358 17.2971 19.9402 17.7148 19.6396 17.8731C19.2409 18.0787 19.0002 18.1356 18.5161 18.1356C18.2471 18.1356 18.0414 18.1198 17.9623 18.0945C17.8927 18.0692 17.8167 18.0439 17.7914 18.0375C17.763 18.0281 17.8326 17.9363 18.0002 17.7622L18.2503 17.5027L18.3073 17.1988L18.3642 16.895L18.5668 16.8759C18.8105 16.8539 19.1017 16.7113 19.2441 16.5468C19.4276 16.338 19.51 16.1355 19.51 15.8727C19.5132 15.6607 19.5006 15.6132 19.4055 15.4361C19.2822 15.2115 19.1556 15.0879 18.9182 14.9646C18.7822 14.8918 18.7124 14.8759 18.5162 14.8759C18.3042 14.8759 18.2567 14.8886 18.0796 14.9835C17.7473 15.1638 17.5385 15.4708 17.51 15.8284L17.4942 16.0246L17.1902 16.0819L16.8863 16.1388L16.6268 16.3889C16.4527 16.5566 16.361 16.6262 16.3514 16.5977C16.345 16.5724 16.3198 16.4964 16.2945 16.4268C16.2692 16.3478 16.2534 16.142 16.2534 15.8731C16.2534 15.5123 16.266 15.4078 16.3262 15.2084C16.4527 14.8033 16.6047 14.5566 16.9022 14.259C17.2439 13.914 17.5889 13.7305 18.0762 13.626C18.3199 13.5755 18.9465 13.6102 19.1966 13.6894ZM18.8263 15.4489C19.0826 15.6388 19.0858 16.1039 18.8295 16.2939C18.7852 16.3255 18.6903 16.3603 18.6175 16.3699C18.4625 16.3919 18.4625 16.3951 18.5321 16.0598C18.5606 15.9332 18.5764 15.8255 18.57 15.8193C18.5636 15.8131 18.4561 15.8287 18.3295 15.8572C17.9942 15.9268 17.9972 15.9268 18.0194 15.7718C18.0542 15.5028 18.2567 15.354 18.5574 15.3763C18.6743 15.3823 18.7694 15.4078 18.8263 15.4489ZM17.9338 16.4964C17.9244 16.5281 17.8863 16.7116 17.8484 16.9046L17.782 17.2559L15.554 19.4838L13.3262 21.7116L13.0034 21.3857L12.6775 21.063L14.9052 18.835L17.1332 16.6071L17.5161 16.5281C17.7281 16.4838 17.9116 16.4491 17.9242 16.4459C17.9402 16.4425 17.9433 16.4678 17.9338 16.4964ZM10.6046 18.9742C10.6457 19.0153 10.6679 19.0787 10.6679 19.1641C10.6679 19.3318 10.5825 19.4172 10.4148 19.4172C10.2471 19.4172 10.1617 19.3318 10.1617 19.1641C10.1617 18.9964 10.2471 18.911 10.4148 18.911C10.5001 18.911 10.5634 18.9331 10.6046 18.9742ZM12.6457 21.7591L12.9622 22.0756L12.8262 22.2086L12.6932 22.3446L12.3705 22.0219L12.0478 21.6959L12.1711 21.5694C12.2375 21.4998 12.3041 21.4428 12.3135 21.4428C12.323 21.4427 12.4718 21.5851 12.6457 21.7591ZM12.0129 22.3921L12.3294 22.7086L11.497 23.5409L10.6679 24.3699L10.3452 24.0439L10.0193 23.7212L10.8422 22.8983C11.2946 22.4459 11.6713 22.0756 11.6807 22.0756C11.69 22.0756 11.8388 22.218 12.0129 22.3921ZM15.4148 23.7844C15.4559 23.8255 15.4782 23.8889 15.4782 23.9743C15.4782 24.142 15.3927 24.2275 15.225 24.2275C15.0574 24.2275 14.9719 24.142 14.9719 23.9743C14.9719 23.8067 15.0574 23.7212 15.225 23.7212C15.3103 23.7212 15.3737 23.7433 15.4148 23.7844ZM9.89257 24.6073C9.89257 24.7118 9.88617 24.718 9.78185 24.718C9.69001 24.718 9.66793 24.7054 9.66153 24.6452C9.64249 24.5187 9.67737 24.4743 9.78809 24.487C9.88297 24.4964 9.89257 24.506 9.89257 24.6073Z" fill="white"/>
</g>
<defs>
<clipPath id="clip0_2781_630">
<rect width="16" height="16" fill="white" transform="translate(9 9.38904)"/>
</clipPath>
</defs>
</svg>
