<svg width="48" height="48" viewBox="0 0 48 48" fill="none" xmlns="http://www.w3.org/2000/svg">
<path d="M36.4975 30.6514C36.9175 30.1964 37.1503 29.5997 37.1496 28.9804H37.1466L37.1545 25.8492L39.5845 24.4943L39.6032 24.4853C39.6175 24.4789 39.6317 24.4718 39.646 24.4647L39.6771 24.4482C39.7083 24.4335 39.7385 24.4167 39.7675 24.3979C40.3183 24.0699 40.72 23.5407 40.888 22.922C41.0559 22.3034 40.9768 21.6437 40.6675 21.0822C40.6559 21.0597 40.6435 21.0372 40.63 21.0151L39.0824 18.3184L40.5325 15.8918L40.5554 15.8543L40.5647 15.8389L40.5715 15.8273C40.5794 15.8157 40.5865 15.8033 40.5936 15.7898C40.7563 15.5091 40.8621 15.1992 40.9049 14.8776C40.9477 14.5561 40.9267 14.2292 40.8431 13.9158C40.7595 13.6023 40.615 13.3084 40.4177 13.0509C40.2205 12.7933 39.9744 12.5772 39.6936 12.4148L36.9797 10.8398L37.0225 7.99243C37.0253 7.96514 37.0266 7.93773 37.0266 7.91031V7.89043C37.0265 7.56711 36.9626 7.247 36.8387 6.94837C36.7148 6.64975 36.5332 6.37848 36.3044 6.15005C36.0758 5.92045 35.8041 5.73824 35.5049 5.61385C35.2058 5.48946 34.885 5.42534 34.561 5.42518V5.42818L31.4294 5.42031L30.0752 2.9933C30.0666 2.97268 30.0572 2.95205 30.0467 2.9318C30.0362 2.91155 30.019 2.8808 30.0002 2.85005V2.84518C29.6753 2.27661 29.138 1.86026 28.5063 1.68757C27.8746 1.51489 27.2002 1.59999 26.6312 1.92418L26.6252 1.9268L23.8975 3.49243L21.502 2.06255L21.4754 2.04493L21.4379 2.02093L21.4202 2.01005L21.4105 2.00405C21.3981 1.99618 21.3857 1.9883 21.373 1.9808C21.0923 1.81818 20.7824 1.71245 20.4608 1.66967C20.1393 1.62689 19.8124 1.64789 19.499 1.73147C19.1856 1.81505 18.8917 1.95957 18.6341 2.15678C18.3766 2.35399 18.1604 2.60002 17.998 2.8808L16.423 5.59468L13.5752 5.55006C13.548 5.5473 13.5205 5.54592 13.4931 5.54593H13.4732C12.8429 5.54522 12.2365 5.78689 11.7794 6.22093C11.7617 6.23556 11.7445 6.25131 11.728 6.26781C11.4985 6.49669 11.3165 6.76866 11.1924 7.0681C11.0683 7.36754 11.0046 7.68855 11.005 8.01268H11.008L11.0001 11.1439L8.57012 12.4988L8.55062 12.5082C8.53675 12.5146 8.5225 12.5213 8.509 12.5284L8.45275 12.5581H8.45087L8.43437 12.5671H8.4325L8.42762 12.5697C7.85898 12.8945 7.44256 13.4319 7.26987 14.0636C7.09717 14.6953 7.18233 15.3697 7.50662 15.9387L7.50925 15.9436L9.07487 18.6709L7.6435 21.0664L7.62587 21.0931L7.60187 21.1306L7.591 21.1482L7.58575 21.1572C7.5775 21.1699 7.56962 21.1827 7.56175 21.1947C7.39917 21.4754 7.29348 21.7853 7.25073 22.1069C7.20797 22.4284 7.22898 22.7552 7.31256 23.0686C7.39614 23.382 7.54064 23.6759 7.73783 23.9335C7.93501 24.191 8.181 24.4072 8.46175 24.5697L11.1756 26.1447L11.1329 28.9921C11.13 29.0193 11.1287 29.0467 11.1287 29.0742V29.0941C11.126 29.5892 11.2729 30.0736 11.5502 30.4838L5.52812 40.9126C5.44275 41.0531 5.40368 41.2168 5.41642 41.3807C5.42916 41.5446 5.49308 41.7004 5.59913 41.826C5.70519 41.9516 5.84803 42.0407 6.00748 42.0808C6.16693 42.1208 6.33492 42.1098 6.48775 42.0492L11.8622 39.9177L12.7037 45.6376C12.7282 45.7984 12.802 45.9477 12.9148 46.0649C13.0275 46.1822 13.1739 46.2616 13.3336 46.2923C13.4934 46.323 13.6588 46.3035 13.807 46.2364C13.9552 46.1693 14.079 46.058 14.1614 45.9177L20.2364 35.3937C20.6743 35.4051 21.1073 35.2995 21.4907 35.0877C21.5132 35.0764 21.5357 35.0637 21.5579 35.0502L24.2545 33.5026L26.7171 34.9752C27.0065 35.1557 27.3304 35.2739 27.6681 35.3221L33.8181 45.9721C33.8945 46.12 34.0159 46.24 34.1648 46.3147C34.3137 46.3893 34.4824 46.4149 34.6467 46.3876C34.811 46.3604 34.9625 46.2817 35.0793 46.163C35.1961 46.0443 35.2722 45.8915 35.2967 45.7268L36.1379 40.0054L41.5124 42.1369C41.6636 42.1965 41.8296 42.2076 41.9874 42.1688C42.1452 42.13 42.2871 42.0431 42.3934 41.9202C42.4998 41.7973 42.5654 41.6445 42.5811 41.4827C42.5969 41.3209 42.562 41.1583 42.4814 41.0172L36.4975 30.6514ZM13.9319 43.1764L13.2752 38.7083C13.2572 38.5857 13.2105 38.4691 13.1389 38.368C13.0673 38.2668 12.9729 38.184 12.8633 38.1262C12.7537 38.0685 12.632 38.0374 12.5081 38.0355C12.3842 38.0336 12.2616 38.061 12.1502 38.1154L8.00537 39.7594L12.8076 31.4412C13.0048 31.508 13.2097 31.5493 13.4174 31.5642H13.4297H13.4425H13.4549H13.4676H13.48H13.4924H13.594V31.5676L16.7252 31.5754C18.5054 34.7772 17.95 33.7527 18.127 34.0992C18.2823 34.3842 18.4911 34.6366 18.742 34.8424L13.9319 43.1764ZM28.7736 33.3638L28.7185 33.4407C28.656 33.5186 28.5807 33.5853 28.4957 33.6379C28.3929 33.7023 28.2781 33.7453 28.1582 33.7643C28.1335 33.7681 28.1087 33.7711 28.0832 33.7726C27.6411 33.8044 27.7037 33.6976 24.6659 31.9182C24.5462 31.8466 24.4097 31.8082 24.2703 31.8069C24.1309 31.8056 23.9937 31.8414 23.8727 31.9107L20.7482 33.7039H20.746C20.6432 33.7621 20.53 33.7995 20.4127 33.8138C20.2955 33.8282 20.1765 33.8192 20.0627 33.7876C19.8363 33.7276 19.6429 33.5801 19.525 33.3777L19.5239 33.3751L19.5212 33.3702C19.4357 33.2101 19.4556 33.2464 19.4462 33.2318L17.8754 30.4141C17.8051 30.2875 17.7011 30.1829 17.575 30.1117C17.449 30.0406 17.3057 30.0057 17.161 30.0109L13.5944 30.0001V29.9971H13.5377C13.3985 29.9887 13.2631 29.9479 13.1425 29.8778H13.1406H13.1384L13.1342 29.8752H13.1316L13.1252 29.8639L13.1215 29.8617C13.0858 29.8391 13.0517 29.814 13.0195 29.7867C13.0002 29.7707 12.982 29.7539 12.9647 29.7364C12.8815 29.6537 12.8155 29.5553 12.7705 29.4469C12.7254 29.3385 12.7022 29.2223 12.7022 29.1049C12.7022 29.0847 12.7022 29.0641 12.7 29.0442L12.7502 25.7131C12.7519 25.5739 12.7166 25.4368 12.6478 25.3158C12.579 25.1948 12.4792 25.0943 12.3587 25.0246L9.24625 23.2178C9.14426 23.1588 9.0549 23.0802 8.98327 22.9866C8.91164 22.893 8.85914 22.7863 8.82878 22.6724C8.79841 22.5585 8.79077 22.4398 8.8063 22.323C8.82182 22.2062 8.8602 22.0935 8.91925 21.9916L8.92562 21.9799L8.94962 21.9424C8.96312 21.9214 8.97512 21.8997 8.98712 21.8776L10.6562 19.0876C10.7278 18.968 10.7663 18.8316 10.7676 18.6922C10.769 18.5529 10.7333 18.4158 10.6641 18.2948L8.89037 15.2041C8.88025 15.1842 8.86937 15.1666 8.85812 15.1467C8.75075 14.9448 8.72425 14.7096 8.78401 14.4889C8.84377 14.2681 8.98531 14.0784 9.17987 13.9583C9.2005 13.9474 9.22037 13.9358 9.23987 13.9234L9.26462 13.9096C9.28112 13.9017 9.29762 13.8934 9.31337 13.8844L12.1634 12.2967C12.2899 12.2264 12.3945 12.1224 12.4657 11.9963C12.5368 11.8703 12.5717 11.727 12.5665 11.5823L12.5755 8.01718H12.5785C12.5785 7.89981 12.6016 7.7836 12.6467 7.67522C12.6917 7.56684 12.7578 7.46844 12.841 7.38568C12.8507 7.3763 12.8597 7.36656 12.8691 7.35643C13.0344 7.20644 13.2497 7.12365 13.4729 7.1243C13.4931 7.1243 13.5137 7.12431 13.5336 7.12206L16.8617 7.17193C17.0011 7.17346 17.1383 7.13787 17.2593 7.0688C17.3803 6.99973 17.4807 6.89967 17.5502 6.77893L19.357 3.66643C19.4763 3.46052 19.6725 3.31043 19.9025 3.24917C20.1324 3.18792 20.3773 3.22052 20.5832 3.3398L20.5945 3.34618L20.632 3.37018C20.6534 3.38368 20.6747 3.39568 20.6969 3.40768L23.488 5.0753C23.6076 5.14682 23.744 5.18525 23.8833 5.18663C24.0226 5.18801 24.1598 5.15231 24.2808 5.08318L27.3715 3.30905C27.391 3.29893 27.409 3.28843 27.4289 3.2768C27.6308 3.16946 27.866 3.14302 28.0868 3.20285C28.3075 3.26269 28.4972 3.4043 28.6172 3.59893C28.6247 3.61355 28.633 3.62818 28.6416 3.64243L28.6484 3.65518L28.6649 3.68518V3.6878C28.6774 3.71354 28.6913 3.73858 28.7065 3.7628L30.2774 6.58093C30.3477 6.70747 30.4516 6.8121 30.5777 6.88324C30.7038 6.95439 30.8471 6.98928 30.9917 6.98406L34.5569 6.99306V6.99605C34.674 6.9954 34.79 7.01789 34.8984 7.06223C35.0068 7.10657 35.1053 7.17189 35.1884 7.25443C35.2716 7.33721 35.3376 7.43562 35.3826 7.54399C35.4277 7.65236 35.4509 7.76857 35.4509 7.88593C35.4509 7.90655 35.4509 7.92681 35.4531 7.94668L35.4032 11.2748C35.4016 11.4139 35.4369 11.551 35.5056 11.672C35.5744 11.793 35.674 11.8935 35.7944 11.9633L38.9069 13.7704C39.1125 13.8898 39.2624 14.0859 39.3236 14.3157C39.3847 14.5455 39.3522 14.7901 39.2331 14.9959L39.2226 15.0143L39.2012 15.0477L39.1847 15.0751L37.4972 17.9003C37.4259 18.02 37.3876 18.1565 37.3862 18.2958C37.3848 18.4351 37.4204 18.5724 37.4894 18.6934L39.2826 21.8179V21.8202C39.3997 22.0271 39.4301 22.2719 39.3673 22.5011C39.3045 22.7304 39.1535 22.9255 38.9474 23.0438L38.9421 23.0472L38.9129 23.0641L38.8877 23.0779C38.8712 23.0858 38.8547 23.0941 38.8386 23.1031L35.9905 24.6908C35.8624 24.762 35.7569 24.8675 35.6857 24.9956C35.6145 25.1236 35.5806 25.269 35.5877 25.4153L35.5787 28.9804H35.5757C35.5758 29.0978 35.5526 29.214 35.5076 29.3224C35.4625 29.4308 35.3965 29.5292 35.3132 29.6119C35.2199 29.7028 35.1085 29.7731 34.9863 29.8183C34.8641 29.8635 34.7338 29.8826 34.6037 29.8744L31.3412 29.8253C31.1942 29.8148 31.0471 29.8457 30.9168 29.9147C30.7864 29.9836 30.6781 30.0878 30.604 30.2153L28.7736 33.3638ZM35.7936 38.1814C35.6836 38.1379 35.5651 38.1198 35.4471 38.1285C35.3291 38.1371 35.2145 38.1724 35.112 38.2316C35.0095 38.2907 34.9218 38.3723 34.8552 38.4702C34.7887 38.5681 34.7452 38.6797 34.7279 38.7968H34.7252L34.0686 43.2634L29.2945 34.9932L29.3267 34.9733C29.5698 34.8217 29.7845 34.6288 29.9613 34.4033C30.0426 34.2991 31.8486 31.2004 31.7309 31.4033C32.5724 31.4168 33.5684 31.4322 34.813 31.4464H34.8269C34.9261 31.4407 35.0249 31.4289 35.1227 31.4112L39.9951 39.8487L35.7936 38.1814Z" fill="#001665"/>
<path d="M34.7511 18.4977C34.7512 16.0281 33.8951 13.6349 32.3284 11.7258C30.7618 9.81668 28.5817 8.50985 26.1596 8.02796C23.7375 7.54607 21.2232 7.91894 19.0451 9.08303C16.8671 10.2471 15.1601 12.1304 14.215 14.412C13.2698 16.6936 13.1451 19.2323 13.8619 21.5956C14.5788 23.9589 16.0929 26.0005 18.1463 27.3725C20.1997 28.7446 22.6653 29.3622 25.123 29.1201C27.5807 28.878 29.8785 27.7913 31.6247 26.045C32.6174 25.055 33.4046 23.8786 33.9411 22.5834C34.4776 21.2882 34.7529 19.8997 34.7511 18.4977ZM24.0756 27.596C21.9709 27.5958 19.9313 26.8659 18.3045 25.5305C16.6776 24.1952 15.5641 22.3371 15.1536 20.2728C14.7431 18.2085 15.0611 16.0657 16.0533 14.2096C17.0456 12.3534 18.6507 10.8988 20.5952 10.0934C22.5398 9.28801 24.7034 9.18177 26.7174 9.79278C28.7315 10.4038 30.4714 11.6942 31.6407 13.4442C32.81 15.1942 33.3364 17.2955 33.1301 19.3901C32.9238 21.4847 31.9977 23.443 30.5095 24.9312C29.6655 25.7774 28.6626 26.4484 27.5585 26.9057C26.4543 27.363 25.2707 27.5976 24.0756 27.596Z" fill="#001665"/>
<path d="M29.9222 16.0127C29.7761 15.8661 29.6025 15.7497 29.4113 15.6703C29.2201 15.5909 29.0151 15.55 28.8081 15.55V15.553L26.3394 15.5579L25.5966 13.2557L25.5872 13.2239C25.5108 12.9818 25.3776 12.7616 25.1987 12.5815C25.0423 12.4241 24.8543 12.3016 24.6471 12.2222C24.5921 12.1973 24.5345 12.1788 24.4753 12.1671C24.1002 12.0689 23.7021 12.1124 23.357 12.2891C23.0119 12.4659 22.744 12.7635 22.6044 13.1252C22.5832 13.1721 22.5666 13.221 22.5549 13.2711L21.8173 15.5564L19.4616 15.5534C19.119 15.5294 18.7779 15.6176 18.4899 15.8046C18.2019 15.9916 17.9826 16.2673 17.865 16.5899C17.7475 16.9126 17.7382 17.2648 17.8385 17.5932C17.9388 17.9216 18.1432 18.2085 18.421 18.4105L20.4186 19.8557L19.6521 22.2002C19.6438 22.2254 19.6371 22.2505 19.6315 22.2752C19.5448 22.5905 19.5585 22.925 19.6705 23.2322C19.7826 23.5394 19.9875 23.8041 20.2567 23.9895C20.526 24.175 20.8464 24.2721 21.1733 24.2673C21.5003 24.2625 21.8176 24.1561 22.0813 23.9627L24.076 22.5077L25.9776 23.8952C26.1832 24.0694 26.4299 24.1884 26.6942 24.241C26.9565 24.2922 27.2276 24.2757 27.4817 24.193H27.4851C27.6822 24.1292 27.8649 24.0271 28.0226 23.8927C28.1803 23.7582 28.31 23.5941 28.4043 23.4095C28.4986 23.2249 28.5555 23.0236 28.572 22.817C28.5885 22.6104 28.5641 22.4026 28.5002 22.2055V22.2017L27.7333 19.8572L29.6991 18.4341L29.7073 18.4289C29.7437 18.4047 29.7779 18.3774 29.8097 18.3475C29.9769 18.2098 30.1141 18.0393 30.2128 17.8465H30.2102C30.3632 17.5501 30.4177 17.2127 30.3659 16.8833C30.3141 16.5538 30.1587 16.2494 29.9222 16.0142V16.0127ZM28.8122 17.134H28.8096V17.1359C28.7946 17.1467 28.7799 17.1584 28.7661 17.17L26.3492 18.9186C26.2104 19.0193 26.1082 19.1626 26.0583 19.3267C26.0083 19.4907 26.0133 19.6666 26.0725 19.8276L26.992 22.6401C26.9965 22.6577 27.0017 22.6754 27.0073 22.6926V22.6945L26.9991 22.6952L26.9946 22.693C26.9663 22.669 26.9363 22.6471 26.905 22.6274L24.5424 20.9024C24.4064 20.8034 24.2422 20.7508 24.074 20.7523C23.9058 20.7538 23.7426 20.8093 23.6083 20.9106L21.1633 22.6941C21.1608 22.6949 21.158 22.6949 21.1555 22.6941L21.1521 22.6919V22.6892V22.6825C21.1561 22.6697 21.1598 22.6572 21.1633 22.645L22.0948 19.7976C22.146 19.6395 22.1459 19.4693 22.0944 19.3112C22.0429 19.1532 21.9428 19.0155 21.8083 18.9179L19.3442 17.1377L19.3397 17.1336C19.3398 17.1311 19.3408 17.1288 19.3423 17.1269C19.3453 17.1263 19.3484 17.1263 19.3513 17.1269C19.3878 17.1294 19.4244 17.1294 19.4608 17.1269L22.3888 17.1325C22.5556 17.1323 22.718 17.079 22.8525 16.9803C22.9869 16.8816 23.0864 16.7426 23.1366 16.5835L24.0696 13.6926C24.0705 13.6905 24.0721 13.6888 24.0741 13.6877C24.0757 13.6873 24.0774 13.6873 24.0789 13.6877H24.082V13.69C24.0868 13.7057 24.0921 13.7207 24.0981 13.7357L25.0168 16.582C25.0692 16.7463 25.1742 16.8887 25.3155 16.9874C25.4569 17.0861 25.6268 17.1355 25.7991 17.128L28.804 17.1224V17.1254H28.8081V17.1287C28.8081 17.1347 28.8133 17.1287 28.8111 17.1314L28.8122 17.134Z" fill="#001665"/>
</svg>
