<svg width="48" height="61" viewBox="0 0 48 61" fill="none" xmlns="http://www.w3.org/2000/svg">
<path fill="#001665" d="M43.9373 13.5478C44.3976 13.5484 44.8487 13.3877 45.24 13.0836C45.6313 12.7796 45.947 12.3443 46.1517 11.8271C46.3563 11.3098 46.4416 10.731 46.3981 10.1561C46.3545 9.58118 46.1837 9.03298 45.9051 8.57337C45.6264 8.11376 45.2509 7.76103 44.821 7.55498C44.3911 7.34894 43.9239 7.29778 43.472 7.40728C43.0201 7.51678 42.6017 7.78258 42.2638 8.17469C41.9259 8.5668 41.6821 9.0696 41.5598 9.62637H26.831V7.72001C26.8309 7.50164 26.7617 7.29224 26.6387 7.13783C26.5156 6.98341 26.3487 6.89661 26.1747 6.89648H21.8247C21.6507 6.89661 21.4838 6.98341 21.3608 7.13783C21.2377 7.29224 21.1686 7.50164 21.1685 7.72001V9.76801H6.46847C6.33697 9.03686 5.99867 8.39033 5.51631 7.94828C5.03394 7.50623 4.44022 7.29864 3.84519 7.36399C3.25017 7.42934 2.69421 7.7632 2.28036 8.30368C1.86652 8.84416 1.62287 9.5546 1.59457 10.3033C1.56627 11.052 1.75525 11.7882 2.12647 12.3754C2.4977 12.9626 3.02598 13.361 3.61341 13.4967C4.20083 13.6325 4.80755 13.4963 5.32109 13.1136C5.83463 12.7308 6.22016 12.1273 6.40622 11.4151H16.1967C9.78422 14.4739 5.08922 21.1859 4.00435 29.3967H2.24972C2.0757 29.3968 1.90884 29.4837 1.78579 29.6381C1.66274 29.7925 1.59357 30.0019 1.59347 30.2203V35.6791C1.59347 35.8975 1.66261 36.107 1.78568 36.2614C1.90875 36.4158 2.07567 36.5026 2.24972 36.5026H6.59972C6.77377 36.5026 6.94069 36.4158 7.06376 36.2614C7.18683 36.107 7.25597 35.8975 7.25597 35.6791V30.2203C7.25587 30.0019 7.1867 29.7925 7.06365 29.6381C6.9406 29.4837 6.77374 29.3968 6.59972 29.3967H5.33222C6.66385 20.0941 13.0253 12.9097 21.1685 11.52V13.1788C21.1685 13.3973 21.2376 13.6067 21.3607 13.7612C21.4838 13.9156 21.6507 14.0024 21.8247 14.0024H22.7716L12.8315 32.6588C12.7675 32.7791 12.7298 32.9184 12.7223 33.0627C12.7148 33.207 12.7377 33.3513 12.7887 33.481L17.333 45.0381C16.4803 45.9758 15.7978 47.132 15.3317 48.4289C14.8655 49.7258 14.6265 51.1331 14.6307 52.5558C14.6391 52.7669 14.7118 52.9659 14.8338 53.1117C14.9558 53.2574 15.1178 53.3387 15.2862 53.3388H32.7132C32.8817 53.3389 33.0437 53.2576 33.1657 53.1118C33.2878 52.966 33.3604 52.7669 33.3687 52.5558C33.373 51.1331 33.1339 49.7258 32.6678 48.4289C32.2016 47.132 31.5192 45.9758 30.6665 45.0381L35.2122 33.4786C35.2632 33.3489 35.2861 33.2047 35.2786 33.0604C35.2711 32.916 35.2335 32.7768 35.1695 32.6565L25.2278 14.0024H26.1747C26.3488 14.0024 26.5157 13.9156 26.6388 13.7612C26.7618 13.6067 26.831 13.3973 26.831 13.1788V11.52C34.9741 12.9097 41.3356 20.0955 42.6672 29.3967H41.3997C41.2257 29.3968 41.0588 29.4837 40.9358 29.6381C40.8127 29.7925 40.7436 30.0019 40.7435 30.2203V35.6791C40.7435 35.8975 40.8126 36.107 40.9357 36.2614C41.0588 36.4158 41.2257 36.5026 41.3997 36.5026H45.7497C45.9238 36.5026 46.0907 36.4158 46.2138 36.2614C46.3368 36.107 46.406 35.8975 46.406 35.6791V30.2203C46.4059 30.0019 46.3367 29.7925 46.2137 29.6381C46.0906 29.4837 45.9237 29.3968 45.7497 29.3967H43.9951C42.8933 21.0565 38.0671 14.2621 31.4997 11.2734H41.5606C41.7044 11.9263 42.0147 12.502 42.4439 12.9127C42.8731 13.3234 43.3976 13.5465 43.9373 13.5478ZM5.94347 34.8555H2.90597V31.0438H5.94347V34.8555ZM45.0935 34.8555H42.056V31.0438H45.0935V34.8555ZM43.9373 8.9986C44.1661 8.9986 44.3897 9.08372 44.5799 9.24319C44.7701 9.40266 44.9183 9.62932 45.0058 9.89451C45.0933 10.1597 45.1162 10.4515 45.0716 10.733C45.027 11.0146 44.9169 11.2731 44.7551 11.4761C44.5934 11.6791 44.3873 11.8173 44.163 11.8733C43.9386 11.9293 43.7061 11.9006 43.4948 11.7907C43.2835 11.6809 43.1028 11.4949 42.9758 11.2562C42.8487 11.0175 42.7808 10.7369 42.7808 10.4499C42.7811 10.0651 42.9031 9.69618 43.1199 9.42409C43.3367 9.152 43.6307 8.99898 43.9373 8.9986ZM4.0621 11.9007C3.83335 11.9007 3.60974 11.8156 3.41954 11.6561C3.22935 11.4966 3.08112 11.2699 2.9936 11.0047C2.90607 10.7395 2.88319 10.4477 2.92785 10.1661C2.9725 9.88458 3.08268 9.62599 3.24446 9.42304C3.40624 9.22009 3.61234 9.08191 3.83671 9.02596C4.06107 8.97001 4.29361 8.99882 4.50493 9.10874C4.71625 9.21866 4.89684 9.40475 5.02387 9.64347C5.15091 9.8822 5.21867 10.1628 5.2186 10.4499C5.2183 10.8346 5.09635 11.2035 4.87951 11.4755C4.66268 11.7476 4.36869 11.9005 4.0621 11.9007ZM23.9997 30.2513C24.425 30.2513 24.8407 30.4096 25.1943 30.706C25.5479 31.0025 25.8235 31.4239 25.9863 31.9169C26.149 32.41 26.1916 32.9525 26.1087 33.4759C26.0257 33.9993 25.821 34.4801 25.5203 34.8575C25.2196 35.2349 24.8365 35.4919 24.4194 35.5961C24.0024 35.7003 23.57 35.6469 23.1771 35.4428C22.7842 35.2386 22.4484 34.8928 22.212 34.4491C21.9757 34.0055 21.8495 33.4838 21.8495 32.9501C21.85 32.2346 22.0767 31.5486 22.4798 31.0426C22.8829 30.5367 23.4296 30.2521 23.9997 30.2513ZM32.0307 51.6918H15.9721C16.0573 50.604 16.3135 49.5482 16.7259 48.5854C17.1383 47.6227 17.6987 46.7721 18.3747 46.0828H29.6247C30.3035 46.7693 30.866 47.6191 31.2792 48.5823C31.6924 49.5456 31.9479 50.6028 32.0307 51.6918ZM29.4398 44.4358H18.5596L14.1331 33.1765L23.3435 15.8923V28.6852C22.4978 28.89 21.7433 29.483 21.2272 30.3485C20.7112 31.2139 20.4707 32.2895 20.5527 33.3655C20.6347 34.4415 21.0333 35.4404 21.6706 36.1674C22.308 36.8944 23.1384 37.2973 23.9997 37.2973C24.861 37.2973 25.6914 36.8944 26.3288 36.1674C26.9662 35.4404 27.3648 34.4415 27.4468 33.3655C27.5287 32.2895 27.2882 31.2139 26.7722 30.3485C26.2562 29.483 25.5017 28.89 24.656 28.6852V15.8923L33.8663 33.1765L29.4398 44.4358ZM25.5185 12.3553H22.481V8.54354H25.5185V12.3553Z" />
</svg>
