<svg width="125" height="70" viewBox="0 0 125 70" fill="none" xmlns="http://www.w3.org/2000/svg">
<mask id="mask0_2807_4060" style="mask-type:alpha" maskUnits="userSpaceOnUse" x="0" y="0" width="125" height="70">
<path d="M78.0777 21.0205C72.2594 21.0205 67.9375 25.6397 67.9375 31.3506C67.9375 36.8919 72.1762 41.5967 78.0777 41.5967C83.9788 41.5967 88.2178 36.8935 88.2178 31.3506C88.2162 25.6397 83.896 21.0205 78.0777 21.0205Z" fill="#DC143C"/>
<path d="M43.4336 61.2078L62.6674 69.9695C62.6674 69.9695 70.2753 66.5038 81.5859 61.35C75.4182 59.4544 68.9182 58.4482 62.2586 58.4482C55.7808 58.4502 49.4535 59.408 43.4336 61.2078Z" fill="#DC143C"/>
<path d="M62.2603 0.969727C57.0104 0.969727 51.9015 1.57989 46.9958 2.72657V13.1269H53.9775V21.8614H46.9958V49.4906H36.8556V21.8614H32.8661V13.1269H36.8556V5.98138C20.6361 12.6505 7.55971 25.5036 0.5 41.6527L38.3398 58.8918C45.2216 56.5676 54.7578 55.0027 62.2603 55.0027C69.9426 55.0027 79.5437 56.6653 86.5626 59.0907C97.8559 53.9452 110.077 48.3783 124.158 41.9629C113.754 17.8387 89.9619 0.969727 62.2603 0.969727ZM92.6233 45.5415C89.5496 48.3971 84.8934 50.6645 78.0797 50.6645C71.266 50.6645 66.6095 48.3971 63.5361 45.5415C59.9637 42.2663 57.4686 37.227 57.4686 31.3498C57.4686 25.3871 59.9637 20.3497 63.5361 17.0725C66.6095 14.217 71.266 11.9494 78.0797 11.9494C84.8934 11.9494 89.5496 14.217 92.6233 17.0725C96.1973 20.3477 98.6908 25.3871 98.6908 31.3498C98.6908 37.2289 96.1973 42.2663 92.6233 45.5415Z" fill="#DC143C"/>
<circle cx="78.1419" cy="31.3577" r="22.8606" fill="#DC143C"/>
<circle cx="46.7786" cy="31.3576" r="22.8606" fill="#DC143C"/>
<path d="M109.787 30.8C109.787 47.2749 88.5365 43.9031 62.323 43.9031C36.1096 43.9031 14.8594 47.2749 14.8594 30.8C14.8594 14.3252 36.1096 0.969727 62.323 0.969727C88.5365 0.969727 109.787 14.3252 109.787 30.8Z" fill="#DC143C"/>
</mask>
<g mask="url(#mask0_2807_4060)">
<circle cx="2.42188" cy="2.96973" r="1" fill="#00B6B6"/>
<circle cx="9.42188" cy="2.96973" r="1" fill="#00B6B6"/>
<circle cx="16.4219" cy="2.96973" r="1" fill="#00B6B6"/>
<circle cx="23.4219" cy="2.96973" r="1" fill="#00B6B6"/>
<circle cx="30.4219" cy="2.96973" r="1" fill="#00B6B6"/>
<circle cx="37.4219" cy="2.96973" r="1" fill="#00B6B6"/>
<circle cx="44.4219" cy="2.96973" r="1" fill="#00B6B6"/>
<circle cx="51.4219" cy="2.96973" r="1" fill="#00B6B6"/>
<circle cx="58.4219" cy="2.96973" r="1" fill="#00B6B6"/>
<circle cx="65.4219" cy="2.96973" r="1" fill="#00B6B6"/>
<circle cx="72.4219" cy="2.96973" r="1" fill="#00B6B6"/>
<circle cx="79.4219" cy="2.96973" r="1" fill="#00B6B6"/>
<circle cx="86.4219" cy="2.96973" r="1" fill="#00B6B6"/>
<circle cx="93.4219" cy="2.96973" r="1" fill="#00B6B6"/>
<circle cx="100.422" cy="2.96973" r="1" fill="#00B6B6"/>
<circle cx="107.422" cy="2.96973" r="1" fill="#00B6B6"/>
<circle cx="114.422" cy="2.96973" r="1" fill="#00B6B6"/>
<circle cx="121.422" cy="2.96973" r="1" fill="#00B6B6"/>
<circle cx="2.42188" cy="8.96973" r="1" fill="#00B6B6"/>
<circle cx="9.42188" cy="8.96973" r="1" fill="#00B6B6"/>
<circle cx="16.4219" cy="8.96973" r="1" fill="#00B6B6"/>
<circle cx="23.4219" cy="8.96973" r="1" fill="#00B6B6"/>
<circle cx="30.4219" cy="8.96973" r="1" fill="#00B6B6"/>
<circle cx="37.4219" cy="8.96973" r="1" fill="#00B6B6"/>
<circle cx="44.4219" cy="8.96973" r="1" fill="#00B6B6"/>
<circle cx="51.4219" cy="8.96973" r="1" fill="#00B6B6"/>
<circle cx="58.4219" cy="8.96973" r="1" fill="#00B6B6"/>
<circle cx="65.4219" cy="8.96973" r="1" fill="#00B6B6"/>
<circle cx="72.4219" cy="8.96973" r="1" fill="#00B6B6"/>
<circle cx="79.4219" cy="8.96973" r="1" fill="#00B6B6"/>
<circle cx="86.4219" cy="8.96973" r="1" fill="#00B6B6"/>
<circle cx="93.4219" cy="8.96973" r="1" fill="#00B6B6"/>
<circle cx="100.422" cy="8.96973" r="1" fill="#00B6B6"/>
<circle cx="107.422" cy="8.96973" r="1" fill="#00B6B6"/>
<circle cx="114.422" cy="8.96973" r="1" fill="#00B6B6"/>
<circle cx="121.422" cy="8.96973" r="1" fill="#00B6B6"/>
<circle cx="2.42188" cy="14.9697" r="1" fill="#00B6B6"/>
<circle cx="9.42188" cy="14.9697" r="1" fill="#00B6B6"/>
<circle cx="16.4219" cy="14.9697" r="1" fill="#00B6B6"/>
<circle cx="23.4219" cy="14.9697" r="1" fill="#00B6B6"/>
<circle cx="30.4219" cy="14.9697" r="1" fill="#00B6B6"/>
<circle cx="37.4219" cy="14.9697" r="1" fill="#00B6B6"/>
<circle cx="44.4219" cy="14.9697" r="1" fill="#00B6B6"/>
<circle cx="51.4219" cy="14.9697" r="1" fill="#00B6B6"/>
<circle cx="58.4219" cy="14.9697" r="1" fill="#00B6B6"/>
<circle cx="65.4219" cy="14.9697" r="1" fill="#00B6B6"/>
<circle cx="72.4219" cy="14.9697" r="1" fill="#00B6B6"/>
<circle cx="79.4219" cy="14.9697" r="1" fill="#00B6B6"/>
<circle cx="86.4219" cy="14.9697" r="1" fill="#00B6B6"/>
<circle cx="93.4219" cy="14.9697" r="1" fill="#00B6B6"/>
<circle cx="100.422" cy="14.9697" r="1" fill="#00B6B6"/>
<circle cx="107.422" cy="14.9697" r="1" fill="#00B6B6"/>
<circle cx="114.422" cy="14.9697" r="1" fill="#00B6B6"/>
<circle cx="121.422" cy="14.9697" r="1" fill="#00B6B6"/>
<circle cx="2.42188" cy="20.9697" r="1" fill="#00B6B6"/>
<circle cx="9.42188" cy="20.9697" r="1" fill="#00B6B6"/>
<circle cx="16.4219" cy="20.9697" r="1" fill="#00B6B6"/>
<circle cx="23.4219" cy="20.9697" r="1" fill="#00B6B6"/>
<circle cx="30.4219" cy="20.9697" r="1" fill="#00B6B6"/>
<circle cx="37.4219" cy="20.9697" r="1" fill="#00B6B6"/>
<circle cx="44.4219" cy="20.9697" r="1" fill="#00B6B6"/>
<circle cx="51.4219" cy="20.9697" r="1" fill="#00B6B6"/>
<circle cx="58.4219" cy="20.9697" r="1" fill="#00B6B6"/>
<circle cx="65.4219" cy="20.9697" r="1" fill="#00B6B6"/>
<circle cx="72.4219" cy="20.9697" r="1" fill="#00B6B6"/>
<circle cx="79.4219" cy="20.9697" r="1" fill="#00B6B6"/>
<circle cx="86.4219" cy="20.9697" r="1" fill="#00B6B6"/>
<circle cx="93.4219" cy="20.9697" r="1" fill="#00B6B6"/>
<circle cx="100.422" cy="20.9697" r="1" fill="#00B6B6"/>
<circle cx="107.422" cy="20.9697" r="1" fill="#00B6B6"/>
<circle cx="114.422" cy="20.9697" r="1" fill="#00B6B6"/>
<circle cx="121.422" cy="20.9697" r="1" fill="#00B6B6"/>
<circle cx="2.42188" cy="26.9697" r="1" fill="#00B6B6"/>
<circle cx="9.42188" cy="26.9697" r="1" fill="#00B6B6"/>
<circle cx="16.4219" cy="26.9697" r="1" fill="#00B6B6"/>
<circle cx="23.4219" cy="26.9697" r="1" fill="#00B6B6"/>
<circle cx="30.4219" cy="26.9697" r="1" fill="#00B6B6"/>
<circle cx="37.4219" cy="26.9697" r="1" fill="#00B6B6"/>
<circle cx="44.4219" cy="26.9697" r="1" fill="#00B6B6"/>
<circle cx="51.4219" cy="26.9697" r="1" fill="#00B6B6"/>
<circle cx="58.4219" cy="26.9697" r="1" fill="#00B6B6"/>
<circle cx="65.4219" cy="26.9697" r="1" fill="#00B6B6"/>
<circle cx="72.4219" cy="26.9697" r="1" fill="#00B6B6"/>
<circle cx="79.4219" cy="26.9697" r="1" fill="#00B6B6"/>
<circle cx="86.4219" cy="26.9697" r="1" fill="#00B6B6"/>
<circle cx="93.4219" cy="26.9697" r="1" fill="#00B6B6"/>
<circle cx="100.422" cy="26.9697" r="1" fill="#00B6B6"/>
<circle cx="107.422" cy="26.9697" r="1" fill="#00B6B6"/>
<circle cx="114.422" cy="26.9697" r="1" fill="#00B6B6"/>
<circle cx="121.422" cy="26.9697" r="1" fill="#00B6B6"/>
<circle cx="2.42188" cy="32.9697" r="1" fill="#00B6B6"/>
<circle cx="9.42188" cy="32.9697" r="1" fill="#00B6B6"/>
<circle cx="16.4219" cy="32.9697" r="1" fill="#00B6B6"/>
<circle cx="23.4219" cy="32.9697" r="1" fill="#00B6B6"/>
<circle cx="30.4219" cy="32.9697" r="1" fill="#00B6B6"/>
<circle cx="37.4219" cy="32.9697" r="1" fill="#00B6B6"/>
<circle cx="44.4219" cy="32.9697" r="1" fill="#00B6B6"/>
<circle cx="51.4219" cy="32.9697" r="1" fill="#00B6B6"/>
<circle cx="58.4219" cy="32.9697" r="1" fill="#00B6B6"/>
<circle cx="65.4219" cy="32.9697" r="1" fill="#00B6B6"/>
<circle cx="72.4219" cy="32.9697" r="1" fill="#00B6B6"/>
<circle cx="79.4219" cy="32.9697" r="1" fill="#00B6B6"/>
<circle cx="86.4219" cy="32.9697" r="1" fill="#00B6B6"/>
<circle cx="93.4219" cy="32.9697" r="1" fill="#00B6B6"/>
<circle cx="100.422" cy="32.9697" r="1" fill="#00B6B6"/>
<circle cx="107.422" cy="32.9697" r="1" fill="#00B6B6"/>
<circle cx="114.422" cy="32.9697" r="1" fill="#00B6B6"/>
<circle cx="121.422" cy="32.9697" r="1" fill="#00B6B6"/>
<circle cx="2.42188" cy="38.9697" r="1" fill="#00B6B6"/>
<circle cx="9.42188" cy="38.9697" r="1" fill="#00B6B6"/>
<circle cx="16.4219" cy="38.9697" r="1" fill="#00B6B6"/>
<circle cx="23.4219" cy="38.9697" r="1" fill="#00B6B6"/>
<circle cx="30.4219" cy="38.9697" r="1" fill="#00B6B6"/>
<circle cx="37.4219" cy="38.9697" r="1" fill="#00B6B6"/>
<circle cx="44.4219" cy="38.9697" r="1" fill="#00B6B6"/>
<circle cx="51.4219" cy="38.9697" r="1" fill="#00B6B6"/>
<circle cx="58.4219" cy="38.9697" r="1" fill="#00B6B6"/>
<circle cx="65.4219" cy="38.9697" r="1" fill="#00B6B6"/>
<circle cx="72.4219" cy="38.9697" r="1" fill="#00B6B6"/>
<circle cx="79.4219" cy="38.9697" r="1" fill="#00B6B6"/>
<circle cx="86.4219" cy="38.9697" r="1" fill="#00B6B6"/>
<circle cx="93.4219" cy="38.9697" r="1" fill="#00B6B6"/>
<circle cx="100.422" cy="38.9697" r="1" fill="#00B6B6"/>
<circle cx="107.422" cy="38.9697" r="1" fill="#00B6B6"/>
<circle cx="114.422" cy="38.9697" r="1" fill="#00B6B6"/>
<circle cx="121.422" cy="38.9697" r="1" fill="#00B6B6"/>
<circle cx="2.42188" cy="44.9697" r="1" fill="#00B6B6"/>
<circle cx="9.42188" cy="44.9697" r="1" fill="#00B6B6"/>
<circle cx="16.4219" cy="44.9697" r="1" fill="#00B6B6"/>
<circle cx="23.4219" cy="44.9697" r="1" fill="#00B6B6"/>
<circle cx="30.4219" cy="44.9697" r="1" fill="#00B6B6"/>
<circle cx="37.4219" cy="44.9697" r="1" fill="#00B6B6"/>
<circle cx="44.4219" cy="44.9697" r="1" fill="#00B6B6"/>
<circle cx="51.4219" cy="44.9697" r="1" fill="#00B6B6"/>
<circle cx="58.4219" cy="44.9697" r="1" fill="#00B6B6"/>
<circle cx="65.4219" cy="44.9697" r="1" fill="#00B6B6"/>
<circle cx="72.4219" cy="44.9697" r="1" fill="#00B6B6"/>
<circle cx="79.4219" cy="44.9697" r="1" fill="#00B6B6"/>
<circle cx="86.4219" cy="44.9697" r="1" fill="#00B6B6"/>
<circle cx="93.4219" cy="44.9697" r="1" fill="#00B6B6"/>
<circle cx="100.422" cy="44.9697" r="1" fill="#00B6B6"/>
<circle cx="107.422" cy="44.9697" r="1" fill="#00B6B6"/>
<circle cx="114.422" cy="44.9697" r="1" fill="#00B6B6"/>
<circle cx="121.422" cy="44.9697" r="1" fill="#00B6B6"/>
<circle cx="2.42188" cy="50.9697" r="1" fill="#00B6B6"/>
<circle cx="9.42188" cy="50.9697" r="1" fill="#00B6B6"/>
<circle cx="16.4219" cy="50.9697" r="1" fill="#00B6B6"/>
<circle cx="23.4219" cy="50.9697" r="1" fill="#00B6B6"/>
<circle cx="30.4219" cy="50.9697" r="1" fill="#00B6B6"/>
<circle cx="37.4219" cy="50.9697" r="1" fill="#00B6B6"/>
<circle cx="44.4219" cy="50.9697" r="1" fill="#00B6B6"/>
<circle cx="51.4219" cy="50.9697" r="1" fill="#00B6B6"/>
<circle cx="58.4219" cy="50.9697" r="1" fill="#00B6B6"/>
<circle cx="65.4219" cy="50.9697" r="1" fill="#00B6B6"/>
<circle cx="72.4219" cy="50.9697" r="1" fill="#00B6B6"/>
<circle cx="79.4219" cy="50.9697" r="1" fill="#00B6B6"/>
<circle cx="86.4219" cy="50.9697" r="1" fill="#00B6B6"/>
<circle cx="93.4219" cy="50.9697" r="1" fill="#00B6B6"/>
<circle cx="100.422" cy="50.9697" r="1" fill="#00B6B6"/>
<circle cx="107.422" cy="50.9697" r="1" fill="#00B6B6"/>
<circle cx="114.422" cy="50.9697" r="1" fill="#00B6B6"/>
<circle cx="121.422" cy="50.9697" r="1" fill="#00B6B6"/>
<circle cx="2.42188" cy="56.9697" r="1" fill="#00B6B6"/>
<circle cx="9.42188" cy="56.9697" r="1" fill="#00B6B6"/>
<circle cx="16.4219" cy="56.9697" r="1" fill="#00B6B6"/>
<circle cx="23.4219" cy="56.9697" r="1" fill="#00B6B6"/>
<circle cx="30.4219" cy="56.9697" r="1" fill="#00B6B6"/>
<circle cx="37.4219" cy="56.9697" r="1" fill="#00B6B6"/>
<circle cx="44.4219" cy="56.9697" r="1" fill="#00B6B6"/>
<circle cx="51.4219" cy="56.9697" r="1" fill="#00B6B6"/>
<circle cx="58.4219" cy="56.9697" r="1" fill="#00B6B6"/>
<circle cx="65.4219" cy="56.9697" r="1" fill="#00B6B6"/>
<circle cx="72.4219" cy="56.9697" r="1" fill="#00B6B6"/>
<circle cx="79.4219" cy="56.9697" r="1" fill="#00B6B6"/>
<circle cx="86.4219" cy="56.9697" r="1" fill="#00B6B6"/>
<circle cx="93.4219" cy="56.9697" r="1" fill="#00B6B6"/>
<circle cx="100.422" cy="56.9697" r="1" fill="#00B6B6"/>
<circle cx="107.422" cy="56.9697" r="1" fill="#00B6B6"/>
<circle cx="114.422" cy="56.9697" r="1" fill="#00B6B6"/>
<circle cx="121.422" cy="56.9697" r="1" fill="#00B6B6"/>
<circle cx="2.42188" cy="62.9697" r="1" fill="#00B6B6"/>
<circle cx="9.42188" cy="62.9697" r="1" fill="#00B6B6"/>
<circle cx="16.4219" cy="62.9697" r="1" fill="#00B6B6"/>
<circle cx="23.4219" cy="62.9697" r="1" fill="#00B6B6"/>
<circle cx="30.4219" cy="62.9697" r="1" fill="#00B6B6"/>
<circle cx="37.4219" cy="62.9697" r="1" fill="#00B6B6"/>
<circle cx="44.4219" cy="62.9697" r="1" fill="#00B6B6"/>
<circle cx="51.4219" cy="62.9697" r="1" fill="#00B6B6"/>
<circle cx="58.4219" cy="62.9697" r="1" fill="#00B6B6"/>
<circle cx="65.4219" cy="62.9697" r="1" fill="#00B6B6"/>
<circle cx="72.4219" cy="62.9697" r="1" fill="#00B6B6"/>
<circle cx="79.4219" cy="62.9697" r="1" fill="#00B6B6"/>
<circle cx="86.4219" cy="62.9697" r="1" fill="#00B6B6"/>
<circle cx="93.4219" cy="62.9697" r="1" fill="#00B6B6"/>
<circle cx="100.422" cy="62.9697" r="1" fill="#00B6B6"/>
<circle cx="107.422" cy="62.9697" r="1" fill="#00B6B6"/>
<circle cx="114.422" cy="62.9697" r="1" fill="#00B6B6"/>
<circle cx="121.422" cy="62.9697" r="1" fill="#00B6B6"/>
<circle cx="2.42188" cy="68.9697" r="1" fill="#00B6B6"/>
<circle cx="9.42188" cy="68.9697" r="1" fill="#00B6B6"/>
<circle cx="16.4219" cy="68.9697" r="1" fill="#00B6B6"/>
<circle cx="23.4219" cy="68.9697" r="1" fill="#00B6B6"/>
<circle cx="30.4219" cy="68.9697" r="1" fill="#00B6B6"/>
<circle cx="37.4219" cy="68.9697" r="1" fill="#00B6B6"/>
<circle cx="44.4219" cy="68.9697" r="1" fill="#00B6B6"/>
<circle cx="51.4219" cy="68.9697" r="1" fill="#00B6B6"/>
<circle cx="58.4219" cy="68.9697" r="1" fill="#00B6B6"/>
<circle cx="65.4219" cy="68.9697" r="1" fill="#00B6B6"/>
<circle cx="72.4219" cy="68.9697" r="1" fill="#00B6B6"/>
<circle cx="79.4219" cy="68.9697" r="1" fill="#00B6B6"/>
<circle cx="86.4219" cy="68.9697" r="1" fill="#00B6B6"/>
<circle cx="93.4219" cy="68.9697" r="1" fill="#00B6B6"/>
<circle cx="100.422" cy="68.9697" r="1" fill="#00B6B6"/>
<circle cx="107.422" cy="68.9697" r="1" fill="#00B6B6"/>
<circle cx="114.422" cy="68.9697" r="1" fill="#00B6B6"/>
<circle cx="121.422" cy="68.9697" r="1" fill="#00B6B6"/>
</g>
</svg>
