<svg width="103" height="120" viewBox="0 0 103 120" fill="none" xmlns="http://www.w3.org/2000/svg">
<g filter="url(#filter0_ddddd_2685_8059)">
<circle cx="46.4551" cy="42.9551" r="40" fill="white"/>
<circle cx="46.4551" cy="42.9551" r="39.5" stroke="#BEC8EA"/>
</g>
<path d="M65.6462 31.0764C66.0777 31.0769 66.5007 30.9568 66.8675 30.7296C67.2343 30.5025 67.5303 30.1774 67.7221 29.7909C67.914 29.4045 67.994 28.9721 67.9531 28.5426C67.9123 28.1131 67.7522 27.7035 67.491 27.3602C67.2297 27.0168 66.8777 26.7533 66.4747 26.5994C66.0716 26.4454 65.6336 26.4072 65.21 26.489C64.7863 26.5708 64.394 26.7694 64.0773 27.0623C63.7605 27.3553 63.5319 27.7309 63.4173 28.1468H49.609V26.7227C49.6089 26.5595 49.5441 26.4031 49.4287 26.2877C49.3133 26.1724 49.1569 26.1075 48.9938 26.1074H44.9156C44.7525 26.1075 44.5961 26.1724 44.4807 26.2877C44.3653 26.4031 44.3005 26.5595 44.3004 26.7227V28.2527H30.5191C30.3959 27.7064 30.0787 27.2234 29.6265 26.8932C29.1743 26.5629 28.6177 26.4079 28.0598 26.4567C27.502 26.5055 26.9808 26.7549 26.5928 27.1587C26.2048 27.5625 25.9764 28.0932 25.9499 28.6526C25.9233 29.2119 26.1005 29.7619 26.4485 30.2006C26.7965 30.6393 27.2918 30.9369 27.8425 31.0383C28.3932 31.1397 28.962 31.038 29.4435 30.752C29.9249 30.466 30.2864 30.0152 30.4608 29.4831H39.6394C33.6277 31.7683 29.2261 36.7826 28.209 42.9167H26.5641C26.4009 42.9168 26.2445 42.9816 26.1291 43.097C26.0138 43.2123 25.9489 43.3688 25.9488 43.5319V47.61C25.9488 47.7732 26.0137 47.9297 26.129 48.0451C26.2444 48.1605 26.4009 48.2253 26.5641 48.2253H30.6422C30.8054 48.2253 30.9619 48.1605 31.0772 48.0451C31.1926 47.9297 31.2574 47.7732 31.2574 47.61V43.5319C31.2573 43.3688 31.1925 43.2123 31.0771 43.097C30.9618 42.9816 30.8053 42.9168 30.6422 42.9167H29.4539C30.7023 35.967 36.6662 30.5997 44.3004 29.5615V30.8008C44.3004 30.964 44.3652 31.1204 44.4806 31.2358C44.596 31.3512 44.7525 31.416 44.9156 31.416H45.8033L36.4845 45.3537C36.4245 45.4436 36.3892 45.5476 36.3822 45.6554C36.3751 45.7632 36.3966 45.871 36.4444 45.9679L40.7046 54.6019C39.9052 55.3024 39.2654 56.1662 38.8284 57.1351C38.3914 58.1039 38.1673 59.1553 38.1713 60.2181C38.1791 60.3758 38.2473 60.5245 38.3616 60.6334C38.476 60.7423 38.6279 60.8031 38.7858 60.8031H55.1236C55.2815 60.8031 55.4334 60.7424 55.5478 60.6335C55.6622 60.5246 55.7304 60.3759 55.7381 60.2181C55.7421 59.1553 55.518 58.1039 55.081 57.1351C54.644 56.1662 54.0042 55.3024 53.2048 54.6019L57.4664 45.9661C57.5142 45.8692 57.5357 45.7615 57.5286 45.6537C57.5216 45.5459 57.4863 45.4418 57.4263 45.352L48.1061 31.416H48.9938C49.1569 31.416 49.3134 31.3512 49.4288 31.2358C49.5442 31.1204 49.609 30.964 49.609 30.8008V29.5615C57.2432 30.5997 63.2071 35.968 64.4555 42.9167H63.2672C63.1041 42.9168 62.9476 42.9816 62.8323 43.097C62.7169 43.2123 62.6521 43.3688 62.652 43.5319V47.61C62.652 47.7732 62.7168 47.9297 62.8322 48.0451C62.9475 48.1605 63.104 48.2253 63.2672 48.2253H67.3453C67.5085 48.2253 67.665 48.1605 67.7804 48.0451C67.8957 47.9297 67.9606 47.7732 67.9606 47.61V43.5319C67.9605 43.3688 67.8956 43.2123 67.7803 43.097C67.6649 42.9816 67.5085 42.9168 67.3453 42.9167H65.7004C64.6675 36.6859 60.1429 31.6101 53.9859 29.3773H63.418C63.5529 29.865 63.8437 30.2951 64.2461 30.602C64.6484 30.9088 65.1402 31.0754 65.6462 31.0764ZM30.027 46.9948H27.1793V44.1472H30.027V46.9948ZM66.7301 46.9948H63.8824V44.1472H66.7301V46.9948ZM65.6462 27.6779C65.8607 27.6779 66.0703 27.7414 66.2486 27.8606C66.4269 27.9797 66.5658 28.149 66.6479 28.3472C66.73 28.5453 66.7514 28.7633 66.7096 28.9736C66.6678 29.1839 66.5645 29.3771 66.4129 29.5287C66.2612 29.6804 66.0681 29.7836 65.8577 29.8255C65.6474 29.8673 65.4294 29.8458 65.2313 29.7638C65.0332 29.6817 64.8639 29.5427 64.7447 29.3644C64.6256 29.1861 64.562 28.9765 64.562 28.7621C64.5623 28.4746 64.6766 28.199 64.8799 27.9957C65.0831 27.7925 65.3588 27.6781 65.6462 27.6779ZM28.2632 29.8459C28.0487 29.8459 27.8391 29.7823 27.6608 29.6632C27.4825 29.544 27.3435 29.3747 27.2615 29.1765C27.1794 28.9784 27.1579 28.7604 27.1998 28.5501C27.2417 28.3397 27.345 28.1466 27.4966 27.9949C27.6483 27.8433 27.8415 27.7401 28.0519 27.6983C28.2622 27.6565 28.4802 27.678 28.6783 27.7601C28.8764 27.8422 29.0457 27.9813 29.1648 28.1596C29.2839 28.338 29.3475 28.5476 29.3474 28.7621C29.3471 29.0495 29.2328 29.3251 29.0295 29.5283C28.8262 29.7315 28.5506 29.8458 28.2632 29.8459ZM46.9547 43.5551C47.3534 43.5551 47.7431 43.6733 48.0746 43.8948C48.4061 44.1163 48.6645 44.4311 48.8171 44.7995C48.9697 45.1678 49.0096 45.5731 48.9318 45.9641C48.8541 46.3552 48.6621 46.7143 48.3802 46.9963C48.0984 47.2782 47.7392 47.4702 47.3482 47.5481C46.9572 47.6259 46.5519 47.586 46.1835 47.4335C45.8151 47.281 45.5003 47.0226 45.2787 46.6912C45.0572 46.3597 44.9389 45.97 44.9388 45.5713C44.9393 45.0368 45.1518 44.5243 45.5298 44.1463C45.9077 43.7683 46.4202 43.5557 46.9547 43.5551ZM54.4838 59.5727H39.4288C39.5087 58.76 39.7488 57.9712 40.1355 57.252C40.5221 56.5327 41.0475 55.8973 41.6813 55.3824H52.2281C52.8645 55.8952 53.3918 56.5301 53.7792 57.2497C54.1666 57.9693 54.4061 58.7591 54.4838 59.5727ZM52.0548 54.1519H41.8546L37.7047 45.7404L46.3395 32.8279V42.3851C45.5466 42.5381 44.8393 42.9812 44.3555 43.6277C43.8717 44.2742 43.6462 45.0778 43.7231 45.8816C43.8 46.6854 44.1736 47.4318 44.7712 47.9749C45.3687 48.518 46.1472 48.8189 46.9547 48.8189C47.7622 48.8189 48.5407 48.518 49.1382 47.9749C49.7357 47.4318 50.1094 46.6854 50.1863 45.8816C50.2631 45.0778 50.0377 44.2742 49.5539 43.6277C49.0701 42.9812 48.3628 42.5381 47.5699 42.3851V32.8279L56.2047 45.7404L52.0548 54.1519ZM48.3785 30.1855H45.5309V27.3379H48.3785V30.1855Z" fill="#001665"/>
<defs>
<filter id="filter0_ddddd_2685_8059" x="0.455078" y="0.955078" width="102" height="119" filterUnits="userSpaceOnUse" color-interpolation-filters="sRGB">
<feFlood flood-opacity="0" result="BackgroundImageFix"/>
<feColorMatrix in="SourceAlpha" type="matrix" values="0 0 0 0 0 0 0 0 0 0 0 0 0 0 0 0 0 0 127 0" result="hardAlpha"/>
<feOffset/>
<feColorMatrix type="matrix" values="0 0 0 0 0.470588 0 0 0 0 0.470588 0 0 0 0 0.470588 0 0 0 0.1 0"/>
<feBlend mode="normal" in2="BackgroundImageFix" result="effect1_dropShadow_2685_8059"/>
<feColorMatrix in="SourceAlpha" type="matrix" values="0 0 0 0 0 0 0 0 0 0 0 0 0 0 0 0 0 0 127 0" result="hardAlpha"/>
<feOffset dy="2"/>
<feGaussianBlur stdDeviation="2"/>
<feColorMatrix type="matrix" values="0 0 0 0 0.470588 0 0 0 0 0.470588 0 0 0 0 0.470588 0 0 0 0.1 0"/>
<feBlend mode="normal" in2="effect1_dropShadow_2685_8059" result="effect2_dropShadow_2685_8059"/>
<feColorMatrix in="SourceAlpha" type="matrix" values="0 0 0 0 0 0 0 0 0 0 0 0 0 0 0 0 0 0 127 0" result="hardAlpha"/>
<feOffset dx="1" dy="7"/>
<feGaussianBlur stdDeviation="3.5"/>
<feColorMatrix type="matrix" values="0 0 0 0 0.470588 0 0 0 0 0.470588 0 0 0 0 0.470588 0 0 0 0.09 0"/>
<feBlend mode="normal" in2="effect2_dropShadow_2685_8059" result="effect3_dropShadow_2685_8059"/>
<feColorMatrix in="SourceAlpha" type="matrix" values="0 0 0 0 0 0 0 0 0 0 0 0 0 0 0 0 0 0 127 0" result="hardAlpha"/>
<feOffset dx="3" dy="15"/>
<feGaussianBlur stdDeviation="4.5"/>
<feColorMatrix type="matrix" values="0 0 0 0 0.470588 0 0 0 0 0.470588 0 0 0 0 0.470588 0 0 0 0.05 0"/>
<feBlend mode="normal" in2="effect3_dropShadow_2685_8059" result="effect4_dropShadow_2685_8059"/>
<feColorMatrix in="SourceAlpha" type="matrix" values="0 0 0 0 0 0 0 0 0 0 0 0 0 0 0 0 0 0 127 0" result="hardAlpha"/>
<feOffset dx="5" dy="26"/>
<feGaussianBlur stdDeviation="5.5"/>
<feColorMatrix type="matrix" values="0 0 0 0 0.470588 0 0 0 0 0.470588 0 0 0 0 0.470588 0 0 0 0.01 0"/>
<feBlend mode="normal" in2="effect4_dropShadow_2685_8059" result="effect5_dropShadow_2685_8059"/>
<feBlend mode="normal" in="SourceGraphic" in2="effect5_dropShadow_2685_8059" result="shape"/>
</filter>
</defs>
</svg>
