<svg width="82" height="74" viewBox="0 0 82 74" fill="none" xmlns="http://www.w3.org/2000/svg">
<g opacity="0.6">
<circle cx="2.19141" cy="2" r="2" fill="#F8BC17"/>
<circle cx="13.1914" cy="2" r="2" fill="#F8BC17"/>
<circle cx="24.1914" cy="2" r="2" fill="#F8BC17"/>
<circle cx="35.1914" cy="2" r="2" fill="#F8BC17"/>
<circle cx="2.19141" cy="12" r="2" fill="#F8BC17"/>
<circle cx="13.1914" cy="12" r="2" fill="#F8BC17"/>
<circle cx="24.1914" cy="12" r="2" fill="#F8BC17"/>
<circle cx="35.1914" cy="12" r="2" fill="#F8BC17"/>
<circle cx="2.19141" cy="22" r="2" fill="#F8BC17"/>
<circle cx="13.1914" cy="22" r="2" fill="#F8BC17"/>
<circle cx="24.1914" cy="22" r="2" fill="#F8BC17"/>
<circle cx="35.1914" cy="22" r="2" fill="#F8BC17"/>
<circle cx="2.19141" cy="32" r="2" fill="#F8BC17"/>
<circle cx="13.1914" cy="32" r="2" fill="#F8BC17"/>
<circle cx="24.1914" cy="32" r="2" fill="#F8BC17"/>
<circle cx="35.1914" cy="32" r="2" fill="#F8BC17"/>
<circle cx="2.19141" cy="42" r="2" fill="#F8BC17"/>
<circle cx="13.1914" cy="42" r="2" fill="#F8BC17"/>
<circle cx="24.1914" cy="42" r="2" fill="#F8BC17"/>
<circle cx="35.1914" cy="42" r="2" fill="#F8BC17"/>
<circle cx="2.19141" cy="52" r="2" fill="#F8BC17"/>
<circle cx="13.1914" cy="52" r="2" fill="#F8BC17"/>
<circle cx="24.1914" cy="52" r="2" fill="#F8BC17"/>
<circle cx="35.1914" cy="52" r="2" fill="#F8BC17"/>
<circle cx="2.19141" cy="62" r="2" fill="#F8BC17"/>
<circle cx="13.1914" cy="62" r="2" fill="#F8BC17"/>
<circle cx="24.1914" cy="62" r="2" fill="#F8BC17"/>
<circle cx="35.1914" cy="62" r="2" fill="#F8BC17"/>
<circle cx="2.19141" cy="72" r="2" fill="#F8BC17"/>
<circle cx="13.1914" cy="72" r="2" fill="#F8BC17"/>
<circle cx="24.1914" cy="72" r="2" fill="#F8BC17"/>
<circle cx="35.1914" cy="72" r="2" fill="#F8BC17"/>
</g>
<g opacity="0.6">
<circle cx="46.1914" cy="2" r="2" fill="#F8BC17"/>
<circle cx="57.1914" cy="2" r="2" fill="#F8BC17"/>
<circle cx="68.1914" cy="2" r="2" fill="#F8BC17"/>
<circle cx="79.1914" cy="2" r="2" fill="#F8BC17"/>
<circle cx="46.1914" cy="12" r="2" fill="#F8BC17"/>
<circle cx="57.1914" cy="12" r="2" fill="#F8BC17"/>
<circle cx="68.1914" cy="12" r="2" fill="#F8BC17"/>
<circle cx="79.1914" cy="12" r="2" fill="#F8BC17"/>
<circle cx="46.1914" cy="22" r="2" fill="#F8BC17"/>
<circle cx="57.1914" cy="22" r="2" fill="#F8BC17"/>
<circle cx="68.1914" cy="22" r="2" fill="#F8BC17"/>
<circle cx="79.1914" cy="22" r="2" fill="#F8BC17"/>
<circle cx="46.1914" cy="32" r="2" fill="#F8BC17"/>
<circle cx="57.1914" cy="32" r="2" fill="#F8BC17"/>
<circle cx="68.1914" cy="32" r="2" fill="#F8BC17"/>
<circle cx="79.1914" cy="32" r="2" fill="#F8BC17"/>
<circle cx="46.1914" cy="42" r="2" fill="#F8BC17"/>
<circle cx="57.1914" cy="42" r="2" fill="#F8BC17"/>
<circle cx="68.1914" cy="42" r="2" fill="#F8BC17"/>
<circle cx="79.1914" cy="42" r="2" fill="#F8BC17"/>
<circle cx="46.1914" cy="52" r="2" fill="#F8BC17"/>
<circle cx="57.1914" cy="52" r="2" fill="#F8BC17"/>
<circle cx="68.1914" cy="52" r="2" fill="#F8BC17"/>
<circle cx="79.1914" cy="52" r="2" fill="#F8BC17"/>
<circle cx="46.1914" cy="62" r="2" fill="#F8BC17"/>
<circle cx="57.1914" cy="62" r="2" fill="#F8BC17"/>
<circle cx="68.1914" cy="62" r="2" fill="#F8BC17"/>
<circle cx="79.1914" cy="62" r="2" fill="#F8BC17"/>
<circle cx="46.1914" cy="72" r="2" fill="#F8BC17"/>
<circle cx="57.1914" cy="72" r="2" fill="#F8BC17"/>
<circle cx="68.1914" cy="72" r="2" fill="#F8BC17"/>
<circle cx="79.1914" cy="72" r="2" fill="#F8BC17"/>
</g>
</svg>
