<svg width="45" height="46" viewBox="0 0 45 46" fill="none" xmlns="http://www.w3.org/2000/svg">
<g clip-path="url(#clip0_2685_8039)">
<path d="M40.046 10.461L35.4941 5.90919L39.2229 2.18043C39.8515 1.55184 40.8704 1.55184 41.4988 2.18043L43.7748 4.45636C44.4032 5.08495 44.4032 6.10395 43.7748 6.73237L40.046 10.461Z" fill="#C7CFE2"/>
<path d="M37.7701 8.18512L35.4941 5.90919L39.2229 2.18043C39.8515 1.55184 40.8704 1.55184 41.4988 2.18043L42.6368 3.31835L37.7701 8.18512Z" fill="#AFB9D2"/>
<path d="M23.3625 27.1447L23.3309 27.1764C22.9775 27.5297 22.5468 27.796 22.0727 27.9538L16.043 29.9122L18.0013 23.8826C18.1593 23.4085 18.4255 22.9778 18.7787 22.6245L18.8105 22.5928L23.3625 27.1447Z" fill="#959CB5"/>
<path d="M16.043 29.9117L21.0865 24.8682L23.3624 27.1441L23.3307 27.1757C22.9774 27.5291 22.5466 27.7954 22.0726 27.9532L16.043 29.9117Z" fill="#AFB9D2"/>
<path d="M35.2978 6.10445L39.8496 10.6562L42.1253 8.38053L37.5735 3.82873L35.2978 6.10445Z" fill="#464655"/>
<path d="M39.8512 10.6566L42.127 8.38086L39.8511 6.10496L37.5753 8.38067L39.8512 10.6566Z" fill="#5B5D6E"/>
<path d="M37.77 17.0869C37.3534 17.0869 37.0156 17.4247 37.0156 17.8413V19.4506C37.0156 19.8672 37.3534 20.2049 37.77 20.2049C38.1866 20.2049 38.5244 19.8672 38.5244 19.4506V17.8413C38.5244 17.4247 38.1866 17.0869 37.77 17.0869Z" fill="#001665"/>
<path d="M37.7695 21.9158C37.3529 21.9158 37.0151 22.2536 37.0151 22.6702V43.5918C37.0151 44.0632 36.6316 44.4468 36.1601 44.4468H2.36373C1.89228 44.4468 1.50873 44.0632 1.50873 43.5918V9.79537C1.50873 9.32393 1.89228 8.94037 2.36373 8.94037H23.2853C23.7019 8.94037 24.0397 8.60261 24.0397 8.18601C24.0397 7.7694 23.7019 7.43164 23.2853 7.43164H2.36373C1.0604 7.43164 0 8.49204 0 9.79537V43.5918C0 44.8951 1.0604 45.9555 2.36373 45.9555H36.1601C37.4636 45.9555 38.5239 44.8951 38.5239 43.5918V22.6702C38.5239 22.2536 38.1861 21.9158 37.7695 21.9158Z" fill="#001665"/>
<path d="M26.5044 8.94037H28.1136C28.5302 8.94037 28.868 8.60261 28.868 8.18601C28.868 7.7694 28.5302 7.43164 28.1136 7.43164H26.5044C26.0878 7.43164 25.75 7.7694 25.75 8.18601C25.75 8.60261 26.0878 8.94037 26.5044 8.94037Z" fill="#001665"/>
<path d="M44.9995 5.59474C44.9995 4.96333 44.7536 4.36972 44.3072 3.92332L42.0312 1.64739C41.5848 1.201 40.9912 0.955078 40.3597 0.955078C39.7283 0.955078 39.1347 1.201 38.6883 1.64739L18.2452 22.0906C17.8113 22.5244 17.4794 23.0614 17.2854 23.6436L15.2497 29.7507C15.1593 30.0217 15.2299 30.3206 15.4319 30.5226C15.5758 30.6665 15.7685 30.7436 15.9654 30.7436C16.0452 30.7436 16.1258 30.7309 16.2039 30.7048L22.311 28.6691C22.8932 28.475 23.4301 28.1432 23.8639 27.7093L44.3071 7.26624C44.7536 6.81976 44.9995 6.22623 44.9995 5.59474ZM39.7907 9.64878L36.3057 6.16374L37.5148 4.95463L40.9999 8.43967L39.7907 9.64878ZM23.3621 26.0774L19.8771 22.5923L35.2389 7.23064L38.7239 10.7157L23.3621 26.0774ZM17.1581 28.7965L18.7168 24.1207C18.7613 23.9871 18.8177 23.8574 18.8845 23.7333L22.2212 27.0701C22.0971 27.1369 21.9675 27.1933 21.8339 27.2378L17.1581 28.7965ZM43.2403 6.19934L42.0668 7.37285L38.5817 3.88781L39.7552 2.7143C39.9167 2.55284 40.1313 2.46381 40.3597 2.46381C40.5882 2.46381 40.8028 2.55275 40.9643 2.7143L43.2403 4.99022C43.4017 5.15168 43.4908 5.3664 43.4908 5.59482C43.4908 5.82325 43.4017 6.03779 43.2403 6.19934Z" fill="#001665"/>
</g>
<defs>
<clipPath id="clip0_2685_8039">
<rect width="45" height="45" fill="white" transform="translate(0 0.955078)"/>
</clipPath>
</defs>
</svg>
