<svg width="66" height="75" viewBox="0 0 66 75" fill="none" xmlns="http://www.w3.org/2000/svg">
<path fill-rule="evenodd" clip-rule="evenodd" d="M56.3066 32.8129C56.3763 29.7057 55.8244 26.6158 54.6835 23.7248C53.5425 20.8338 51.8355 18.1999 49.6625 15.9777C47.4896 13.7555 44.8946 11.9899 42.0299 10.7844C39.1652 9.57896 36.0885 8.95801 32.9805 8.95801C29.8725 8.95801 26.7958 9.57896 23.9311 10.7844C21.0663 11.9899 18.4713 13.7555 16.2984 15.9777C14.1255 18.1999 12.4184 20.8338 11.2775 23.7248C10.1365 26.6158 9.58465 29.7057 9.6543 32.8129C9.6543 43.2309 16.8145 51.5629 23.1309 58.8285L24.4082 60.3168C23.6844 60.7011 23.0786 61.2747 22.6555 61.9765C22.2324 62.6782 22.0078 63.4817 22.0059 64.3012V70.4887C22.0151 71.6865 22.4966 72.8322 23.3458 73.677C24.195 74.5218 25.3432 74.9974 26.541 75.0004H39.4316C40.6375 75.0004 41.7941 74.5214 42.6468 73.6687C43.4995 72.816 43.9785 71.6594 43.9785 70.4535V64.266C43.9764 63.4422 43.7494 62.6346 43.3218 61.9303C42.8943 61.2261 42.2826 60.652 41.5527 60.2699L42.7246 58.8168C49.123 51.3051 56.3066 42.7856 56.3066 32.8129ZM11.998 32.8129C11.9319 30.0157 12.4258 27.2336 13.4505 24.63C14.4753 22.0265 16.0103 19.6541 17.9652 17.6524C19.9201 15.6507 22.2556 14.0601 24.8342 12.9741C27.4128 11.8882 30.1825 11.3287 32.9805 11.3287C35.7784 11.3287 38.5481 11.8882 41.1267 12.9741C43.7053 14.0601 46.0408 15.6507 47.9957 17.6524C49.9507 19.6541 51.4857 22.0265 52.5104 24.63C53.5352 27.2336 54.029 30.0157 53.9629 32.8129C53.9629 41.977 47.0723 50.1449 41.002 57.352L38.9746 59.766H27.0098L24.8887 57.3051C18.5488 49.9106 11.998 42.3168 11.998 32.8129ZM39.4551 72.6567H26.5645C26.2751 72.6567 25.9886 72.5997 25.7214 72.4889C25.4541 72.3782 25.2112 72.216 25.0066 72.0114C24.802 71.8068 24.6397 71.5639 24.529 71.2966C24.4183 71.0293 24.3613 70.7428 24.3613 70.4535V68.5317H41.6582V70.4535C41.6582 70.7428 41.6012 71.0293 41.4905 71.2966C41.3798 71.5639 41.2175 71.8068 41.0129 72.0114C40.8083 72.216 40.5655 72.3782 40.2982 72.4889C40.0309 72.5997 39.7444 72.6567 39.4551 72.6567ZM41.6582 66.1879H24.3379V64.266C24.3502 63.6899 24.5877 63.1415 24.9995 62.7384C25.4114 62.3353 25.9647 62.1096 26.541 62.1098H39.4316C40.0159 62.1098 40.5763 62.3419 40.9895 62.7551C41.4027 63.1682 41.6348 63.7286 41.6348 64.3129L41.6582 66.1879Z" fill="#001665"/>
<path fill-rule="evenodd" clip-rule="evenodd" d="M32.8579 49.3574C36.1594 49.3596 39.3875 48.3845 42.1357 46.5551C44.8839 44.7256 47.029 42.1236 48.3009 39.0771C49.5727 36.0305 49.9143 32.6756 49.2827 29.4352C48.651 26.1947 47.0743 23.2138 44.7513 20.868C42.4283 18.5221 39.4629 16.9164 36.2288 16.2531C32.9947 15.5898 29.6366 15.8986 26.5777 17.1406C23.5189 18.3827 20.8961 20.5023 19.0399 23.2325C17.1836 25.9626 16.1771 29.1811 16.147 32.4824C16.1286 32.525 16.1191 32.5708 16.1191 32.6172C16.1191 32.6635 16.1286 32.7094 16.147 32.752C16.181 37.1638 17.9558 41.3836 21.0854 44.4935C24.215 47.6033 28.446 49.3514 32.8579 49.3574ZM31.6861 18.3262V20.3301C31.6861 20.6409 31.8095 20.939 32.0293 21.1587C32.2491 21.3785 32.5471 21.502 32.8579 21.502C33.1687 21.502 33.4668 21.3785 33.6866 21.1587C33.9064 20.939 34.0298 20.6409 34.0298 20.3301V18.3262C37.4336 18.5958 40.6304 20.068 43.0481 22.4792C45.4657 24.8904 46.9464 28.0832 47.2251 31.4863H45.1978C44.887 31.4863 44.5889 31.6098 44.3691 31.8296C44.1494 32.0493 44.0259 32.3474 44.0259 32.6582C44.0259 32.969 44.1494 33.2671 44.3691 33.4868C44.5889 33.7066 44.887 33.8301 45.1978 33.8301H47.2251C46.9388 37.2251 45.4563 40.4081 43.0418 42.8118C40.6273 45.2156 37.4378 46.6839 34.0415 46.9551V44.9512C34.0415 44.6404 33.9181 44.3423 33.6983 44.1225C33.4785 43.9028 33.1805 43.7793 32.8697 43.7793C32.5589 43.7793 32.2608 43.9028 32.041 44.1225C31.8212 44.3423 31.6978 44.6404 31.6978 44.9512V46.9668C28.3088 46.6756 25.1329 45.1925 22.7341 42.7809C20.3354 40.3693 18.8693 37.1854 18.5962 33.7949H20.5884C20.8992 33.7949 21.1973 33.6715 21.4171 33.4517C21.6368 33.2319 21.7603 32.9338 21.7603 32.623C21.7603 32.3122 21.6368 32.0142 21.4171 31.7944C21.1973 31.5746 20.8992 31.4512 20.5884 31.4512H18.5962C18.881 28.0636 20.3568 24.8864 22.7617 22.4837C25.1666 20.0809 28.3451 18.6079 31.7329 18.3262H31.6861Z" fill="#001665"/>
<path fill-rule="evenodd" clip-rule="evenodd" d="M33.0215 5.17969C33.3323 5.17969 33.6304 5.05622 33.8501 4.83645C34.0699 4.61668 34.1934 4.31861 34.1934 4.00781V1.17188C34.1934 0.861074 34.0699 0.563003 33.8501 0.343234C33.6304 0.123465 33.3323 0 33.0215 0C32.7107 0 32.4126 0.123465 32.1928 0.343234C31.9731 0.563003 31.8496 0.861074 31.8496 1.17188V4.00781C31.8496 4.31861 31.9731 4.61668 32.1928 4.83645C32.4126 5.05622 32.7107 5.17969 33.0215 5.17969Z" fill="#001665"/>
<path fill-rule="evenodd" clip-rule="evenodd" d="M51.7709 11.9548C51.9251 11.9557 52.078 11.9261 52.2208 11.8678C52.3635 11.8095 52.4934 11.7235 52.6029 11.6149L54.5834 9.59931C54.7631 9.37467 54.8539 9.09178 54.8385 8.8045C54.8231 8.51723 54.7026 8.24565 54.4999 8.0415C54.2972 7.83735 54.0265 7.7149 53.7393 7.69747C53.4522 7.68003 53.1687 7.76884 52.9427 7.94696L50.9154 9.95087C50.7486 10.1162 50.6353 10.3278 50.5902 10.5582C50.5451 10.7887 50.5703 11.0274 50.6625 11.2434C50.7547 11.4594 50.9096 11.6427 51.1073 11.7695C51.3049 11.8964 51.5361 11.9609 51.7709 11.9548Z" fill="#001665"/>
<path fill-rule="evenodd" clip-rule="evenodd" d="M12.4426 11.9524C12.6754 11.9537 12.9033 11.8857 13.0972 11.757C13.2912 11.6284 13.4424 11.4449 13.5317 11.2299C13.621 11.0149 13.6442 10.7782 13.5984 10.55C13.5526 10.3218 13.4399 10.1124 13.2746 9.94846L11.2707 7.94455C11.0516 7.72077 10.7526 7.59321 10.4394 7.58991C10.1262 7.58661 9.82458 7.70786 9.6008 7.92697C9.37702 8.14609 9.24946 8.44512 9.24616 8.75829C9.24286 9.07146 9.36411 9.37312 9.58322 9.59689L11.6106 11.6125C11.7201 11.7211 11.8499 11.8071 11.9927 11.8654C12.1355 11.9237 12.2884 11.9533 12.4426 11.9524Z" fill="#001665"/>
<path fill-rule="evenodd" clip-rule="evenodd" d="M64.5918 30.7021H61.5449C61.2341 30.7021 60.936 30.8256 60.7163 31.0454C60.4965 31.2652 60.373 31.5632 60.373 31.874C60.373 32.1848 60.4965 32.4829 60.7163 32.7027C60.936 32.9224 61.2341 33.0459 61.5449 33.0459H64.5918C64.9026 33.0459 65.2007 32.9224 65.4204 32.7027C65.6402 32.4829 65.7637 32.1848 65.7637 31.874C65.7637 31.5632 65.6402 31.2652 65.4204 31.0454C65.2007 30.8256 64.9026 30.7021 64.5918 30.7021Z" fill="#001665"/>
<path fill-rule="evenodd" clip-rule="evenodd" d="M4.42773 30.7021H1.38086C1.07006 30.7021 0.771988 30.8256 0.552219 31.0454C0.332449 31.2652 0.208984 31.5632 0.208984 31.874C0.208984 32.1848 0.332449 32.4829 0.552219 32.7027C0.771988 32.9224 1.07006 33.0459 1.38086 33.0459H4.42773C4.73853 33.0459 5.03661 32.9224 5.25638 32.7027C5.47614 32.4829 5.59961 32.1848 5.59961 31.874C5.59961 31.5632 5.47614 31.2652 5.25638 31.0454C5.03661 30.8256 4.73853 30.7021 4.42773 30.7021Z" fill="#001665"/>
<path fill-rule="evenodd" clip-rule="evenodd" d="M31.3808 38.4603L31.7441 38.5658V39.7376C31.7331 39.9132 31.7711 40.0883 31.8539 40.2435C31.9367 40.3987 32.0609 40.5279 32.2128 40.6165C32.3685 40.7208 32.5491 40.7817 32.7361 40.793C32.923 40.8043 33.1097 40.7656 33.2767 40.6809C33.4438 40.5961 33.5853 40.4684 33.6866 40.3109C33.788 40.1534 33.8456 39.9717 33.8534 39.7845V38.554L34.1933 38.4369C34.8687 38.221 35.4671 37.8139 35.9159 37.265C36.2681 36.9142 36.5372 36.4889 36.7035 36.0205C36.8698 35.552 36.929 35.0523 36.8769 34.558C36.7824 33.8717 36.4874 33.2286 36.0287 32.7095C35.57 32.1903 34.9682 31.8182 34.2988 31.64C33.912 31.5345 33.5136 31.4876 33.1269 31.3939C32.7402 31.3001 31.8261 31.0658 31.5449 30.5501C31.4744 30.4208 31.4381 30.2756 31.4394 30.1283C31.4292 29.9502 31.4597 29.7721 31.5288 29.6076C31.5978 29.4431 31.7035 29.2965 31.8378 29.179C32.0751 29.0416 32.3393 28.9568 32.6122 28.9305C32.8852 28.9042 33.1607 28.937 33.4199 29.0267C33.8464 29.1339 34.2456 29.3296 34.5917 29.6009C34.7744 29.7725 35.0072 29.8811 35.2561 29.9106C35.505 29.9401 35.7568 29.8891 35.9745 29.765C36.1145 29.6675 36.2291 29.5379 36.3086 29.387C36.3881 29.2361 36.4303 29.0684 36.4316 28.8978C36.4225 28.6721 36.3656 28.4509 36.2646 28.2489C36.1636 28.0468 36.0208 27.8686 35.8456 27.7259C35.3612 27.3452 34.7959 27.0806 34.1933 26.9525L33.8183 26.847V25.4408C33.8252 25.3052 33.8002 25.1698 33.7452 25.0457C33.6903 24.9215 33.6069 24.812 33.5019 24.7259C32.9511 24.304 31.7089 24.4564 31.7089 25.3236V26.7884L31.3456 26.8939C30.5145 27.1296 29.8081 27.6804 29.3769 28.429C28.9316 29.1971 28.766 30.0957 28.9081 30.972C28.945 31.3135 29.0565 31.6427 29.2347 31.9364C29.4129 32.23 29.6535 32.4809 29.9394 32.6712C30.5384 32.9823 31.1832 33.196 31.8495 33.304C32.2902 33.4002 32.7187 33.5456 33.1269 33.7376C33.3331 33.8431 33.5259 33.9729 33.7011 34.1244C33.9143 34.2783 34.0779 34.4912 34.1716 34.7369C34.2653 34.9826 34.285 35.2504 34.2284 35.5072C34.1205 35.7714 33.9399 35.9997 33.7077 36.1656C33.4754 36.3315 33.2009 36.4283 32.9159 36.4447C32.5463 36.4687 32.1762 36.4048 31.836 36.2581C31.4958 36.1114 31.1952 35.8862 30.9589 35.6009C30.7402 35.2746 30.4117 35.0376 30.0331 34.933C29.8932 34.9012 29.7483 34.8984 29.6073 34.9246C29.4662 34.9508 29.332 35.0055 29.2128 35.0853C29.0843 35.1732 28.9746 35.2858 28.8901 35.4166C28.8055 35.5474 28.748 35.6937 28.7206 35.847C28.6965 36.0335 28.71 36.2229 28.7603 36.404C28.8106 36.5852 28.8967 36.7544 29.0136 36.9017C29.602 37.6758 30.4372 38.2258 31.3808 38.4603Z" fill="#00B6B6"/>
</svg>
