<svg width="46" height="46" viewBox="0 0 46 46" fill="none" xmlns="http://www.w3.org/2000/svg">
<path d="M37.0955 32.0964L33.3759 35.823L31.7658 34.2058C31.7002 34.1402 31.6224 34.0882 31.5367 34.0528C31.4511 34.0173 31.3593 33.999 31.2665 33.999C31.1738 33.999 31.082 34.0173 30.9964 34.0528C30.9107 34.0882 30.8329 34.1402 30.7673 34.2058C30.7018 34.2714 30.6498 34.3492 30.6143 34.4349C30.5788 34.5205 30.5605 34.6123 30.5605 34.705C30.5605 34.7977 30.5788 34.8895 30.6143 34.9752C30.6498 35.0609 30.7018 35.1387 30.7673 35.2042C32.9611 37.391 32.9681 37.5175 33.3759 37.5175C33.7837 37.5175 33.5798 37.6089 38.0939 33.0949C38.2263 32.9625 38.3007 32.7829 38.3007 32.5957C38.3007 32.4084 38.2263 32.2288 38.0939 32.0964C37.9615 31.964 37.7819 31.8896 37.5947 31.8896C37.4074 31.8896 37.2279 31.964 37.0955 32.0964Z" fill="#001665"/>
<path d="M7.35938 12.9082V7.2832C7.35938 6.72376 7.58161 6.18723 7.9772 5.79165C8.37278 5.39607 8.90931 5.17383 9.46875 5.17383H29.1562C29.7157 5.17383 30.2522 5.39607 30.6478 5.79165C31.0434 6.18723 31.2656 6.72376 31.2656 7.2832V9.39258C31.2656 9.57906 31.3397 9.7579 31.4716 9.88976C31.6034 10.0216 31.7823 10.0957 31.9688 10.0957C32.1552 10.0957 32.3341 10.0216 32.4659 9.88976C32.5978 9.7579 32.6719 9.57906 32.6719 9.39258V7.2832C32.6719 6.3508 32.3015 5.45659 31.6422 4.79728C30.9829 4.13797 30.0887 3.76758 29.1562 3.76758H9.46875C8.53635 3.76758 7.64214 4.13797 6.98283 4.79728C6.32352 5.45659 5.95313 6.3508 5.95312 7.2832V12.9082C5.95312 13.0947 6.0272 13.2735 6.15907 13.4054C6.29093 13.5372 6.46977 13.6113 6.65625 13.6113C6.84273 13.6113 7.02157 13.5372 7.15343 13.4054C7.2853 13.2735 7.35938 13.0947 7.35938 12.9082Z" fill="#001665"/>
<path d="M7.35938 16.4238V15.7207C7.35938 15.5342 7.2853 15.3554 7.15343 15.2235C7.02157 15.0917 6.84273 15.0176 6.65625 15.0176C6.46977 15.0176 6.29093 15.0917 6.15907 15.2235C6.0272 15.3554 5.95312 15.5342 5.95312 15.7207V16.4238C5.95312 16.6103 6.0272 16.7892 6.15907 16.921C6.29093 17.0529 6.46977 17.127 6.65625 17.127C6.84273 17.127 7.02157 17.0529 7.15343 16.921C7.2853 16.7892 7.35938 16.6103 7.35938 16.4238Z" fill="#001665"/>
<path d="M12.2814 30.4864C12.2814 30.6729 12.3555 30.8518 12.4874 30.9836C12.6192 31.1155 12.7981 31.1896 12.9846 31.1896H25.6408C25.8273 31.1896 26.0061 31.1155 26.138 30.9836C26.2698 30.8518 26.3439 30.6729 26.3439 30.4864C26.3439 19.8622 26.4072 20.481 26.1892 20.2067C23.1306 16.3817 23.2853 16.4239 22.8283 16.4239C15.3049 16.4239 15.5439 16.3185 15.2486 16.6911C12.1549 20.5513 12.4361 20.2067 12.3447 20.3544C12.2533 20.5021 12.2814 19.7849 12.2814 30.4864ZM24.9377 29.7833H13.6877V21.3458H18.6096V22.7521C18.6096 22.9385 18.6836 23.1174 18.8155 23.2492C18.9474 23.3811 19.1262 23.4552 19.3127 23.4552C19.4992 23.4552 19.678 23.3811 19.8099 23.2492C19.9417 23.1174 20.0158 22.9385 20.0158 22.7521V21.3458H24.9377V29.7833ZM24.1783 19.9396H20.0158V17.8302H22.4908L24.1783 19.9396ZM16.1346 17.8302H18.6096V19.9396H14.4471L16.1346 17.8302Z" fill="#001665"/>
<path d="M17.2031 26.9707H15.7969C15.6104 26.9707 15.4316 27.0448 15.2997 27.1766C15.1678 27.3085 15.0938 27.4873 15.0938 27.6738C15.0938 27.8603 15.1678 28.0392 15.2997 28.171C15.4316 28.3029 15.6104 28.377 15.7969 28.377H17.2031C17.3896 28.377 17.5684 28.3029 17.7003 28.171C17.8322 28.0392 17.9062 27.8603 17.9062 27.6738C17.9062 27.4873 17.8322 27.3085 17.7003 27.1766C17.5684 27.0448 17.3896 26.9707 17.2031 26.9707Z" fill="#001665"/>
<path d="M41.8125 31.3792C41.7519 31.2256 41.6392 31.0983 41.4942 31.0194C41.3491 30.9406 41.181 30.9153 41.0191 30.948C40.8573 30.9807 40.7122 31.0693 40.6091 31.1983C40.506 31.3272 40.4517 31.4884 40.4555 31.6534C40.8336 32.6296 41.0544 33.6596 41.1094 34.705C41.1046 36.3351 40.5336 37.9128 39.4941 39.1684C38.4545 40.424 37.011 41.2794 35.4105 41.5883C33.8099 41.8972 32.1518 41.6404 30.7197 40.8617C29.2875 40.0831 28.1705 38.8311 27.5595 37.3198C26.9485 35.8086 26.8816 34.132 27.3702 32.5769C27.8588 31.0217 28.8726 29.6847 30.2381 28.7944C31.6036 27.9042 33.236 27.516 34.8561 27.6964C36.4762 27.8767 37.9832 28.6144 39.1195 29.7831C39.2501 29.9174 39.4286 29.9943 39.6158 29.9969C39.8031 29.9996 39.9837 29.9277 40.118 29.7972C40.2522 29.6666 40.3292 29.4881 40.3318 29.3009C40.3344 29.1136 40.2626 28.933 40.132 28.7987C39.179 27.8195 38.0012 27.088 36.7011 26.6677C35.4009 26.2473 34.0177 26.151 32.6719 26.387V12.205C32.6719 12.0185 32.5978 11.8397 32.4659 11.7078C32.3341 11.5759 32.1552 11.5019 31.9688 11.5019C31.7823 11.5019 31.6034 11.5759 31.4716 11.7078C31.3397 11.8397 31.2656 12.0185 31.2656 12.205V26.7456C30.858 26.9025 30.459 27.0808 30.0703 27.28C29.768 27.4487 29.8594 29.4878 29.8594 8.68936C29.8594 8.3164 29.7112 7.95872 29.4475 7.695C29.1838 7.43127 28.8261 7.28311 28.4531 7.28311H24.5227C22.6453 7.28311 22.4133 8.68936 21.1336 8.68936C17.3719 8.68936 16.95 8.85108 16.2961 8.19015C15.15 7.05108 14.2641 7.28311 10.1719 7.28311C9.79891 7.28311 9.44123 7.43127 9.17751 7.695C8.91378 7.95872 8.76563 8.3164 8.76563 8.68936V37.5175C8.76563 37.8905 8.91378 38.2481 9.17751 38.5119C9.44123 38.7756 9.79891 38.9237 10.1719 38.9237H13.6875C13.874 38.9237 14.0528 38.8497 14.1847 38.7178C14.3165 38.5859 14.3906 38.4071 14.3906 38.2206C14.3906 38.0341 14.3165 37.8553 14.1847 37.7234C14.0528 37.5916 13.874 37.5175 13.6875 37.5175H10.1719V8.68936C14.1516 8.68936 14.6367 8.52061 15.2977 9.18858C16.4156 10.2995 17.2031 10.0956 21.1336 10.0956C23.0109 10.0956 23.243 8.68936 24.5227 8.68936H28.4531V28.412C27.2025 29.5331 26.313 31.0004 25.8974 32.6277C25.4819 34.2551 25.5589 35.9692 26.1188 37.5526H16.5C16.3135 37.5526 16.1347 37.6267 16.0028 37.7586C15.871 37.8904 15.7969 38.0693 15.7969 38.2558C15.7969 38.4423 15.871 38.6211 16.0028 38.753C16.1347 38.8848 16.3135 38.9589 16.5 38.9589H26.7797C27.4217 40.0842 28.3143 41.0466 29.3883 41.7714C29.2266 41.7362 30.5625 41.7362 9.46875 41.7362C8.90931 41.7362 8.37278 41.514 7.9772 41.1184C7.58161 40.7228 7.35938 40.1863 7.35938 39.6269V19.2362C7.35938 19.0498 7.2853 18.8709 7.15343 18.7391C7.02157 18.6072 6.84273 18.5331 6.65625 18.5331C6.46977 18.5331 6.29093 18.6072 6.15907 18.7391C6.0272 18.8709 5.95312 19.0498 5.95312 19.2362V39.6269C5.95313 40.5593 6.32352 41.4535 6.98283 42.1128C7.64214 42.7721 8.53635 43.1425 9.46875 43.1425C30.6539 43.1425 29.8594 43.3605 31.0547 42.573C32.6014 43.1602 34.2866 43.2797 35.9007 42.9167C37.5148 42.5538 38.9866 41.7243 40.133 40.5314C41.2794 39.3386 42.0498 37.835 42.3484 36.2078C42.647 34.5805 42.4607 32.9014 41.8125 31.3792Z" fill="#001665"/>
</svg>
