<svg width="46" height="46" viewBox="0 0 46 46" fill="none" xmlns="http://www.w3.org/2000/svg">
<path d="M41.6462 11.0764C42.0777 11.0769 42.5007 10.9568 42.8675 10.7296C43.2343 10.5025 43.5303 10.1774 43.7221 9.79091C43.914 9.40446 43.994 8.97209 43.9531 8.54258C43.9123 8.11307 43.7522 7.70353 43.491 7.36017C43.2297 7.01681 42.8777 6.7533 42.4747 6.59937C42.0716 6.44544 41.6336 6.40722 41.21 6.48902C40.7863 6.57083 40.394 6.7694 40.0773 7.06233C39.7605 7.35526 39.5319 7.73089 39.4173 8.14684H25.609V6.72266C25.6089 6.55951 25.5441 6.40308 25.4287 6.28772C25.3133 6.17236 25.1569 6.10752 24.9938 6.10742H20.9156C20.7525 6.10752 20.5961 6.17236 20.4807 6.28772C20.3653 6.40308 20.3005 6.55951 20.3004 6.72266V8.25266H6.51915C6.39586 7.70643 6.07871 7.22343 5.62649 6.89319C5.17428 6.56294 4.61766 6.40786 4.05982 6.45668C3.50199 6.5055 2.98077 6.75492 2.5928 7.1587C2.20482 7.56247 1.97639 8.09322 1.94987 8.65256C1.92334 9.2119 2.1005 9.76188 2.44853 10.2006C2.79655 10.6393 3.29182 10.9369 3.84253 11.0383C4.39323 11.1397 4.96203 11.038 5.44348 10.752C5.92492 10.466 6.28636 10.0152 6.46079 9.48313H15.6394C9.62766 11.7683 5.2261 16.7826 4.20903 22.9167H2.56407C2.40093 22.9168 2.2445 22.9816 2.12914 23.097C2.01378 23.2123 1.94893 23.3688 1.94884 23.5319V27.61C1.94884 27.7732 2.01366 27.9297 2.12903 28.0451C2.24441 28.1605 2.4009 28.2253 2.56407 28.2253H6.6422C6.80537 28.2253 6.96185 28.1605 7.07723 28.0451C7.19261 27.9297 7.25743 27.7732 7.25743 27.61V23.5319C7.25734 23.3688 7.19249 23.2123 7.07713 23.097C6.96177 22.9816 6.80534 22.9168 6.6422 22.9167H5.45391C6.70231 15.967 12.6662 10.5997 20.3004 9.56152V10.8008C20.3004 10.964 20.3652 11.1204 20.4806 11.2358C20.596 11.3512 20.7525 11.416 20.9156 11.416H21.8033L12.4845 25.3537C12.4245 25.4436 12.3892 25.5476 12.3822 25.6554C12.3751 25.7632 12.3966 25.871 12.4444 25.9679L16.7046 34.6019C15.9052 35.3024 15.2654 36.1662 14.8284 37.1351C14.3914 38.1039 14.1673 39.1553 14.1713 40.2181C14.1791 40.3758 14.2473 40.5245 14.3616 40.6334C14.476 40.7423 14.6279 40.8031 14.7858 40.8031H31.1236C31.2815 40.8031 31.4334 40.7424 31.5478 40.6335C31.6622 40.5246 31.7304 40.3759 31.7381 40.2181C31.7421 39.1553 31.518 38.1039 31.081 37.1351C30.644 36.1662 30.0042 35.3024 29.2048 34.6019L33.4664 25.9661C33.5142 25.8692 33.5357 25.7615 33.5286 25.6537C33.5216 25.5459 33.4863 25.4418 33.4263 25.352L24.1061 11.416H24.9938C25.1569 11.416 25.3134 11.3512 25.4288 11.2358C25.5442 11.1204 25.609 10.964 25.609 10.8008V9.56152C33.2432 10.5997 39.2071 15.968 40.4555 22.9167H39.2672C39.1041 22.9168 38.9476 22.9816 38.8323 23.097C38.7169 23.2123 38.6521 23.3688 38.652 23.5319V27.61C38.652 27.7732 38.7168 27.9297 38.8322 28.0451C38.9475 28.1605 39.104 28.2253 39.2672 28.2253H43.3453C43.5085 28.2253 43.665 28.1605 43.7804 28.0451C43.8957 27.9297 43.9606 27.7732 43.9606 27.61V23.5319C43.9605 23.3688 43.8956 23.2123 43.7803 23.097C43.6649 22.9816 43.5085 22.9168 43.3453 22.9167H41.7004C40.6675 16.6859 36.1429 11.6101 29.9859 9.3773H39.418C39.5529 9.86501 39.8437 10.2951 40.2461 10.602C40.6484 10.9088 41.1402 11.0754 41.6462 11.0764V11.0764ZM6.02696 26.9948H3.17931V24.1471H6.02696V26.9948ZM42.7301 26.9948H39.8824V24.1471H42.7301V26.9948ZM41.6462 7.67785C41.8607 7.67785 42.0703 7.74144 42.2486 7.86058C42.4269 7.97971 42.5658 8.14904 42.6479 8.34716C42.73 8.54527 42.7514 8.76327 42.7096 8.97359C42.6678 9.18391 42.5645 9.3771 42.4129 9.52873C42.2612 9.68036 42.0681 9.78362 41.8577 9.82546C41.6474 9.86729 41.4294 9.84582 41.2313 9.76376C41.0332 9.6817 40.8639 9.54273 40.7447 9.36443C40.6256 9.18613 40.562 8.97651 40.562 8.76207C40.5623 8.4746 40.6766 8.19899 40.8799 7.99572C41.0831 7.79245 41.3588 7.67813 41.6462 7.67785V7.67785ZM4.26317 9.84594C4.04872 9.84594 3.83908 9.78234 3.66078 9.66319C3.48247 9.54404 3.3435 9.37469 3.26145 9.17655C3.1794 8.97841 3.15795 8.7604 3.19981 8.55007C3.24168 8.33974 3.34497 8.14655 3.49664 7.99494C3.6483 7.84332 3.84153 7.74009 4.05187 7.69829C4.26221 7.65649 4.48022 7.67802 4.67833 7.76013C4.87644 7.84225 5.04575 7.98127 5.16484 8.15962C5.28393 8.33796 5.34746 8.54762 5.34739 8.76207C5.34711 9.0495 5.23278 9.32508 5.0295 9.5283C4.82622 9.73151 4.55061 9.84575 4.26317 9.84594V9.84594ZM22.9547 23.5551C23.3534 23.5551 23.7431 23.6733 24.0746 23.8948C24.4061 24.1163 24.6645 24.4311 24.8171 24.7995C24.9697 25.1678 25.0096 25.5731 24.9318 25.9641C24.8541 26.3552 24.6621 26.7143 24.3802 26.9963C24.0984 27.2782 23.7392 27.4702 23.3482 27.5481C22.9572 27.6259 22.5519 27.586 22.1835 27.4335C21.8151 27.281 21.5003 27.0226 21.2787 26.6912C21.0572 26.3597 20.9389 25.97 20.9388 25.5713C20.9393 25.0368 21.1518 24.5243 21.5298 24.1463C21.9077 23.7683 22.4202 23.5557 22.9547 23.5551ZM30.4838 39.5727H15.4288C15.5087 38.76 15.7488 37.9712 16.1355 37.252C16.5221 36.5327 17.0475 35.8973 17.6813 35.3824H28.2281C28.8645 35.8952 29.3918 36.5301 29.7792 37.2497C30.1666 37.9693 30.4061 38.7591 30.4838 39.5727ZM28.0548 34.1519H17.8546L13.7047 25.7404L22.3395 12.8279V22.3851C21.5466 22.5381 20.8393 22.9812 20.3555 23.6277C19.8717 24.2742 19.6462 25.0778 19.7231 25.8816C19.8 26.6854 20.1736 27.4318 20.7712 27.9749C21.3687 28.518 22.1472 28.8189 22.9547 28.8189C23.7622 28.8189 24.5407 28.518 25.1382 27.9749C25.7357 27.4318 26.1094 26.6854 26.1863 25.8816C26.2631 25.0778 26.0377 24.2742 25.5539 23.6277C25.0701 22.9812 24.3628 22.5381 23.5699 22.3851V12.8279L32.2047 25.7404L28.0548 34.1519ZM24.3785 10.1855H21.5309V7.33789H24.3785V10.1855Z" fill="#001665"/>
</svg>
