<svg width="103" height="120" viewBox="0 0 103 120" fill="none" xmlns="http://www.w3.org/2000/svg">
<g filter="url(#filter0_ddddd_2685_8036)">
<circle cx="46.9023" cy="42.9551" r="40" fill="white"/>
<circle cx="46.9023" cy="42.9551" r="39.5" stroke="#BEC8EA"/>
</g>
<g clip-path="url(#clip0_2685_8036)">
<path d="M65.046 30.461L60.4941 25.9092L64.2229 22.1804C64.8515 21.5518 65.8704 21.5518 66.4988 22.1804L68.7748 24.4564C69.4032 25.085 69.4032 26.104 68.7748 26.7324L65.046 30.461Z" fill="#C7CFE2"/>
<path d="M62.7701 28.1851L60.4941 25.9092L64.2229 22.1804C64.8515 21.5518 65.8704 21.5518 66.4988 22.1804L67.6368 23.3183L62.7701 28.1851Z" fill="#AFB9D2"/>
<path d="M48.3625 47.1447L48.3309 47.1764C47.9775 47.5297 47.5468 47.796 47.0727 47.9538L41.043 49.9122L43.0013 43.8826C43.1593 43.4085 43.4255 42.9778 43.7787 42.6245L43.8105 42.5928L48.3625 47.1447Z" fill="#959CB5"/>
<path d="M41.043 49.9117L46.0865 44.8682L48.3624 47.1441L48.3307 47.1757C47.9774 47.5291 47.5466 47.7954 47.0726 47.9532L41.043 49.9117Z" fill="#AFB9D2"/>
<path d="M60.2978 26.1044L64.8496 30.6562L67.1253 28.3805L62.5735 23.8287L60.2978 26.1044Z" fill="#464655"/>
<path d="M64.8512 30.6566L67.127 28.3809L64.8511 26.105L62.5753 28.3807L64.8512 30.6566Z" fill="#5B5D6E"/>
<path d="M62.77 37.0869C62.3534 37.0869 62.0156 37.4247 62.0156 37.8413V39.4506C62.0156 39.8672 62.3534 40.2049 62.77 40.2049C63.1866 40.2049 63.5244 39.8672 63.5244 39.4506V37.8413C63.5244 37.4247 63.1866 37.0869 62.77 37.0869Z" fill="#001665"/>
<path d="M62.7695 41.9158C62.3529 41.9158 62.0151 42.2536 62.0151 42.6702V63.5918C62.0151 64.0632 61.6316 64.4468 61.1601 64.4468H27.3637C26.8923 64.4468 26.5087 64.0632 26.5087 63.5918V29.7954C26.5087 29.3239 26.8923 28.9404 27.3637 28.9404H48.2853C48.7019 28.9404 49.0397 28.6026 49.0397 28.186C49.0397 27.7694 48.7019 27.4316 48.2853 27.4316H27.3637C26.0604 27.4316 25 28.492 25 29.7954V63.5918C25 64.8951 26.0604 65.9555 27.3637 65.9555H61.1601C62.4636 65.9555 63.5239 64.8951 63.5239 63.5918V42.6702C63.5239 42.2536 63.1861 41.9158 62.7695 41.9158Z" fill="#001665"/>
<path d="M51.5044 28.9404H53.1136C53.5302 28.9404 53.868 28.6026 53.868 28.186C53.868 27.7694 53.5302 27.4316 53.1136 27.4316H51.5044C51.0878 27.4316 50.75 27.7694 50.75 28.186C50.75 28.6026 51.0878 28.9404 51.5044 28.9404Z" fill="#001665"/>
<path d="M69.9995 25.5947C69.9995 24.9633 69.7536 24.3697 69.3072 23.9233L67.0312 21.6474C66.5848 21.201 65.9912 20.9551 65.3597 20.9551C64.7283 20.9551 64.1347 21.201 63.6883 21.6474L43.2452 42.0906C42.8113 42.5244 42.4794 43.0614 42.2854 43.6436L40.2497 49.7507C40.1593 50.0217 40.2299 50.3206 40.4319 50.5226C40.5758 50.6665 40.7685 50.7436 40.9654 50.7436C41.0452 50.7436 41.1258 50.7309 41.2039 50.7048L47.311 48.6691C47.8932 48.475 48.4301 48.1432 48.8639 47.7093L69.3071 27.2662C69.7536 26.8198 69.9995 26.2262 69.9995 25.5947ZM64.7907 29.6488L61.3057 26.1637L62.5148 24.9546L65.9999 28.4397L64.7907 29.6488ZM48.3621 46.0774L44.8771 42.5923L60.2389 27.2306L63.7239 30.7157L48.3621 46.0774ZM42.1581 48.7965L43.7168 44.1207C43.7613 43.9871 43.8177 43.8574 43.8845 43.7333L47.2212 47.0701C47.0971 47.1369 46.9675 47.1933 46.8339 47.2378L42.1581 48.7965ZM68.2403 26.1993L67.0668 27.3729L63.5817 23.8878L64.7552 22.7143C64.9167 22.5528 65.1313 22.4638 65.3597 22.4638C65.5882 22.4638 65.8028 22.5528 65.9643 22.7143L68.2403 24.9902C68.4017 25.1517 68.4908 25.3664 68.4908 25.5948C68.4908 25.8233 68.4017 26.0378 68.2403 26.1993Z" fill="#001665"/>
</g>
<defs>
<filter id="filter0_ddddd_2685_8036" x="0.902344" y="0.955078" width="102" height="119" filterUnits="userSpaceOnUse" color-interpolation-filters="sRGB">
<feFlood flood-opacity="0" result="BackgroundImageFix"/>
<feColorMatrix in="SourceAlpha" type="matrix" values="0 0 0 0 0 0 0 0 0 0 0 0 0 0 0 0 0 0 127 0" result="hardAlpha"/>
<feOffset/>
<feColorMatrix type="matrix" values="0 0 0 0 0.470588 0 0 0 0 0.470588 0 0 0 0 0.470588 0 0 0 0.1 0"/>
<feBlend mode="normal" in2="BackgroundImageFix" result="effect1_dropShadow_2685_8036"/>
<feColorMatrix in="SourceAlpha" type="matrix" values="0 0 0 0 0 0 0 0 0 0 0 0 0 0 0 0 0 0 127 0" result="hardAlpha"/>
<feOffset dy="2"/>
<feGaussianBlur stdDeviation="2"/>
<feColorMatrix type="matrix" values="0 0 0 0 0.470588 0 0 0 0 0.470588 0 0 0 0 0.470588 0 0 0 0.1 0"/>
<feBlend mode="normal" in2="effect1_dropShadow_2685_8036" result="effect2_dropShadow_2685_8036"/>
<feColorMatrix in="SourceAlpha" type="matrix" values="0 0 0 0 0 0 0 0 0 0 0 0 0 0 0 0 0 0 127 0" result="hardAlpha"/>
<feOffset dx="1" dy="7"/>
<feGaussianBlur stdDeviation="3.5"/>
<feColorMatrix type="matrix" values="0 0 0 0 0.470588 0 0 0 0 0.470588 0 0 0 0 0.470588 0 0 0 0.09 0"/>
<feBlend mode="normal" in2="effect2_dropShadow_2685_8036" result="effect3_dropShadow_2685_8036"/>
<feColorMatrix in="SourceAlpha" type="matrix" values="0 0 0 0 0 0 0 0 0 0 0 0 0 0 0 0 0 0 127 0" result="hardAlpha"/>
<feOffset dx="3" dy="15"/>
<feGaussianBlur stdDeviation="4.5"/>
<feColorMatrix type="matrix" values="0 0 0 0 0.470588 0 0 0 0 0.470588 0 0 0 0 0.470588 0 0 0 0.05 0"/>
<feBlend mode="normal" in2="effect3_dropShadow_2685_8036" result="effect4_dropShadow_2685_8036"/>
<feColorMatrix in="SourceAlpha" type="matrix" values="0 0 0 0 0 0 0 0 0 0 0 0 0 0 0 0 0 0 127 0" result="hardAlpha"/>
<feOffset dx="5" dy="26"/>
<feGaussianBlur stdDeviation="5.5"/>
<feColorMatrix type="matrix" values="0 0 0 0 0.470588 0 0 0 0 0.470588 0 0 0 0 0.470588 0 0 0 0.01 0"/>
<feBlend mode="normal" in2="effect4_dropShadow_2685_8036" result="effect5_dropShadow_2685_8036"/>
<feBlend mode="normal" in="SourceGraphic" in2="effect5_dropShadow_2685_8036" result="shape"/>
</filter>
<clipPath id="clip0_2685_8036">
<rect width="45" height="45" fill="white" transform="translate(25 20.9551)"/>
</clipPath>
</defs>
</svg>
