<svg width="94" height="95" viewBox="0 0 94 95" fill="none" xmlns="http://www.w3.org/2000/svg">
<path d="M81.1169 47.8212H76.3228C76.3228 32.1756 63.5981 19.4537 47.9611 19.4537L47.9582 14.6654C66.2455 14.6567 81.1169 29.534 81.1169 47.8212ZM47.9582 22.9356L47.9554 27.7239C59.0428 27.7239 68.0497 36.7395 68.044 47.8183L72.8381 47.8154C72.8381 34.0979 61.6844 22.9356 47.9582 22.9356ZM47 0.329102C21.0814 0.329102 0 21.4105 0 47.332C0 73.2477 21.0814 94.3291 47 94.3291C48.6028 94.3291 49.8978 93.0342 49.8978 91.4342C49.8978 89.8256 48.6028 88.5278 47 88.5278C24.2784 88.5278 5.79838 70.0421 5.79838 47.332C5.79838 24.6104 24.2784 6.12749 47 6.12749C69.7216 6.12749 88.1987 24.6132 88.1987 47.332C88.1987 56.8252 83.1457 66.2321 75.9142 70.2205C73.287 71.665 70.4381 72.3816 67.3994 72.4103C69.2238 71.3255 70.8036 69.8579 71.9777 68.0105C72.2079 67.6623 72.5129 67.3544 72.6625 66.9774C73.6064 64.707 73.6898 62.1315 74.2596 59.7316C74.9589 56.6698 60.8557 50.6873 59.6298 54.5116C59.1867 55.9274 58.5076 60.405 57.6184 61.5848C56.827 62.638 54.876 62.1373 53.6559 61.1013C50.4416 58.3619 46.8532 54.3361 43.7051 51.1534L43.7109 51.1506C43.6303 51.0671 43.5325 50.975 43.4462 50.8858C43.3569 50.8024 43.2677 50.7074 43.1785 50.6211V50.6268C39.9959 47.473 35.9672 43.8932 33.2306 40.6732C32.1947 39.4531 31.694 37.5021 32.7472 36.7107C33.927 35.8158 38.4046 35.1482 39.8204 34.6993C43.6361 33.4792 37.6622 19.3674 34.5946 20.0695C32.2005 20.6306 29.625 20.7227 27.3546 21.6608C26.969 21.8248 26.6697 22.1212 26.3215 22.3514C18.2671 27.4563 17.2282 39.8531 25.0899 49.0902C28.0855 52.6239 31.2106 56.0425 34.4277 59.3805L34.4105 59.392C34.4997 59.4812 34.5917 59.5647 34.6838 59.651C34.7702 59.7402 34.8536 59.8294 34.9371 59.9244L34.9543 59.9071C38.2924 63.1243 42.2491 67.8637 48.6776 72.1514C62.211 81.1899 72.5963 78.6663 78.7141 75.311C89.275 69.4953 94 57.0727 94 47.3435C94 21.4105 72.9157 0.329102 47 0.329102Z" fill="#F8BC17"/>
</svg>
